SplineFontDB: 3.0
FontName: CharterishSmallCapsItalic
FullName: Charterish Small Caps Italic
FamilyName: Charterish Small Caps
Weight: Book
Copyright: Copyright (c) 1997-2013, SIL International (http://scripts.sil.org/)
Version: 4.114
ItalicAngle: -11
UnderlinePosition: -230
UnderlineWidth: 120
Ascent: 1638
Descent: 410
sfntRevision: 0x00041c28
LayerCount: 2
Layer: 0 1 "Arri+AOgA-re"  1
Layer: 1 1 "Avant"  0
XUID: [1021 607 50037791 1410573]
FSType: 4
OS2Version: 3
OS2_WeightWidthSlopeOnly: 0
OS2_UseTypoMetrics: 1
CreationTime: 1237437904
ModificationTime: 1390651837
PfmFamily: 17
TTFWeight: 400
TTFWidth: 5
LineGap: 0
VLineGap: 0
Panose: 2 0 6 0 6 0 0 9 0 4
OS2TypoAscent: 1562
OS2TypoAOffset: 0
OS2TypoDescent: -487
OS2TypoDOffset: 0
OS2TypoLinegap: 446
OS2WinAscent: 1972
OS2WinAOffset: 0
OS2WinDescent: 483
OS2WinDOffset: 0
HheadAscent: 2007
HheadAOffset: 0
HheadDescent: -487
HheadDOffset: 0
OS2SubXSize: 1331
OS2SubYSize: 1229
OS2SubXOff: 5
OS2SubYOff: 460
OS2SupXSize: 1331
OS2SupYSize: 1229
OS2SupXOff: 5
OS2SupYOff: 785
OS2StrikeYSize: 100
OS2StrikeYPos: 500
OS2Vendor: 'SIL '
OS2CodePages: 20000197.00000000
OS2UnicodeRanges: a00002ff.5200a1ff.02000009.00000000
Lookup: 5 0 0 "'ccmp' Composizione/Decomposizione del glifo lookups0"  {"sous-table 'ccmp' Composizione/Decomposizione del glifo lookups0"  } ['ccmp' ('cyrl' <'dflt' > 'latn' <'IPPH' 'ROM ' 'VIT ' 'dflt' > ) ]
Lookup: 5 0 0 "'ccmp' Composizione/Decomposizione del glifo lookups1"  {"sous-table 'ccmp' Composizione/Decomposizione del glifo lookups1"  } ['ccmp' ('cyrl' <'dflt' > 'latn' <'IPPH' 'ROM ' 'VIT ' 'dflt' > ) ]

StartChar: .notdef
Encoding: 65536 -1 0
Width: 748
Flags: W
LayerCount: 2
Fore
SplineSet
68 0 m 1,0,-1
 68 1365 l 1,1,-1
 612 1365 l 1,2,-1
 612 0 l 1,3,-1
 68 0 l 1,0,-1
136 68 m 1,4,-1
 544 68 l 1,5,-1
 544 1297 l 1,6,-1
 136 1297 l 1,7,-1
 136 68 l 1,4,-1
EndSplineSet
Validated: 1
EndChar

StartChar: exclam
Encoding: 33 33 4
Width: 692
GlyphClass: 2
Flags: W
LayerCount: 2
Fore
SplineSet
135 100 m 0,0,1
 135 127 135 127 145 149.5 c 128,-1,2
 155 172 155 172 173 188.5 c 128,-1,3
 191 205 191 205 215 214 c 128,-1,4
 239 223 239 223 266 223 c 256,5,6
 293 223 293 223 317.5 214 c 128,-1,7
 342 205 342 205 360.5 189 c 128,-1,8
 379 173 379 173 390 150.5 c 128,-1,9
 401 128 401 128 401 100 c 0,10,11
 401 51 401 51 364.5 16.5 c 128,-1,12
 328 -18 328 -18 266 -18 c 0,13,14
 244 -18 244 -18 220.5 -10.5 c 128,-1,15
 197 -3 197 -3 178 12 c 128,-1,16
 159 27 159 27 147 49 c 128,-1,17
 135 71 135 71 135 100 c 0,0,1
238 346 m 1,18,-1
 342 1231 l 2,19,20
 347 1270 347 1270 357.5 1301 c 128,-1,21
 368 1332 368 1332 387 1354 c 128,-1,22
 406 1376 406 1376 435 1387.5 c 128,-1,23
 464 1399 464 1399 506 1399 c 0,24,25
 608 1399 608 1399 608 1294 c 1,26,27
 550 1068 550 1068 501 875 c 0,28,29
 480 793 480 793 459 710.5 c 128,-1,30
 438 628 438 628 420 556 c 128,-1,31
 402 484 402 484 388 428.5 c 128,-1,32
 374 373 374 373 367 346 c 1,33,-1
 238 346 l 1,18,-1
EndSplineSet
Validated: 1
EndChar

StartChar: quotedbl
Encoding: 34 34 5
Width: 678
GlyphClass: 2
Flags: W
LayerCount: 2
Fore
SplineSet
205 864 m 1,0,-1
 231 1321 l 2,1,2
 233 1352 233 1352 240 1377.5 c 128,-1,3
 247 1403 247 1403 261 1422 c 128,-1,4
 275 1441 275 1441 298 1451.5 c 128,-1,5
 321 1462 321 1462 356 1462 c 256,6,7
 391 1462 391 1462 415.5 1442 c 128,-1,8
 440 1422 440 1422 440 1384 c 0,9,10
 440 1373 440 1373 429 1334.5 c 128,-1,11
 418 1296 418 1296 400.5 1242.5 c 128,-1,12
 383 1189 383 1189 362.5 1128.5 c 128,-1,13
 342 1068 342 1068 323.5 1014 c 128,-1,14
 305 960 305 960 290 919 c 128,-1,15
 275 878 275 878 270 864 c 1,16,-1
 205 864 l 1,0,-1
532 864 m 1,17,-1
 557 1321 l 2,18,19
 559 1352 559 1352 566.5 1377.5 c 128,-1,20
 574 1403 574 1403 588.5 1422 c 128,-1,21
 603 1441 603 1441 626 1451.5 c 128,-1,22
 649 1462 649 1462 684 1462 c 0,23,24
 721 1462 721 1462 745.5 1442 c 128,-1,25
 770 1422 770 1422 770 1384 c 0,26,27
 770 1373 770 1373 758.5 1334.5 c 128,-1,28
 747 1296 747 1296 729.5 1242.5 c 128,-1,29
 712 1189 712 1189 691.5 1128.5 c 128,-1,30
 671 1068 671 1068 651.5 1014 c 128,-1,31
 632 960 632 960 617.5 919 c 128,-1,32
 603 878 603 878 598 864 c 1,33,-1
 532 864 l 1,17,-1
EndSplineSet
Validated: 1
EndChar

StartChar: numbersign
Encoding: 35 35 6
Width: 1522
GlyphClass: 2
Flags: W
LayerCount: 2
Fore
SplineSet
156 467 m 1,0,-1
 156 569 l 1,1,-1
 479 569 l 1,2,-1
 580 862 l 1,3,-1
 250 862 l 1,4,-1
 250 967 l 1,5,-1
 614 967 l 1,6,-1
 778 1450 l 1,7,-1
 883 1417 l 1,8,-1
 727 967 l 1,9,-1
 1026 967 l 1,10,-1
 1188 1450 l 1,11,-1
 1294 1417 l 1,12,-1
 1139 967 l 1,13,-1
 1425 967 l 1,14,-1
 1425 862 l 1,15,-1
 1104 862 l 1,16,-1
 1006 569 l 1,17,-1
 1335 569 l 1,18,-1
 1335 467 l 1,19,-1
 971 467 l 1,20,-1
 797 -47 l 1,21,-1
 694 -14 l 1,22,-1
 856 467 l 1,23,-1
 559 467 l 1,24,-1
 385 -47 l 1,25,-1
 283 -12 l 1,26,-1
 446 467 l 1,27,-1
 156 467 l 1,0,-1
594 569 m 1,28,-1
 891 569 l 1,29,-1
 989 862 l 1,30,-1
 692 862 l 1,31,-1
 594 569 l 1,28,-1
EndSplineSet
Validated: 1
EndChar

StartChar: dollar
Encoding: 36 36 7
Width: 1139
GlyphClass: 2
Flags: W
LayerCount: 2
Fore
SplineSet
29 90 m 1,0,-1
 94 412 l 1,1,-1
 231 412 l 1,2,-1
 213 176 l 2,3,4
 213 168 213 168 217.5 164 c 128,-1,5
 222 160 222 160 227 158 c 0,6,7
 231 156 231 156 247.5 148.5 c 128,-1,8
 264 141 264 141 288 132 c 128,-1,9
 312 123 312 123 341.5 115 c 128,-1,10
 371 107 371 107 403 104 c 1,11,-1
 504 627 l 1,12,13
 439 654 439 654 384.5 688 c 128,-1,14
 330 722 330 722 290 763.5 c 128,-1,15
 250 805 250 805 227.5 855 c 128,-1,16
 205 905 205 905 205 965 c 0,17,18
 205 1052 205 1052 241.5 1123 c 128,-1,19
 278 1194 278 1194 339 1245.5 c 128,-1,20
 400 1297 400 1297 480 1328.5 c 128,-1,21
 560 1360 560 1360 647 1368 c 1,22,-1
 676 1522 l 1,23,-1
 793 1522 l 1,24,-1
 768 1374 l 1,25,26
 818 1372 818 1372 866 1364 c 128,-1,27
 914 1356 914 1356 954.5 1346.5 c 128,-1,28
 995 1337 995 1337 1025 1328 c 128,-1,29
 1055 1319 1055 1319 1067 1315 c 1,30,-1
 1001 1010 l 1,31,-1
 881 1010 l 1,32,-1
 891 1210 l 2,33,34
 891 1217 891 1217 883 1227.5 c 128,-1,35
 875 1238 875 1238 868 1241 c 0,36,37
 866 1242 866 1242 855.5 1247 c 128,-1,38
 845 1252 845 1252 829 1257.5 c 128,-1,39
 813 1263 813 1263 791.5 1268.5 c 128,-1,40
 770 1274 770 1274 745 1276 c 1,41,-1
 649 768 l 1,42,43
 717 746 717 746 777 714 c 128,-1,44
 837 682 837 682 881.5 640 c 128,-1,45
 926 598 926 598 951.5 544.5 c 128,-1,46
 977 491 977 491 977 426 c 0,47,48
 977 347 977 347 951.5 285.5 c 128,-1,49
 926 224 926 224 884.5 177.5 c 128,-1,50
 843 131 843 131 791 99 c 128,-1,51
 739 67 739 67 686 46 c 128,-1,52
 633 25 633 25 584.5 14.5 c 128,-1,53
 536 4 536 4 502 2 c 1,54,-1
 463 -209 l 1,55,-1
 342 -209 l 1,56,-1
 381 0 l 1,57,58
 327 3 327 3 280 10 c 128,-1,59
 233 17 233 17 191 28 c 128,-1,60
 149 39 149 39 109 54.5 c 128,-1,61
 69 70 69 70 29 90 c 1,0,-1
410 1020 m 0,62,63
 410 951 410 951 444 903 c 128,-1,64
 478 855 478 855 541 823 c 1,65,-1
 627 1268 l 1,66,67
 578 1253 578 1253 538 1229.5 c 128,-1,68
 498 1206 498 1206 469.5 1174.5 c 128,-1,69
 441 1143 441 1143 425.5 1104 c 128,-1,70
 410 1065 410 1065 410 1020 c 0,62,63
526 113 m 1,71,72
 641 141 641 141 701.5 208 c 128,-1,73
 762 275 762 275 762 371 c 0,74,75
 762 437 762 437 727 488.5 c 128,-1,76
 692 540 692 540 616 575 c 1,77,-1
 526 113 l 1,71,72
EndSplineSet
Validated: 1
EndChar

StartChar: percent
Encoding: 37 37 8
Width: 1761
GlyphClass: 2
Flags: W
LayerCount: 2
Fore
SplineSet
137 834 m 0,0,1
 137 894 137 894 148.5 959.5 c 128,-1,2
 160 1025 160 1025 182.5 1088.5 c 128,-1,3
 205 1152 205 1152 239.5 1210 c 128,-1,4
 274 1268 274 1268 320.5 1311.5 c 128,-1,5
 367 1355 367 1355 425.5 1381 c 128,-1,6
 484 1407 484 1407 555 1407 c 0,7,8
 620 1407 620 1407 666 1384.5 c 128,-1,9
 712 1362 712 1362 741 1323.5 c 128,-1,10
 770 1285 770 1285 783.5 1233 c 128,-1,11
 797 1181 797 1181 797 1122 c 0,12,13
 797 1062 797 1062 786 996.5 c 128,-1,14
 775 931 775 931 752 867 c 128,-1,15
 729 803 729 803 695 745 c 128,-1,16
 661 687 661 687 614.5 643 c 128,-1,17
 568 599 568 599 510 573 c 128,-1,18
 452 547 452 547 381 547 c 0,19,20
 316 547 316 547 269.5 569.5 c 128,-1,21
 223 592 223 592 193.5 631 c 128,-1,22
 164 670 164 670 150.5 722.5 c 128,-1,23
 137 775 137 775 137 834 c 0,0,1
272 0 m 1,24,-1
 1419 1374 l 1,25,-1
 1546 1374 l 1,26,-1
 401 0 l 1,27,-1
 272 0 l 1,24,-1
285 801 m 0,28,29
 285 773 285 773 289.5 742 c 128,-1,30
 294 711 294 711 306 685 c 128,-1,31
 318 659 318 659 340 642 c 128,-1,32
 362 625 362 625 397 625 c 0,33,34
 443 625 443 625 479 655.5 c 128,-1,35
 515 686 515 686 542.5 734 c 128,-1,36
 570 782 570 782 589.5 842 c 128,-1,37
 609 902 609 902 621.5 962 c 128,-1,38
 634 1022 634 1022 639.5 1074.5 c 128,-1,39
 645 1127 645 1127 645 1161 c 0,40,41
 645 1188 645 1188 641.5 1217.5 c 128,-1,42
 638 1247 638 1247 626.5 1272 c 128,-1,43
 615 1297 615 1297 594 1313 c 128,-1,44
 573 1329 573 1329 539 1329 c 0,45,46
 492 1329 492 1329 455 1299.5 c 128,-1,47
 418 1270 418 1270 390 1222.5 c 128,-1,48
 362 1175 362 1175 342 1116 c 128,-1,49
 322 1057 322 1057 309.5 998.5 c 128,-1,50
 297 940 297 940 291 887.5 c 128,-1,51
 285 835 285 835 285 801 c 0,28,29
1024 254 m 0,52,53
 1024 314 1024 314 1035 380 c 128,-1,54
 1046 446 1046 446 1069 509.5 c 128,-1,55
 1092 573 1092 573 1126 630.5 c 128,-1,56
 1160 688 1160 688 1206.5 731.5 c 128,-1,57
 1253 775 1253 775 1311 801 c 128,-1,58
 1369 827 1369 827 1440 827 c 0,59,60
 1505 827 1505 827 1551 804.5 c 128,-1,61
 1597 782 1597 782 1626 743.5 c 128,-1,62
 1655 705 1655 705 1668 653.5 c 128,-1,63
 1681 602 1681 602 1681 543 c 0,64,65
 1681 483 1681 483 1670 417 c 128,-1,66
 1659 351 1659 351 1636 287 c 128,-1,67
 1613 223 1613 223 1579 165 c 128,-1,68
 1545 107 1545 107 1499 63 c 128,-1,69
 1453 19 1453 19 1394.5 -7 c 128,-1,70
 1336 -33 1336 -33 1266 -33 c 0,71,72
 1201 -33 1201 -33 1155 -10.5 c 128,-1,73
 1109 12 1109 12 1080 51 c 128,-1,74
 1051 90 1051 90 1037.5 142.5 c 128,-1,75
 1024 195 1024 195 1024 254 c 0,52,53
1171 221 m 0,76,77
 1171 193 1171 193 1175 162 c 128,-1,78
 1179 131 1179 131 1191 104.5 c 128,-1,79
 1203 78 1203 78 1225 60.5 c 128,-1,80
 1247 43 1247 43 1282 43 c 0,81,82
 1327 43 1327 43 1363.5 73.5 c 128,-1,83
 1400 104 1400 104 1427.5 152.5 c 128,-1,84
 1455 201 1455 201 1475 261.5 c 128,-1,85
 1495 322 1495 322 1507.5 382 c 128,-1,86
 1520 442 1520 442 1526 495 c 128,-1,87
 1532 548 1532 548 1532 582 c 0,88,89
 1532 609 1532 609 1528 638.5 c 128,-1,90
 1524 668 1524 668 1512.5 692.5 c 128,-1,91
 1501 717 1501 717 1479.5 733.5 c 128,-1,92
 1458 750 1458 750 1423 750 c 0,93,94
 1377 750 1377 750 1340.5 720.5 c 128,-1,95
 1304 691 1304 691 1276 643.5 c 128,-1,96
 1248 596 1248 596 1228 537 c 128,-1,97
 1208 478 1208 478 1195.5 419 c 128,-1,98
 1183 360 1183 360 1177 307.5 c 128,-1,99
 1171 255 1171 255 1171 221 c 0,76,77
EndSplineSet
Validated: 1
EndChar

StartChar: ampersand
Encoding: 38 38 9
Width: 1442
GlyphClass: 2
Flags: W
LayerCount: 2
Fore
SplineSet
25 317 m 0,0,1
 25 393 25 393 52.5 456.5 c 128,-1,2
 80 520 80 520 128 573.5 c 128,-1,3
 176 627 176 627 240 671 c 128,-1,4
 304 715 304 715 377 752 c 1,5,6
 354 784 354 784 333.5 816 c 128,-1,7
 313 848 313 848 298 880.5 c 128,-1,8
 283 913 283 913 274.5 947 c 128,-1,9
 266 981 266 981 266 1018 c 0,10,11
 266 1101 266 1101 301 1171 c 128,-1,12
 336 1241 336 1241 397 1292 c 128,-1,13
 458 1343 458 1343 541.5 1372 c 128,-1,14
 625 1401 625 1401 723 1401 c 0,15,16
 807 1401 807 1401 866 1378 c 128,-1,17
 925 1355 925 1355 963 1316.5 c 128,-1,18
 1001 1278 1001 1278 1018.5 1229.5 c 128,-1,19
 1036 1181 1036 1181 1036 1130 c 0,20,21
 1036 1056 1036 1056 1005.5 997 c 128,-1,22
 975 938 975 938 920 890 c 128,-1,23
 865 842 865 842 788.5 804 c 128,-1,24
 712 766 712 766 621 735 c 1,25,-1
 909 354 l 1,26,27
 962 413 962 413 1002 480 c 128,-1,28
 1042 547 1042 547 1067 600 c 0,29,30
 1068 602 1068 602 1065 607 c 128,-1,31
 1062 612 1062 612 1058.5 617 c 128,-1,32
 1055 622 1055 622 1051.5 625.5 c 128,-1,33
 1048 629 1048 629 1047 629 c 2,34,-1
 942 647 l 1,35,-1
 942 741 l 1,36,-1
 1378 741 l 1,37,-1
 1378 647 l 1,38,-1
 1231 631 l 1,39,40
 1188 540 1188 540 1121.5 444 c 128,-1,41
 1055 348 1055 348 977 264 c 1,42,43
 1012 216 1012 216 1046 183.5 c 128,-1,44
 1080 151 1080 151 1118 131 c 128,-1,45
 1156 111 1156 111 1202 102 c 128,-1,46
 1248 93 1248 93 1307 92 c 1,47,-1
 1307 2 l 1,48,49
 1257 0 1257 0 1221.5 -2 c 128,-1,50
 1186 -4 1186 -4 1157 -6 c 0,51,52
 1125 -8 1125 -8 1094.5 -7 c 128,-1,53
 1064 -6 1064 -6 1036 0 c 1,54,55
 1011 4 1011 4 987.5 13.5 c 128,-1,56
 964 23 964 23 940.5 39 c 128,-1,57
 917 55 917 55 892 79 c 128,-1,58
 867 103 867 103 840 137 c 1,59,60
 795 103 795 103 746 74 c 128,-1,61
 697 45 697 45 642 23.5 c 128,-1,62
 587 2 587 2 525 -10.5 c 128,-1,63
 463 -23 463 -23 391 -23 c 0,64,65
 314 -23 314 -23 247.5 0 c 128,-1,66
 181 23 181 23 131.5 67 c 128,-1,67
 82 111 82 111 53.5 174 c 128,-1,68
 25 237 25 237 25 317 c 0,0,1
242 377 m 0,69,70
 242 315 242 315 263 265 c 128,-1,71
 284 215 284 215 319 180 c 128,-1,72
 354 145 354 145 400 125.5 c 128,-1,73
 446 106 446 106 496 106 c 0,74,75
 532 106 532 106 564.5 112.5 c 128,-1,76
 597 119 597 119 630 133 c 128,-1,77
 663 147 663 147 697.5 168.5 c 128,-1,78
 732 190 732 190 772 219 c 1,79,-1
 432 672 l 1,80,81
 344 615 344 615 293 543 c 128,-1,82
 242 471 242 471 242 377 c 0,69,70
451 1073 m 0,83,84
 451 1036 451 1036 461 999.5 c 128,-1,85
 471 963 471 963 487 928.5 c 128,-1,86
 503 894 503 894 523.5 862.5 c 128,-1,87
 544 831 544 831 565 805 c 1,88,89
 625 829 625 829 675 858 c 128,-1,90
 725 887 725 887 760.5 924 c 128,-1,91
 796 961 796 961 816 1007 c 128,-1,92
 836 1053 836 1053 836 1112 c 0,93,94
 836 1148 836 1148 826 1182 c 128,-1,95
 816 1216 816 1216 796.5 1242 c 128,-1,96
 777 1268 777 1268 748 1284 c 128,-1,97
 719 1300 719 1300 682 1300 c 256,98,99
 645 1300 645 1300 604.5 1286 c 128,-1,100
 564 1272 564 1272 530 1244 c 128,-1,101
 496 1216 496 1216 473.5 1173.5 c 128,-1,102
 451 1131 451 1131 451 1073 c 0,83,84
EndSplineSet
Validated: 1
EndChar

StartChar: quotesingle
Encoding: 39 39 10
Width: 348
GlyphClass: 2
Flags: W
LayerCount: 2
Fore
SplineSet
205 864 m 1,0,-1
 231 1321 l 1,1,2
 234 1352 234 1352 241.5 1377.5 c 128,-1,3
 249 1403 249 1403 264 1422 c 128,-1,4
 279 1441 279 1441 303 1451.5 c 128,-1,5
 327 1462 327 1462 362 1462 c 0,6,7
 401 1462 401 1462 426 1442 c 128,-1,8
 451 1422 451 1422 451 1384 c 0,9,10
 451 1373 451 1373 439 1334.5 c 128,-1,11
 427 1296 427 1296 409 1242.5 c 128,-1,12
 391 1189 391 1189 369.5 1128.5 c 128,-1,13
 348 1068 348 1068 328 1014 c 128,-1,14
 308 960 308 960 292.5 919 c 128,-1,15
 277 878 277 878 272 864 c 1,16,-1
 205 864 l 1,0,-1
EndSplineSet
Validated: 1
EndChar

StartChar: parenleft
Encoding: 40 40 11
Width: 858
GlyphClass: 2
Flags: W
LayerCount: 2
Fore
SplineSet
145 285 m 0,0,1
 145 407 145 407 167 539 c 128,-1,2
 189 671 189 671 233 798.5 c 128,-1,3
 277 926 277 926 344 1042.5 c 128,-1,4
 411 1159 411 1159 501 1250 c 128,-1,5
 591 1341 591 1341 705 1399.5 c 128,-1,6
 819 1458 819 1458 956 1470 c 1,7,-1
 938 1376 l 1,8,9
 853 1365 853 1365 782.5 1323 c 128,-1,10
 712 1281 712 1281 654.5 1217.5 c 128,-1,11
 597 1154 597 1154 551.5 1073.5 c 128,-1,12
 506 993 506 993 472 904.5 c 128,-1,13
 438 816 438 816 414 724 c 128,-1,14
 390 632 390 632 375 545 c 128,-1,15
 360 458 360 458 353 381 c 128,-1,16
 346 304 346 304 346 246 c 0,17,18
 346 132 346 132 368.5 53.5 c 128,-1,19
 391 -25 391 -25 430.5 -77 c 128,-1,20
 470 -129 470 -129 523 -157.5 c 128,-1,21
 576 -186 576 -186 637 -199 c 1,22,-1
 618 -293 l 1,23,24
 514 -287 514 -287 427.5 -242.5 c 128,-1,25
 341 -198 341 -198 278 -122.5 c 128,-1,26
 215 -47 215 -47 180 56.5 c 128,-1,27
 145 160 145 160 145 285 c 0,0,1
EndSplineSet
Validated: 1
EndChar

StartChar: parenright
Encoding: 41 41 12
Width: 856
GlyphClass: 2
Flags: W
LayerCount: 2
Fore
SplineSet
-98 -295 m 1,0,-1
 -80 -197 l 1,1,2
 9 -185 9 -185 81.5 -140.5 c 128,-1,3
 154 -96 154 -96 212.5 -29 c 128,-1,4
 271 38 271 38 315.5 122.5 c 128,-1,5
 360 207 360 207 393 298.5 c 128,-1,6
 426 390 426 390 448.5 483.5 c 128,-1,7
 471 577 471 577 484.5 662.5 c 128,-1,8
 498 748 498 748 504 820.5 c 128,-1,9
 510 893 510 893 510 942 c 0,10,11
 510 973 510 973 506 1014 c 128,-1,12
 502 1055 502 1055 491.5 1100 c 128,-1,13
 481 1145 481 1145 461 1190 c 128,-1,14
 441 1235 441 1235 409 1273 c 128,-1,15
 377 1311 377 1311 330.5 1338.5 c 128,-1,16
 284 1366 284 1366 221 1376 c 1,17,-1
 240 1470 l 1,18,19
 349 1458 349 1458 426.5 1419 c 128,-1,20
 504 1380 504 1380 556.5 1327 c 128,-1,21
 609 1274 609 1274 639.5 1212 c 128,-1,22
 670 1150 670 1150 686 1092 c 128,-1,23
 702 1034 702 1034 706.5 985 c 128,-1,24
 711 936 711 936 711 909 c 0,25,26
 711 739 711 739 682.5 588 c 128,-1,27
 654 437 654 437 602.5 308 c 128,-1,28
 551 179 551 179 477.5 73.5 c 128,-1,29
 404 -32 404 -32 314.5 -109 c 128,-1,30
 225 -186 225 -186 120.5 -233.5 c 128,-1,31
 16 -281 16 -281 -98 -295 c 1,0,-1
EndSplineSet
Validated: 1
EndChar

StartChar: asterisk
Encoding: 42 42 13
Width: 1024
GlyphClass: 2
Flags: W
LayerCount: 2
Fore
SplineSet
240 1167 m 1,0,-1
 383 1210 l 1,1,-1
 604 1065 l 1,2,-1
 598 1036 l 1,3,-1
 332 1051 l 1,4,-1
 240 1167 l 1,0,-1
393 690 m 1,5,-1
 397 842 l 1,6,-1
 604 1008 l 1,7,-1
 631 989 l 1,8,-1
 537 743 l 1,9,-1
 393 690 l 1,5,-1
557 1341 m 1,10,-1
 641 1466 l 1,11,-1
 727 1341 l 1,12,-1
 655 1085 l 1,13,-1
 629 1085 l 1,14,-1
 557 1341 l 1,10,-1
653 989 m 1,15,-1
 680 1008 l 1,16,-1
 887 842 l 1,17,-1
 891 690 l 1,18,-1
 748 743 l 1,19,-1
 653 989 l 1,15,-1
680 1065 m 1,20,-1
 899 1210 l 1,21,-1
 1044 1167 l 1,22,-1
 952 1051 l 1,23,-1
 688 1036 l 1,24,-1
 680 1065 l 1,20,-1
EndSplineSet
Validated: 1
EndChar

StartChar: plus
Encoding: 43 43 14
Width: 2048
GlyphClass: 2
Flags: W
LayerCount: 2
Fore
SplineSet
410 551 m 1,0,-1
 410 678 l 1,1,-1
 961 678 l 1,2,-1
 961 1229 l 1,3,-1
 1087 1229 l 1,4,-1
 1087 678 l 1,5,-1
 1638 678 l 1,6,-1
 1638 551 l 1,7,-1
 1087 551 l 1,8,-1
 1087 0 l 1,9,-1
 961 0 l 1,10,-1
 961 551 l 1,11,-1
 410 551 l 1,0,-1
EndSplineSet
Validated: 1
EndChar

StartChar: comma
Encoding: 44 44 15
Width: 573
GlyphClass: 2
Flags: W
LayerCount: 2
Fore
SplineSet
-113 -348 m 1,0,-1
 -98 -274 l 1,1,2
 -35 -261 -35 -261 12.5 -237.5 c 128,-1,3
 60 -214 60 -214 94.5 -179.5 c 128,-1,4
 129 -145 129 -145 151 -97 c 128,-1,5
 173 -49 173 -49 184 14 c 1,6,-1
 55 14 l 1,7,8
 44 28 44 28 39.5 45.5 c 128,-1,9
 35 63 35 63 35 80 c 0,10,11
 35 111 35 111 48 141.5 c 128,-1,12
 61 172 61 172 82.5 196 c 128,-1,13
 104 220 104 220 132.5 235 c 128,-1,14
 161 250 161 250 193 250 c 0,15,16
 229 250 229 250 254.5 238.5 c 128,-1,17
 280 227 280 227 295.5 206 c 128,-1,18
 311 185 311 185 318.5 157 c 128,-1,19
 326 129 326 129 326 96 c 0,20,21
 326 9 326 9 289 -68 c 128,-1,22
 252 -145 252 -145 190.5 -205 c 128,-1,23
 129 -265 129 -265 50 -303 c 128,-1,24
 -29 -341 -29 -341 -113 -348 c 1,0,-1
EndSplineSet
Validated: 1
EndChar

StartChar: hyphen
Encoding: 45 45 16
Width: 653
GlyphClass: 2
Flags: W
LayerCount: 2
Fore
SplineSet
61 424 m 1,0,-1
 88 563 l 1,1,-1
 580 563 l 1,2,-1
 553 424 l 1,3,-1
 61 424 l 1,0,-1
EndSplineSet
Validated: 1
EndChar

StartChar: period
Encoding: 46 46 17
Width: 573
GlyphClass: 2
Flags: W
LayerCount: 2
Fore
SplineSet
37 113 m 0,0,1
 37 141 37 141 47.5 166 c 128,-1,2
 58 191 58 191 76 209.5 c 128,-1,3
 94 228 94 228 118.5 239 c 128,-1,4
 143 250 143 250 172 250 c 0,5,6
 200 250 200 250 225.5 239 c 128,-1,7
 251 228 251 228 270 209.5 c 128,-1,8
 289 191 289 191 300 166 c 128,-1,9
 311 141 311 141 311 113 c 0,10,11
 311 84 311 84 300 59 c 128,-1,12
 289 34 289 34 270 15.5 c 128,-1,13
 251 -3 251 -3 225.5 -14 c 128,-1,14
 200 -25 200 -25 172 -25 c 0,15,16
 143 -25 143 -25 118.5 -14 c 128,-1,17
 94 -3 94 -3 76 15.5 c 128,-1,18
 58 34 58 34 47.5 59 c 128,-1,19
 37 84 37 84 37 113 c 0,0,1
EndSplineSet
Validated: 1
EndChar

StartChar: slash
Encoding: 47 47 18
Width: 1004
GlyphClass: 2
Flags: W
LayerCount: 2
Fore
SplineSet
0 -190 m 1,0,-1
 872 1374 l 1,1,-1
 1004 1374 l 1,2,-1
 131 -190 l 1,3,-1
 0 -190 l 1,0,-1
EndSplineSet
Validated: 1
EndChar

StartChar: zero
Encoding: 48 48 19
Width: 1153
GlyphClass: 2
Flags: WO
LayerCount: 2
Fore
SplineSet
191.343 562.52 m 0,0,1
 206.963 642.88 206.963 642.88 235.048 717.91 c 128,-1,2
 263.132 792.94 263.132 792.94 302.883 858.54 c 128,-1,3
 342.635 924.14 342.635 924.14 393.654 978.26 c 128,-1,4
 444.675 1032.38 444.675 1032.38 507.245 1071.33 c 128,-1,5
 569.816 1110.28 569.816 1110.28 643.04 1132.01 c 128,-1,6
 716.265 1153.74 716.265 1153.74 799.265 1153.74 c 256,7,8
 882.265 1153.74 882.265 1153.74 947.54 1132.01 c 128,-1,9
 1012.82 1110.28 1012.82 1110.28 1060.25 1071.33 c 128,-1,10
 1107.67 1032.38 1107.67 1032.38 1138.15 978.26 c 128,-1,11
 1168.63 924.14 1168.63 924.14 1183.38 858.54 c 128,-1,12
 1198.13 792.94 1198.13 792.94 1197.05 717.91 c 128,-1,13
 1195.96 642.88 1195.96 642.88 1180.34 562.52 c 0,14,15
 1156.91 441.98 1156.91 441.98 1105.61 334.97 c 128,-1,16
 1054.31 227.96 1054.31 227.96 977.19 147.6 c 128,-1,17
 900.07 67.2402 900.07 67.2402 797.405 20.0898 c 128,-1,18
 694.74 -27.0596 694.74 -27.0596 569.74 -27.0596 c 256,19,20
 444.74 -27.0596 444.74 -27.0596 361.405 20.0898 c 128,-1,21
 278.07 67.2402 278.07 67.2402 232.19 147.6 c 128,-1,22
 186.311 227.96 186.311 227.96 177.111 334.97 c 128,-1,23
 167.912 441.98 167.912 441.98 191.343 562.52 c 0,0,1
407.003 565.918 m 260,24,25
 395.066 504.51 395.066 504.51 388.863 444.299 c 132,-1,26
 382.659 384.088 382.659 384.088 385.04 329.459 c 132,-1,27
 387.422 274.83 387.422 274.83 399.353 228.176 c 132,-1,28
 411.284 181.522 411.284 181.522 435.196 147.629 c 132,-1,29
 459.107 113.735 459.107 113.735 497.31 94.1963 c 132,-1,30
 535.512 74.6572 535.512 74.6572 589.512 74.6572 c 260,31,32
 643.512 74.6572 643.512 74.6572 689.31 94.1963 c 132,-1,33
 735.107 113.735 735.107 113.735 772.696 147.629 c 132,-1,34
 810.284 181.522 810.284 181.522 840.353 228.176 c 132,-1,35
 870.422 274.83 870.422 274.83 894.04 329.459 c 132,-1,36
 917.659 384.088 917.659 384.088 934.863 444.299 c 132,-1,37
 952.066 504.51 952.066 504.51 964.003 565.918 c 260,38,39
 975.939 627.325 975.939 627.325 982.144 687.536 c 132,-1,40
 988.348 747.748 988.348 747.748 986.044 802.775 c 132,-1,41
 983.74 857.803 983.74 857.803 971.886 904.855 c 132,-1,42
 960.032 951.907 960.032 951.907 935.698 986.2 c 132,-1,43
 911.363 1020.49 911.363 1020.49 873.161 1040.03 c 132,-1,44
 834.96 1059.57 834.96 1059.57 780.96 1059.57 c 260,45,46
 726.96 1059.57 726.96 1059.57 681.161 1040.03 c 132,-1,47
 635.363 1020.49 635.363 1020.49 598.198 986.2 c 132,-1,48
 561.032 951.907 561.032 951.907 530.886 904.855 c 132,-1,49
 500.74 857.803 500.74 857.803 477.044 802.775 c 132,-1,50
 453.348 747.748 453.348 747.748 436.144 687.536 c 132,-1,51
 418.939 627.325 418.939 627.325 407.003 565.918 c 260,24,25
EndSplineSet
EndChar

StartChar: one
Encoding: 49 49 20
Width: 1153
GlyphClass: 2
Flags: W
LayerCount: 2
Fore
SplineSet
329.193 891 m 1,0,-1
 347.076 983 l 1,1,-1
 815.706 1120 l 1,2,-1
 893.706 1120 l 1,3,-1
 704.186 145 l 2,4,5
 700.688 127.006 700.688 127.006 711.062 113.5 c 0,6,7
 720.805 100.825 720.805 100.825 740.438 100 c 2,8,-1
 930.883 92 l 1,9,-1
 913 0 l 1,10,-1
 221 0 l 1,11,-1
 238.883 92 l 1,12,-1
 447.438 100 l 2,13,14
 467.32 100.763 467.32 100.763 482.062 113.5 c 0,15,16
 497.647 126.799 497.647 126.799 501.186 145 c 2,17,-1
 656.884 946 l 1,18,-1
 329.193 891 l 1,0,-1
EndSplineSet
EndChar

StartChar: two
Encoding: 50 50 21
Width: 1153
GlyphClass: 2
Flags: W
LayerCount: 2
Fore
SplineSet
96 0 m 1,0,-1
 122.63 137 l 1,1,2
 280.695 238.057 280.695 238.057 445.659 322.352 c 0,3,4
 591.105 396.674 591.105 396.674 701.763 474.652 c 128,-1,5
 812.42 552.63 812.42 552.63 882.776 641.918 c 128,-1,6
 953.132 731.205 953.132 731.205 963.961 786.915 c 0,7,8
 976.801 852.973 976.801 852.973 964.553 905.715 c 0,9,10
 951.763 960.809 951.763 960.809 917.592 990.8 c 128,-1,11
 883.422 1020.79 883.422 1020.79 832.207 1032.55 c 128,-1,12
 780.991 1044.3 780.991 1044.3 720.991 1044.3 c 0,13,14
 684.991 1044.3 684.991 1044.3 653.937 1036.3 c 128,-1,15
 622.881 1028.3 622.881 1028.3 598.938 1018.3 c 128,-1,16
 574.994 1008.3 574.994 1008.3 559.938 1000.3 c 128,-1,17
 544.884 992.3 544.884 992.3 540.689 991.3 c 1,18,-1
 496.564 764.3 l 1,19,20
 483.621 754.3 483.621 754.3 467.066 746.3 c 0,21,22
 452.705 739.3 452.705 739.3 432.733 734.3 c 128,-1,23
 412.762 729.3 412.762 729.3 389.762 729.3 c 0,24,25
 365.762 729.3 365.762 729.3 345.22 736.8 c 128,-1,26
 324.678 744.3 324.678 744.3 310.093 759.3 c 128,-1,27
 295.509 774.3 295.509 774.3 289.882 796.8 c 128,-1,28
 284.256 819.3 284.256 819.3 290.281 850.3 c 0,29,30
 302.722 914.3 302.722 914.3 350.107 970.3 c 128,-1,31
 397.492 1026.3 397.492 1026.3 467.462 1067.3 c 128,-1,32
 537.432 1108.3 537.432 1108.3 623.5 1131.8 c 128,-1,33
 709.567 1155.3 709.567 1155.3 799.567 1155.3 c 0,34,35
 899.567 1155.3 899.567 1155.3 979.631 1135.05 c 0,36,37
 1059.44 1114.85 1059.44 1114.85 1112.66 1068.3 c 0,38,39
 1166.59 1022.33 1166.59 1022.33 1184.06 952.045 c 0,40,41
 1202.14 875.282 1202.14 875.282 1187.76 801.3 c 0,42,43
 1172.97 725.252 1172.97 725.252 1136.15 677.3 c 0,44,45
 1111.89 645.705 1111.89 645.705 1040.71 582.428 c 0,46,47
 981.76 528.654 981.76 528.654 902.958 475.654 c 0,48,49
 789.804 403.492 789.804 403.492 736.744 376.809 c 0,50,51
 551.984 283.894 551.984 283.894 549.236 281.594 c 0,52,53
 549.236 281.594 549.236 281.594 346.434 172 c 1,54,-1
 953.434 172 l 1,55,-1
 1023.64 348 l 1,56,-1
 1124.64 348 l 1,57,-1
 1057 0 l 1,58,-1
 96 0 l 1,0,-1
EndSplineSet
EndChar

StartChar: three
Encoding: 51 51 22
Width: 1153
GlyphClass: 2
Flags: W
LayerCount: 2
Fore
SplineSet
86.4756 -49 m 4,0,1
 90.5576 -28 90.5576 -28 101.848 -8.5 c 132,-1,2
 113.139 11 113.139 11 131.151 26.5 c 132,-1,3
 149.164 42 149.164 42 173.511 51.5 c 132,-1,4
 197.857 61 197.857 61 228.857 61 c 4,5,6
 240.857 61 240.857 61 262.871 58.5 c 132,-1,7
 284.886 56 284.886 56 296.136 47 c 5,8,-1
 321.759 -135 l 5,9,10
 357.288 -158 357.288 -158 398.872 -173 c 132,-1,11
 440.456 -188 440.456 -188 489.456 -188 c 4,12,13
 561.456 -188 561.456 -188 625.705 -161 c 132,-1,14
 689.953 -134 689.953 -134 740.7 -89 c 132,-1,15
 791.447 -44 791.447 -44 825.624 13.5 c 132,-1,16
 859.801 71 859.801 71 871.853 133 c 4,17,18
 886.431 208 886.431 208 867.053 257.5 c 132,-1,19
 847.675 307 847.675 307 808.409 336.5 c 132,-1,20
 769.144 366 769.144 366 717.573 378.5 c 132,-1,21
 666.003 391 666.003 391 615.003 391 c 4,22,23
 588.003 391 588.003 391 564.809 390 c 132,-1,24
 541.614 389 541.614 389 524.226 387 c 4,25,26
 504.836 385 504.836 385 488.447 383 c 5,27,-1
 513.134 510 l 5,28,29
 516.134 510 516.134 510 532.939 509 c 132,-1,30
 549.745 508 549.745 508 565.745 508 c 4,31,32
 629.745 508 629.745 508 692.258 523.5 c 132,-1,33
 754.771 539 754.771 539 806.394 570.5 c 132,-1,34
 858.017 602 858.017 602 894.542 651 c 132,-1,35
 931.066 700 931.066 700 944.284 768 c 4,36,37
 956.725 832 956.725 832 943.943 882 c 132,-1,38
 931.162 932 931.162 932 900.868 966.5 c 132,-1,39
 870.574 1001 870.574 1001 824.977 1018.5 c 132,-1,40
 779.378 1036 779.378 1036 727.378 1036 c 4,41,42
 686.378 1036 686.378 1036 650.629 1027 c 132,-1,43
 614.879 1018 614.879 1018 588.741 1007 c 4,44,45
 557.408 995 557.408 995 532.299 979 c 5,46,-1
 492.45 774 l 5,47,48
 485.867 771 485.867 771 459.632 759.5 c 132,-1,49
 433.396 748 433.396 748 395.396 748 c 4,50,51
 377.396 748 377.396 748 357.466 753.5 c 132,-1,52
 337.535 759 337.535 759 322.062 772 c 132,-1,53
 306.589 785 306.589 785 299.365 807 c 132,-1,54
 292.142 829 292.142 829 298.556 862 c 4,55,56
 309.83 920 309.83 920 356.035 972.5 c 132,-1,57
 402.24 1025 402.24 1025 471.82 1064 c 132,-1,58
 541.401 1103 541.401 1103 628.372 1126 c 132,-1,59
 715.343 1149 715.343 1149 807.343 1149 c 4,60,61
 896.343 1149 896.343 1149 967.983 1124 c 132,-1,62
 1039.62 1099 1039.62 1099 1087.18 1053 c 132,-1,63
 1134.74 1007 1134.74 1007 1154.51 941.5 c 132,-1,64
 1174.28 876 1174.28 876 1158.53 795 c 4,65,66
 1135.98 679 1135.98 679 1037.87 593.5 c 132,-1,67
 939.745 508 939.745 508 778.387 465 c 5,68,69
 841.804 462 841.804 462 903.819 441.5 c 132,-1,70
 965.834 421 965.834 421 1010.96 380.5 c 132,-1,71
 1056.09 340 1056.09 340 1077.63 278.5 c 132,-1,72
 1099.18 217 1099.18 217 1082.85 133 c 4,73,74
 1064.78 40 1064.78 40 1007.11 -38 c 132,-1,75
 949.452 -116 949.452 -116 865.566 -172 c 132,-1,76
 781.682 -228 781.682 -228 678.059 -259.5 c 132,-1,77
 574.436 -291 574.436 -291 463.436 -291 c 4,78,79
 359.436 -291 359.436 -291 285.003 -267.5 c 132,-1,80
 210.571 -244 210.571 -244 164.069 -208 c 132,-1,81
 117.566 -172 117.566 -172 98.3281 -129.5 c 132,-1,82
 79.0889 -87 79.0889 -87 86.4756 -49 c 4,0,1
EndSplineSet
EndChar

StartChar: four
Encoding: 52 52 23
Width: 1153
GlyphClass: 2
Flags: W
LayerCount: 2
Fore
SplineSet
105.52 121 m 1,0,-1
 132.928 262 l 1,1,-1
 971.706 1120 l 1,2,-1
 1114.71 1120 l 1,3,-1
 947.539 260 l 1,4,-1
 1121.54 260 l 1,5,-1
 1094.52 121 l 1,6,-1
 920.52 121 l 1,7,-1
 834.798 -320 l 1,8,-1
 642.798 -320 l 1,9,-1
 728.52 121 l 1,10,-1
 105.52 121 l 1,0,-1
294.539 260 m 1,11,-1
 755.539 260 l 1,12,-1
 871.778 858 l 1,13,-1
 294.539 260 l 1,11,-1
EndSplineSet
EndChar

StartChar: five
Encoding: 53 53 24
Width: 1153
GlyphClass: 2
Flags: W
LayerCount: 2
Fore
SplineSet
83.2529 -45 m 4,0,1
 94.1387 11 94.1387 11 136.372 40.5 c 132,-1,2
 178.606 70 178.606 70 234.606 70 c 4,3,4
 251.606 70 251.606 70 266.927 66.5 c 132,-1,5
 282.246 63 282.246 63 287.857 61 c 5,6,-1
 329.313 -127 l 5,7,8
 338.981 -139 338.981 -139 356.94 -149.5 c 132,-1,9
 374.899 -160 374.899 -160 395.344 -168 c 132,-1,10
 415.789 -176 415.789 -176 436.817 -181 c 132,-1,11
 457.846 -186 457.846 -186 475.846 -186 c 4,12,13
 556.846 -186 556.846 -186 625.773 -155.5 c 132,-1,14
 694.702 -125 694.702 -125 747.033 -77 c 132,-1,15
 799.363 -29 799.363 -29 833.137 29 c 132,-1,16
 866.911 87 866.911 87 877.407 141 c 4,17,18
 894.124 227 894.124 227 879.468 290.5 c 132,-1,19
 864.811 354 864.811 354 825.975 396 c 132,-1,20
 787.139 438 787.139 438 727.123 458.5 c 132,-1,21
 667.108 479 667.108 479 593.108 479 c 4,22,23
 542.108 479 542.108 479 483.47 468 c 132,-1,24
 424.832 457 424.832 457 373.305 444 c 4,25,26
 313.389 429 313.389 429 253.696 410 c 5,27,-1
 391.706 1120 l 5,28,-1
 1182.71 1120 l 5,29,-1
 1148.88 946 l 5,30,-1
 502.884 946 l 5,31,-1
 427.27 557 l 5,32,33
 429.27 557 429.27 557 454.922 565.5 c 132,-1,34
 480.574 574 480.574 574 521.421 583.5 c 132,-1,35
 562.268 593 562.268 593 612.92 601.5 c 132,-1,36
 663.572 610 663.572 610 714.572 610 c 4,37,38
 821.572 610 821.572 610 901.532 581.5 c 132,-1,39
 981.492 553 981.492 553 1031 499 c 132,-1,40
 1080.5 445 1080.5 445 1097.84 367 c 132,-1,41
 1115.18 289 1115.18 289 1095.93 190 c 4,42,43
 1075.72 86 1075.72 86 1021.21 -1.5 c 132,-1,44
 966.7 -89 966.7 -89 881.357 -152.5 c 132,-1,45
 796.014 -216 796.014 -216 681.113 -251.5 c 132,-1,46
 566.213 -287 566.213 -287 425.213 -287 c 4,47,48
 345.213 -287 345.213 -287 279.184 -264 c 132,-1,49
 213.154 -241 213.154 -241 166.958 -206 c 132,-1,50
 120.761 -171 120.761 -171 98.1191 -128 c 132,-1,51
 75.4775 -85 75.4775 -85 83.2529 -45 c 4,0,1
EndSplineSet
EndChar

StartChar: six
Encoding: 54 54 25
Width: 1153
GlyphClass: 2
Flags: W
LayerCount: 2
Fore
SplineSet
196.296 588 m 0,0,1
 231.867 771 231.867 771 316.219 922 c 128,-1,2
 400.57 1073 400.57 1073 526.063 1181 c 128,-1,3
 651.557 1289 651.557 1289 815.524 1348 c 128,-1,4
 979.493 1407 979.493 1407 1174.49 1407 c 1,5,-1
 1149.81 1280 l 1,6,-1
 1080.2 1282 l 2,7,8
 982.778 1285 982.778 1285 887.572 1250.5 c 128,-1,9
 792.366 1216 792.366 1216 708.843 1149 c 128,-1,10
 625.319 1082 625.319 1082 558.465 985 c 128,-1,11
 491.609 888 491.609 888 451.896 766 c 1,12,13
 551.085 839 551.085 839 642.027 867 c 128,-1,14
 732.971 895 732.971 895 818.971 895 c 0,15,16
 915.971 895 915.971 895 988.153 862.5 c 128,-1,17
 1060.34 830 1060.34 830 1104.76 773 c 128,-1,18
 1149.18 716 1149.18 716 1164.51 638 c 128,-1,19
 1179.85 560 1179.85 560 1162.16 469 c 0,20,21
 1140.39 357 1140.39 357 1083.41 264.5 c 128,-1,22
 1026.43 172 1026.43 172 946.104 106 c 128,-1,23
 865.775 40 865.775 40 768.181 3.5 c 128,-1,24
 670.586 -33 670.586 -33 566.586 -33 c 256,25,26
 462.586 -33 462.586 -33 379.694 1 c 128,-1,27
 296.804 35 296.804 35 245.188 109 c 128,-1,28
 193.571 183 193.571 183 178.605 301.5 c 128,-1,29
 163.64 420 163.64 420 196.296 588 c 0,0,1
399.326 547 m 0,30,31
 378.916 442 378.916 442 378.005 355 c 128,-1,32
 377.094 268 377.094 268 399.445 205.5 c 128,-1,33
 421.797 143 421.797 143 467.59 108.5 c 128,-1,34
 513.384 74 513.384 74 587.384 74 c 256,35,36
 661.384 74 661.384 74 721.521 103 c 128,-1,37
 781.658 132 781.658 132 826.78 181.5 c 128,-1,38
 871.902 231 871.902 231 902.426 298 c 128,-1,39
 932.949 365 932.949 365 947.916 442 c 0,40,41
 962.494 517 962.494 517 954.561 576.5 c 128,-1,42
 946.626 636 946.626 636 917.192 677.5 c 128,-1,43
 887.76 719 887.76 719 838.438 740.5 c 128,-1,44
 789.118 762 789.118 762 721.118 762 c 0,45,46
 688.118 762 688.118 762 650.66 754.5 c 128,-1,47
 613.202 747 613.202 747 574.578 733.5 c 128,-1,48
 535.954 720 535.954 720 497.761 701 c 128,-1,49
 459.567 682 459.567 682 425.097 659 c 1,50,51
 415.877 627 415.877 627 409.837 598.5 c 128,-1,52
 403.797 570 403.797 570 399.326 547 c 0,30,31
EndSplineSet
EndChar

StartChar: seven
Encoding: 55 55 26
Width: 1153
GlyphClass: 2
Flags: W
LayerCount: 2
Fore
SplineSet
233.729 760 m 5,0,-1
 303.706 1120 l 5,1,-1
 1284.71 1120 l 5,2,-1
 1262.55 1006 l 5,3,-1
 352.431 -219 l 5,4,-1
 339.213 -287 l 5,5,-1
 122.213 -287 l 5,6,-1
 1037.88 946 l 5,7,-1
 406.884 946 l 5,8,-1
 337.729 760 l 5,9,-1
 233.729 760 l 5,0,-1
EndSplineSet
EndChar

StartChar: eight
Encoding: 56 56 27
Width: 1153
GlyphClass: 2
Flags: WO
LayerCount: 2
Fore
SplineSet
153.727 369 m 0,0,1
 167.333 439 167.333 439 202.329 493 c 128,-1,2
 237.326 547 237.326 547 285.796 588 c 128,-1,3
 334.266 629 334.266 629 393.097 659 c 128,-1,4
 451.928 689 451.928 689 513.204 711 c 1,5,6
 474.509 728 474.509 728 437.451 756 c 128,-1,7
 400.395 784 400.395 784 373.975 823 c 128,-1,8
 347.556 862 347.556 862 335.678 911.5 c 128,-1,9
 323.8 961 323.8 961 335.656 1022 c 0,10,11
 352.762 1110 352.762 1110 398.063 1181 c 128,-1,12
 443.364 1252 443.364 1252 510.681 1302.5 c 128,-1,13
 577.996 1353 577.996 1353 664.245 1380 c 128,-1,14
 750.493 1407 750.493 1407 848.493 1407 c 0,15,16
 942.493 1407 942.493 1407 1017.25 1380 c 128,-1,17
 1092 1353 1092 1353 1141.76 1305.5 c 128,-1,18
 1191.53 1258 1191.53 1258 1212.49 1193.5 c 128,-1,19
 1233.46 1129 1233.46 1129 1219.07 1055 c 0,20,21
 1206.44 990 1206.44 990 1171.63 937 c 128,-1,22
 1136.83 884 1136.83 884 1091.86 843 c 128,-1,23
 1046.89 802 1046.89 802 997.062 772 c 128,-1,24
 947.23 742 947.23 742 904.537 723 c 1,25,26
 950.038 705 950.038 705 998.692 677.5 c 128,-1,27
 1047.35 650 1047.35 650 1084.18 608 c 128,-1,28
 1121.02 566 1121.02 566 1138.84 508.5 c 128,-1,29
 1156.67 451 1156.67 451 1141.5 373 c 0,30,31
 1124.4 285 1124.4 285 1072.42 210.5 c 128,-1,32
 1020.44 136 1020.44 136 943.939 82 c 128,-1,33
 867.442 28 867.442 28 771.014 -2.5 c 128,-1,34
 674.586 -33 674.586 -33 568.586 -33 c 0,35,36
 455.586 -33 455.586 -33 370.417 -3 c 128,-1,37
 285.248 27 285.248 27 231.245 81 c 128,-1,38
 177.241 135 177.241 135 157.028 208.5 c 128,-1,39
 136.815 282 136.815 282 153.727 369 c 0,0,1
346.836 385 m 0,40,41
 334.008 319 334.008 319 342.622 263 c 128,-1,42
 351.236 207 351.236 207 381.17 165.5 c 128,-1,43
 411.104 124 411.104 124 463.633 101 c 128,-1,44
 516.162 78 516.162 78 590.162 78 c 0,45,46
 656.162 78 656.162 78 713.841 99.5 c 128,-1,47
 771.52 121 771.52 121 815.615 157.5 c 128,-1,48
 859.71 194 859.71 194 888.943 241.5 c 128,-1,49
 918.176 289 918.176 289 928.089 340 c 0,50,51
 940.529 404 940.529 404 922.18 448.5 c 128,-1,52
 903.829 493 903.829 493 858.73 528.5 c 128,-1,53
 813.631 564 813.631 564 744.754 595.5 c 128,-1,54
 675.877 627 675.877 627 586.457 666 c 1,55,56
 543.375 645 543.375 645 504.821 619 c 128,-1,57
 466.268 593 466.268 593 434.756 559.5 c 128,-1,58
 403.244 526 403.244 526 380.386 483 c 128,-1,59
 357.527 440 357.527 440 346.836 385 c 0,40,41
547.793 1069 m 0,60,61
 537.296 1015 537.296 1015 551.841 971.5 c 128,-1,62
 566.385 928 566.385 928 602.193 891 c 128,-1,63
 638.001 854 638.001 854 694.378 822.5 c 128,-1,64
 750.755 791 750.755 791 824.118 762 c 1,65,66
 859.589 785 859.589 785 892.531 813 c 128,-1,67
 925.474 841 925.474 841 952.083 875 c 128,-1,68
 978.691 909 978.691 909 997.967 949 c 128,-1,69
 1017.24 989 1017.24 989 1026.38 1036 c 0,70,71
 1038.62 1099 1038.62 1099 1028.25 1148.5 c 128,-1,72
 1017.87 1198 1017.87 1198 990.574 1232.5 c 128,-1,73
 963.28 1267 963.28 1267 921.278 1285 c 128,-1,74
 879.277 1303 879.277 1303 828.277 1303 c 0,75,76
 776.277 1303 776.277 1303 728.987 1283.5 c 128,-1,77
 681.696 1264 681.696 1264 644.477 1232 c 128,-1,78
 607.256 1200 607.256 1200 581.995 1157.5 c 128,-1,79
 556.734 1115 556.734 1115 547.793 1069 c 0,60,61
EndSplineSet
EndChar

StartChar: nine
Encoding: 57 57 28
Width: 1153
GlyphClass: 2
Flags: W
LayerCount: 2
Fore
SplineSet
209.708 657 m 0,0,1
 231.479 769 231.479 769 288.056 862 c 128,-1,2
 344.633 955 344.633 955 424.56 1021.5 c 128,-1,3
 504.485 1088 504.485 1088 602.081 1124.5 c 128,-1,4
 699.676 1161 699.676 1161 803.676 1161 c 0,5,6
 906.676 1161 906.676 1161 990.066 1127 c 128,-1,7
 1073.46 1093 1073.46 1093 1126.07 1019 c 128,-1,8
 1178.69 945 1178.69 945 1193.66 826.5 c 128,-1,9
 1208.62 708 1208.62 708 1175.96 540 c 0,10,11
 1140.39 357 1140.39 357 1056.04 206 c 128,-1,12
 971.691 55 971.691 55 845.198 -53 c 128,-1,13
 718.705 -161 718.705 -161 554.736 -220 c 128,-1,14
 390.768 -279 390.768 -279 195.768 -279 c 1,15,-1
 220.454 -152 l 1,16,-1
 289.065 -154 l 2,17,18
 386.482 -157 386.482 -157 482.188 -122.5 c 128,-1,19
 577.895 -88 577.895 -88 661.918 -21 c 128,-1,20
 745.941 46 745.941 46 813.297 143 c 128,-1,21
 880.651 240 880.651 240 920.365 362 c 1,22,23
 871.174 325 871.174 325 823.411 300.5 c 128,-1,24
 775.649 276 775.649 276 730.233 261 c 128,-1,25
 684.817 246 684.817 246 640.554 239.5 c 128,-1,26
 596.291 233 596.291 233 553.291 233 c 0,27,28
 456.291 233 456.291 233 384.011 265 c 128,-1,29
 311.73 297 311.73 297 267.214 353.5 c 128,-1,30
 222.696 410 222.696 410 207.261 487.5 c 128,-1,31
 191.825 565 191.825 565 209.708 657 c 0,0,1
422.345 686 m 0,32,33
 407.767 611 407.767 611 415.701 551.5 c 128,-1,34
 423.635 492 423.635 492 453.068 450.5 c 128,-1,35
 482.502 409 482.502 409 531.822 387.5 c 128,-1,36
 581.144 366 581.144 366 649.144 366 c 0,37,38
 682.144 366 682.144 366 719.602 373.5 c 128,-1,39
 757.059 381 757.059 381 795.683 394.5 c 128,-1,40
 834.308 408 834.308 408 872.5 427 c 128,-1,41
 910.693 446 910.693 446 945.164 469 c 1,42,43
 954.385 501 954.385 501 960.425 529.5 c 128,-1,44
 966.464 558 966.464 558 970.935 581 c 0,45,46
 991.345 686 991.345 686 992.256 773 c 128,-1,47
 993.167 860 993.167 860 970.815 922.5 c 128,-1,48
 948.465 985 948.465 985 902.171 1019.5 c 128,-1,49
 855.877 1054 855.877 1054 782.877 1054 c 0,50,51
 708.877 1054 708.877 1054 648.837 1025.5 c 128,-1,52
 588.797 997 588.797 997 543.578 947 c 128,-1,53
 498.359 897 498.359 897 467.836 830 c 128,-1,54
 437.312 763 437.312 763 422.345 686 c 0,32,33
EndSplineSet
EndChar

StartChar: colon
Encoding: 58 58 29
Width: 573
GlyphClass: 2
Flags: W
LayerCount: 2
Fore
SplineSet
35 113 m 0,0,1
 35 141 35 141 45.5 166 c 128,-1,2
 56 191 56 191 75 209.5 c 128,-1,3
 94 228 94 228 118.5 239 c 128,-1,4
 143 250 143 250 172 250 c 0,5,6
 200 250 200 250 225.5 239 c 128,-1,7
 251 228 251 228 270 209.5 c 128,-1,8
 289 191 289 191 300 166 c 128,-1,9
 311 141 311 141 311 113 c 0,10,11
 311 84 311 84 300 59 c 128,-1,12
 289 34 289 34 270 15.5 c 128,-1,13
 251 -3 251 -3 225.5 -14 c 128,-1,14
 200 -25 200 -25 172 -25 c 0,15,16
 143 -25 143 -25 118.5 -14 c 128,-1,17
 94 -3 94 -3 75 15.5 c 128,-1,18
 56 34 56 34 45.5 59 c 128,-1,19
 35 84 35 84 35 113 c 0,0,1
184 874 m 256,20,21
 184 902 184 902 195 927.5 c 128,-1,22
 206 953 206 953 224.5 971.5 c 128,-1,23
 243 990 243 990 268 1001 c 128,-1,24
 293 1012 293 1012 322 1012 c 0,25,26
 350 1012 350 1012 375.5 1001 c 128,-1,27
 401 990 401 990 420 971.5 c 128,-1,28
 439 953 439 953 450 927.5 c 128,-1,29
 461 902 461 902 461 874 c 256,30,31
 461 846 461 846 450 821 c 128,-1,32
 439 796 439 796 420 777.5 c 128,-1,33
 401 759 401 759 375.5 748 c 128,-1,34
 350 737 350 737 322 737 c 0,35,36
 293 737 293 737 268 748 c 128,-1,37
 243 759 243 759 224.5 777.5 c 128,-1,38
 206 796 206 796 195 821 c 128,-1,39
 184 846 184 846 184 874 c 256,20,21
EndSplineSet
Validated: 1
EndChar

StartChar: semicolon
Encoding: 59 59 30
Width: 573
GlyphClass: 2
Flags: W
LayerCount: 2
Fore
SplineSet
-113 -348 m 1,0,-1
 -98 -274 l 1,1,2
 -35 -261 -35 -261 12.5 -238 c 128,-1,3
 60 -215 60 -215 94.5 -180.5 c 128,-1,4
 129 -146 129 -146 151 -98 c 128,-1,5
 173 -50 173 -50 184 14 c 1,6,-1
 55 14 l 1,7,8
 44 28 44 28 39.5 47.5 c 128,-1,9
 35 67 35 67 35 84 c 0,10,11
 35 114 35 114 48 143.5 c 128,-1,12
 61 173 61 173 83 197 c 128,-1,13
 105 221 105 221 133.5 235.5 c 128,-1,14
 162 250 162 250 193 250 c 0,15,16
 228 250 228 250 253.5 238.5 c 128,-1,17
 279 227 279 227 295 206.5 c 128,-1,18
 311 186 311 186 318.5 158 c 128,-1,19
 326 130 326 130 326 98 c 0,20,21
 326 11 326 11 289 -67 c 128,-1,22
 252 -145 252 -145 190.5 -205 c 128,-1,23
 129 -265 129 -265 50 -303 c 128,-1,24
 -29 -341 -29 -341 -113 -348 c 1,0,-1
184 874 m 256,25,26
 184 902 184 902 195 927.5 c 128,-1,27
 206 953 206 953 224.5 971.5 c 128,-1,28
 243 990 243 990 268 1001 c 128,-1,29
 293 1012 293 1012 322 1012 c 0,30,31
 350 1012 350 1012 375.5 1001 c 128,-1,32
 401 990 401 990 420 971.5 c 128,-1,33
 439 953 439 953 450 927.5 c 128,-1,34
 461 902 461 902 461 874 c 256,35,36
 461 846 461 846 450 821 c 128,-1,37
 439 796 439 796 420 777.5 c 128,-1,38
 401 759 401 759 375.5 748 c 128,-1,39
 350 737 350 737 322 737 c 0,40,41
 293 737 293 737 268 748 c 128,-1,42
 243 759 243 759 224.5 777.5 c 128,-1,43
 206 796 206 796 195 821 c 128,-1,44
 184 846 184 846 184 874 c 256,25,26
EndSplineSet
Validated: 1
EndChar

StartChar: less
Encoding: 60 60 31
Width: 2048
GlyphClass: 2
Flags: W
LayerCount: 2
Fore
SplineSet
410 551 m 1,0,-1
 410 678 l 1,1,-1
 1638 1149 l 1,2,-1
 1638 1022 l 1,3,-1
 541 614 l 1,4,-1
 1638 207 l 1,5,-1
 1638 80 l 1,6,-1
 410 551 l 1,0,-1
EndSplineSet
Validated: 1
EndChar

StartChar: equal
Encoding: 61 61 32
Width: 2048
GlyphClass: 2
Flags: W
LayerCount: 2
Fore
SplineSet
410 365 m 1,0,-1
 410 492 l 1,1,-1
 1638 492 l 1,2,-1
 1638 365 l 1,3,-1
 410 365 l 1,0,-1
410 737 m 1,4,-1
 410 864 l 1,5,-1
 1638 864 l 1,6,-1
 1638 737 l 1,7,-1
 410 737 l 1,4,-1
EndSplineSet
Validated: 1
EndChar

StartChar: greater
Encoding: 62 62 33
Width: 2048
GlyphClass: 2
Flags: W
LayerCount: 2
Fore
SplineSet
410 80 m 1,0,-1
 410 207 l 1,1,-1
 1507 614 l 1,2,-1
 410 1022 l 1,3,-1
 410 1149 l 1,4,-1
 1638 678 l 1,5,-1
 1638 551 l 1,6,-1
 410 80 l 1,0,-1
EndSplineSet
Validated: 1
EndChar

StartChar: question
Encoding: 63 63 34
Width: 995
GlyphClass: 2
Flags: W
LayerCount: 2
Fore
SplineSet
197 88 m 256,0,1
 197 112 197 112 206.5 134.5 c 128,-1,2
 216 157 216 157 233.5 174.5 c 128,-1,3
 251 192 251 192 276.5 202.5 c 128,-1,4
 302 213 302 213 334 213 c 0,5,6
 365 213 365 213 389.5 203 c 128,-1,7
 414 193 414 193 431 175.5 c 128,-1,8
 448 158 448 158 456.5 136 c 128,-1,9
 465 114 465 114 465 90 c 256,10,11
 465 66 465 66 456.5 44 c 128,-1,12
 448 22 448 22 431 5 c 128,-1,13
 414 -12 414 -12 389.5 -22.5 c 128,-1,14
 365 -33 365 -33 334 -33 c 0,15,16
 302 -33 302 -33 276.5 -23 c 128,-1,17
 251 -13 251 -13 233.5 4 c 128,-1,18
 216 21 216 21 206.5 42.5 c 128,-1,19
 197 64 197 64 197 88 c 256,0,1
215 1186 m 0,20,21
 215 1216 215 1216 232.5 1254.5 c 128,-1,22
 250 1293 250 1293 292 1326.5 c 128,-1,23
 334 1360 334 1360 402.5 1383.5 c 128,-1,24
 471 1407 471 1407 573 1407 c 0,25,26
 664 1407 664 1407 734 1386.5 c 128,-1,27
 804 1366 804 1366 851.5 1327.5 c 128,-1,28
 899 1289 899 1289 923.5 1234.5 c 128,-1,29
 948 1180 948 1180 948 1112 c 0,30,31
 948 1009 948 1009 906.5 927.5 c 128,-1,32
 865 846 865 846 798.5 782.5 c 128,-1,33
 732 719 732 719 648.5 671.5 c 128,-1,34
 565 624 565 624 481 590 c 1,35,-1
 434 346 l 1,36,-1
 297 346 l 1,37,-1
 352 651 l 1,38,39
 422 673 422 673 489 712.5 c 128,-1,40
 556 752 556 752 608.5 807.5 c 128,-1,41
 661 863 661 863 693 934.5 c 128,-1,42
 725 1006 725 1006 725 1092 c 0,43,44
 725 1197 725 1197 668 1251 c 128,-1,45
 611 1305 611 1305 512 1305 c 1,46,-1
 387 1102 l 1,47,-1
 328 1102 l 2,48,49
 275 1102 275 1102 245 1124 c 128,-1,50
 215 1146 215 1146 215 1186 c 0,20,21
EndSplineSet
Validated: 1
EndChar

StartChar: at
Encoding: 64 64 35
Width: 1917
GlyphClass: 2
Flags: W
LayerCount: 2
Fore
SplineSet
170 489 m 0,0,1
 170 641 170 641 206.5 768.5 c 128,-1,2
 243 896 243 896 307 999 c 128,-1,3
 371 1102 371 1102 458.5 1180 c 128,-1,4
 546 1258 546 1258 648.5 1310 c 128,-1,5
 751 1362 751 1362 863.5 1388.5 c 128,-1,6
 976 1415 976 1415 1090 1415 c 0,7,8
 1242 1415 1242 1415 1370.5 1372.5 c 128,-1,9
 1499 1330 1499 1330 1592 1247.5 c 128,-1,10
 1685 1165 1685 1165 1737.5 1043.5 c 128,-1,11
 1790 922 1790 922 1790 764 c 0,12,13
 1790 660 1790 660 1767 571.5 c 128,-1,14
 1744 483 1744 483 1705.5 411 c 128,-1,15
 1667 339 1667 339 1616 283.5 c 128,-1,16
 1565 228 1565 228 1509 190.5 c 128,-1,17
 1453 153 1453 153 1396 134 c 128,-1,18
 1339 115 1339 115 1288 115 c 0,19,20
 1203 115 1203 115 1165.5 157.5 c 128,-1,21
 1128 200 1128 200 1128 285 c 1,22,23
 1048 204 1048 204 977 160.5 c 128,-1,24
 906 117 906 117 834 117 c 0,25,26
 778 117 778 117 731 140.5 c 128,-1,27
 684 164 684 164 650 207.5 c 128,-1,28
 616 251 616 251 597 312.5 c 128,-1,29
 578 374 578 374 578 451 c 0,30,31
 578 568 578 568 621 670 c 128,-1,32
 664 772 664 772 735 847 c 128,-1,33
 806 922 806 922 897 965 c 128,-1,34
 988 1008 988 1008 1085 1008 c 0,35,36
 1107 1008 1107 1008 1133 1004 c 128,-1,37
 1159 1000 1159 1000 1185.5 992.5 c 128,-1,38
 1212 985 1212 985 1238 974.5 c 128,-1,39
 1264 964 1264 964 1286 952 c 1,40,-1
 1323 999 l 1,41,-1
 1440 999 l 1,42,43
 1438 993 1438 993 1431 963.5 c 128,-1,44
 1424 934 1424 934 1413.5 890.5 c 128,-1,45
 1403 847 1403 847 1390.5 792.5 c 128,-1,46
 1378 738 1378 738 1365 683 c 0,47,48
 1335 553 1335 553 1298 391 c 0,49,50
 1290 356 1290 356 1290 326.5 c 128,-1,51
 1290 297 1290 297 1299 276 c 128,-1,52
 1308 255 1308 255 1326.5 243 c 128,-1,53
 1345 231 1345 231 1374 231 c 0,54,55
 1404 231 1404 231 1439.5 247.5 c 128,-1,56
 1475 264 1475 264 1510 296 c 128,-1,57
 1545 328 1545 328 1577.5 374 c 128,-1,58
 1610 420 1610 420 1635 479 c 128,-1,59
 1660 538 1660 538 1675 609.5 c 128,-1,60
 1690 681 1690 681 1690 762 c 0,61,62
 1690 858 1690 858 1667.5 937.5 c 128,-1,63
 1645 1017 1645 1017 1605 1079.5 c 128,-1,64
 1565 1142 1565 1142 1510.5 1188 c 128,-1,65
 1456 1234 1456 1234 1392 1264.5 c 128,-1,66
 1328 1295 1328 1295 1257 1310 c 128,-1,67
 1186 1325 1186 1325 1114 1325 c 0,68,69
 997 1325 997 1325 892.5 1297.5 c 128,-1,70
 788 1270 788 1270 699.5 1219.5 c 128,-1,71
 611 1169 611 1169 539.5 1097 c 128,-1,72
 468 1025 468 1025 418.5 936 c 128,-1,73
 369 847 369 847 342 743.5 c 128,-1,74
 315 640 315 640 315 526 c 0,75,76
 315 370 315 370 363.5 235 c 128,-1,77
 412 100 412 100 504 1 c 128,-1,78
 596 -98 596 -98 729 -154.5 c 128,-1,79
 862 -211 862 -211 1032 -211 c 0,80,81
 1122 -211 1122 -211 1200.5 -197 c 128,-1,82
 1279 -183 1279 -183 1346.5 -161 c 128,-1,83
 1414 -139 1414 -139 1471 -112 c 128,-1,84
 1528 -85 1528 -85 1575 -59 c 1,85,-1
 1604 -133 l 1,86,87
 1535 -170 1535 -170 1462.5 -202.5 c 128,-1,88
 1390 -235 1390 -235 1313.5 -259.5 c 128,-1,89
 1237 -284 1237 -284 1154.5 -298.5 c 128,-1,90
 1072 -313 1072 -313 983 -313 c 0,91,92
 873 -313 873 -313 770.5 -288 c 128,-1,93
 668 -263 668 -263 577.5 -215.5 c 128,-1,94
 487 -168 487 -168 412 -98.5 c 128,-1,95
 337 -29 337 -29 283.5 60 c 128,-1,96
 230 149 230 149 200 257 c 128,-1,97
 170 365 170 365 170 489 c 0,0,1
766 469 m 0,98,99
 766 358 766 358 807 303 c 128,-1,100
 848 248 848 248 926 248 c 0,101,102
 960 248 960 248 991 261.5 c 128,-1,103
 1022 275 1022 275 1048.5 295 c 128,-1,104
 1075 315 1075 315 1097 338 c 128,-1,105
 1119 361 1119 361 1135 381 c 1,106,-1
 1217 805 l 2,107,108
 1220 818 1220 818 1211.5 838 c 128,-1,109
 1203 858 1203 858 1186.5 876.5 c 128,-1,110
 1170 895 1170 895 1146.5 908.5 c 128,-1,111
 1123 922 1123 922 1096 922 c 0,112,113
 1020 922 1020 922 959 886.5 c 128,-1,114
 898 851 898 851 855 789.5 c 128,-1,115
 812 728 812 728 789 645.5 c 128,-1,116
 766 563 766 563 766 469 c 0,98,99
EndSplineSet
Validated: 1
EndChar

StartChar: A
Encoding: 65 65 36
Width: 1378
GlyphClass: 2
Flags: W
LayerCount: 2
Fore
SplineSet
-109 0 m 1,0,-1
 -109 86 l 1,1,-1
 6 98 l 1,2,-1
 762 1407 l 1,3,-1
 926 1407 l 1,4,-1
 1147 135 l 2,5,6
 1150 115 1150 115 1158 106.5 c 128,-1,7
 1166 98 1166 98 1188 96 c 2,8,-1
 1282 86 l 1,9,-1
 1282 0 l 1,10,-1
 801 0 l 1,11,-1
 801 86 l 1,12,-1
 895 96 l 1,13,14
 940 102 940 102 934 135 c 2,15,-1
 872 526 l 1,16,-1
 408 526 l 1,17,-1
 199 135 l 2,18,19
 188 115 188 115 198.5 107 c 128,-1,20
 209 99 209 99 238 96 c 2,21,-1
 332 86 l 1,22,-1
 332 0 l 1,23,-1
 -109 0 l 1,0,-1
463 623 m 1,24,-1
 854 623 l 1,25,-1
 766 1155 l 1,26,-1
 463 623 l 1,24,-1
EndSplineSet
Validated: 1
EndChar

StartChar: B
Encoding: 66 66 37
Width: 1243
GlyphClass: 2
Flags: W
LayerCount: 2
Fore
SplineSet
-31 0 m 1,0,-1
 -31 86 l 1,1,-1
 98 96 l 2,2,3
 117 98 117 98 125.5 107.5 c 128,-1,4
 134 117 134 117 137 135 c 2,5,-1
 350 1237 l 2,6,7
 353 1254 353 1254 345 1265 c 128,-1,8
 337 1276 337 1276 309 1278 c 2,9,-1
 195 1288 l 1,10,-1
 195 1374 l 1,11,-1
 770 1374 l 2,12,13
 881 1374 881 1374 958.5 1355.5 c 128,-1,14
 1036 1337 1036 1337 1084.5 1302.5 c 128,-1,15
 1133 1268 1133 1268 1154.5 1219.5 c 128,-1,16
 1176 1171 1176 1171 1176 1112 c 0,17,18
 1176 1033 1176 1033 1149 972 c 128,-1,19
 1122 911 1122 911 1075.5 865.5 c 128,-1,20
 1029 820 1029 820 966.5 787 c 128,-1,21
 904 754 904 754 834 731 c 1,22,23
 901 722 901 722 956 703.5 c 128,-1,24
 1011 685 1011 685 1051 653 c 128,-1,25
 1091 621 1091 621 1113 573.5 c 128,-1,26
 1135 526 1135 526 1135 459 c 0,27,28
 1135 333 1135 333 1089 245.5 c 128,-1,29
 1043 158 1043 158 961.5 103.5 c 128,-1,30
 880 49 880 49 769.5 24.5 c 128,-1,31
 659 0 659 0 530 0 c 2,32,-1
 -31 0 l 1,0,-1
336 98 m 1,33,34
 348 97 348 97 364.5 96 c 128,-1,35
 381 95 381 95 398.5 94 c 128,-1,36
 416 93 416 93 433 92.5 c 128,-1,37
 450 92 450 92 463 92 c 0,38,39
 683 92 683 92 797 183.5 c 128,-1,40
 911 275 911 275 911 438 c 0,41,42
 911 501 911 501 889 544.5 c 128,-1,43
 867 588 867 588 826.5 615 c 128,-1,44
 786 642 786 642 728 654 c 128,-1,45
 670 666 670 666 598 666 c 0,46,47
 560 666 560 666 519 663 c 128,-1,48
 478 660 478 660 444 655 c 1,49,-1
 336 98 l 1,33,34
465 760 m 1,50,51
 477 759 477 759 490 758 c 2,52,-1
 517 757 l 2,53,54
 531 757 531 757 542.5 756.5 c 128,-1,55
 554 756 554 756 561 756 c 0,56,57
 657 756 657 756 729.5 783.5 c 128,-1,58
 802 811 802 811 850.5 857.5 c 128,-1,59
 899 904 899 904 923.5 966.5 c 128,-1,60
 948 1029 948 1029 948 1098 c 0,61,62
 948 1195 948 1195 874.5 1240.5 c 128,-1,63
 801 1286 801 1286 670 1286 c 0,64,65
 638 1286 638 1286 610 1284 c 128,-1,66
 582 1282 582 1282 565 1280 c 1,67,-1
 465 760 l 1,50,51
EndSplineSet
Validated: 1
EndChar

StartChar: C
Encoding: 67 67 38
Width: 1290
GlyphClass: 2
Flags: W
LayerCount: 2
Fore
SplineSet
98 547 m 0,0,1
 98 656 98 656 125 762 c 128,-1,2
 152 868 152 868 203 963.5 c 128,-1,3
 254 1059 254 1059 327 1140.5 c 128,-1,4
 400 1222 400 1222 491.5 1281 c 128,-1,5
 583 1340 583 1340 691.5 1373.5 c 128,-1,6
 800 1407 800 1407 922 1407 c 0,7,8
 972 1407 972 1407 1018 1401.5 c 128,-1,9
 1064 1396 1064 1396 1111 1385.5 c 128,-1,10
 1158 1375 1158 1375 1209 1359.5 c 128,-1,11
 1260 1344 1260 1344 1319 1325 c 1,12,-1
 1264 1006 l 1,13,-1
 1143 1006 l 1,14,-1
 1143 1196 l 2,15,16
 1143 1212 1143 1212 1131.5 1229 c 128,-1,17
 1120 1246 1120 1246 1106 1251 c 0,18,19
 1102 1253 1102 1253 1088 1261.5 c 128,-1,20
 1074 1270 1074 1270 1051.5 1279 c 128,-1,21
 1029 1288 1029 1288 999 1295.5 c 128,-1,22
 969 1303 969 1303 932 1303 c 0,23,24
 853 1303 853 1303 777 1278 c 128,-1,25
 701 1253 701 1253 632.5 1206 c 128,-1,26
 564 1159 564 1159 506 1091 c 128,-1,27
 448 1023 448 1023 405.5 936.5 c 128,-1,28
 363 850 363 850 339 746 c 128,-1,29
 315 642 315 642 315 524 c 0,30,31
 315 408 315 408 348.5 323 c 128,-1,32
 382 238 382 238 439 182 c 128,-1,33
 496 126 496 126 572.5 99 c 128,-1,34
 649 72 649 72 735 72 c 0,35,36
 768 72 768 72 795 76.5 c 128,-1,37
 822 81 822 81 841.5 87 c 128,-1,38
 861 93 861 93 873 98.5 c 128,-1,39
 885 104 885 104 889 106 c 1,40,41
 901 108 901 108 915.5 120.5 c 128,-1,42
 930 133 930 133 936 147 c 2,43,-1
 1024 381 l 1,44,-1
 1145 381 l 1,45,-1
 1090 49 l 1,46,47
 1078 45 1078 45 1038.5 32 c 128,-1,48
 999 19 999 19 941.5 4.5 c 128,-1,49
 884 -10 884 -10 813 -21.5 c 128,-1,50
 742 -33 742 -33 668 -33 c 0,51,52
 566 -33 566 -33 484 -10 c 128,-1,53
 402 13 402 13 339 53 c 128,-1,54
 276 93 276 93 230 148 c 128,-1,55
 184 203 184 203 155 267.5 c 128,-1,56
 126 332 126 332 112 403 c 128,-1,57
 98 474 98 474 98 547 c 0,0,1
EndSplineSet
Validated: 1
EndChar

StartChar: D
Encoding: 68 68 39
Width: 1374
GlyphClass: 2
Flags: W
LayerCount: 2
Fore
SplineSet
-31 0 m 1,0,-1
 -31 86 l 1,1,-1
 96 96 l 2,2,3
 116 98 116 98 124 107.5 c 128,-1,4
 132 117 132 117 137 135 c 1,5,-1
 350 1237 l 2,6,7
 353 1254 353 1254 345 1265 c 128,-1,8
 337 1276 337 1276 309 1278 c 2,9,-1
 195 1288 l 1,10,-1
 195 1374 l 1,11,-1
 684 1374 l 2,12,13
 824 1374 824 1374 943.5 1347 c 128,-1,14
 1063 1320 1063 1320 1150.5 1258 c 128,-1,15
 1238 1196 1238 1196 1287.5 1096 c 128,-1,16
 1337 996 1337 996 1337 850 c 0,17,18
 1337 724 1337 724 1308 612 c 128,-1,19
 1279 500 1279 500 1224 405.5 c 128,-1,20
 1169 311 1169 311 1090.5 236 c 128,-1,21
 1012 161 1012 161 913.5 108.5 c 128,-1,22
 815 56 815 56 698.5 28 c 128,-1,23
 582 0 582 0 451 0 c 2,24,-1
 -31 0 l 1,0,-1
338 106 m 1,25,-1
 487 106 l 1,26,27
 642 108 642 108 760 172.5 c 128,-1,28
 878 237 878 237 957 343 c 128,-1,29
 1036 449 1036 449 1076 585.5 c 128,-1,30
 1116 722 1116 722 1116 868 c 0,31,32
 1116 996 1116 996 1077 1074 c 128,-1,33
 1038 1152 1038 1152 972 1195 c 128,-1,34
 906 1238 906 1238 819 1253.5 c 128,-1,35
 732 1269 732 1269 637 1272 c 1,36,-1
 563 1272 l 1,37,-1
 338 106 l 1,25,-1
EndSplineSet
Validated: 1
EndChar

StartChar: E
Encoding: 69 69 40
Width: 1143
GlyphClass: 2
Flags: W
LayerCount: 2
Fore
SplineSet
-31 0 m 1,0,-1
 -31 86 l 1,1,-1
 88 96 l 2,2,3
 131 99 131 99 137 135 c 2,4,-1
 350 1237 l 2,5,6
 353 1254 353 1254 345 1265 c 128,-1,7
 337 1276 337 1276 311 1278 c 2,8,-1
 197 1288 l 1,9,-1
 197 1374 l 1,10,-1
 1188 1374 l 1,11,-1
 1126 1067 l 1,12,-1
 995 1067 l 1,13,-1
 995 1233 l 2,14,15
 995 1255 995 1255 987 1263.5 c 128,-1,16
 979 1272 979 1272 956 1272 c 2,17,-1
 563 1272 l 1,18,-1
 469 768 l 1,19,-1
 743 768 l 2,20,21
 765 768 765 768 776.5 776.5 c 128,-1,22
 788 785 788 785 795 807 c 2,23,-1
 834 944 l 1,24,-1
 948 944 l 1,25,-1
 858 475 l 1,26,-1
 741 475 l 1,27,-1
 762 621 l 2,28,29
 763 626 763 626 763 630 c 0,30,31
 763 662 763 662 723 662 c 2,32,-1
 446 662 l 1,33,-1
 340 102 l 1,34,-1
 821 102 l 2,35,36
 843 102 843 102 854.5 113.5 c 128,-1,37
 866 125 866 125 872 143 c 2,38,-1
 936 340 l 1,39,-1
 1061 340 l 1,40,-1
 993 0 l 1,41,-1
 -31 0 l 1,0,-1
EndSplineSet
Validated: 1
EndChar

StartChar: F
Encoding: 70 70 41
Width: 1053
GlyphClass: 2
Flags: W
LayerCount: 2
Fore
SplineSet
-31 0 m 1,0,-1
 -31 86 l 1,1,-1
 86 96 l 2,2,3
 128 99 128 99 137 135 c 1,4,-1
 350 1237 l 2,5,6
 353 1254 353 1254 345 1265 c 128,-1,7
 337 1276 337 1276 309 1278 c 2,8,-1
 195 1288 l 1,9,-1
 195 1374 l 1,10,-1
 1165 1374 l 1,11,-1
 1102 1044 l 1,12,-1
 971 1044 l 1,13,-1
 971 1233 l 2,14,15
 971 1255 971 1255 962 1263.5 c 128,-1,16
 953 1272 953 1272 930 1272 c 2,17,-1
 563 1272 l 1,18,-1
 463 745 l 1,19,-1
 725 745 l 2,20,21
 747 745 747 745 758 754 c 128,-1,22
 769 763 769 763 774 784 c 2,23,-1
 813 924 l 1,24,-1
 930 924 l 1,25,-1
 840 457 l 1,26,-1
 723 457 l 1,27,-1
 743 600 l 1,28,29
 747 620 747 620 735.5 630.5 c 128,-1,30
 724 641 724 641 702 641 c 2,31,-1
 442 641 l 1,32,-1
 344 135 l 2,33,34
 341 120 341 120 349 109 c 128,-1,35
 357 98 357 98 383 96 c 2,36,-1
 516 86 l 1,37,-1
 516 0 l 1,38,-1
 -31 0 l 1,0,-1
EndSplineSet
Validated: 1
EndChar

StartChar: G
Encoding: 71 71 42
Width: 1409
GlyphClass: 2
Flags: W
LayerCount: 2
Fore
SplineSet
98 549 m 0,0,1
 98 680 98 680 133 794.5 c 128,-1,2
 168 909 168 909 229.5 1004.5 c 128,-1,3
 291 1100 291 1100 374.5 1174.5 c 128,-1,4
 458 1249 458 1249 556.5 1301 c 128,-1,5
 655 1353 655 1353 763 1380 c 128,-1,6
 871 1407 871 1407 981 1407 c 0,7,8
 1031 1407 1031 1407 1074.5 1403 c 128,-1,9
 1118 1399 1118 1399 1162 1390.5 c 128,-1,10
 1206 1382 1206 1382 1254.5 1368.5 c 128,-1,11
 1303 1355 1303 1355 1362 1337 c 1,12,-1
 1298 1008 l 1,13,-1
 1159 1008 l 1,14,-1
 1165 1196 l 1,15,16
 1167 1219 1167 1219 1156 1233.5 c 128,-1,17
 1145 1248 1145 1248 1126 1253 c 0,18,19
 1122 1254 1122 1254 1109 1261 c 128,-1,20
 1096 1268 1096 1268 1074.5 1276 c 128,-1,21
 1053 1284 1053 1284 1023 1290 c 128,-1,22
 993 1296 993 1296 956 1296 c 0,23,24
 879 1296 879 1296 802.5 1271 c 128,-1,25
 726 1246 726 1246 655.5 1199 c 128,-1,26
 585 1152 585 1152 524.5 1083.5 c 128,-1,27
 464 1015 464 1015 419.5 928.5 c 128,-1,28
 375 842 375 842 349.5 738 c 128,-1,29
 324 634 324 634 324 516 c 0,30,31
 324 433 324 433 343 368.5 c 128,-1,32
 362 304 362 304 394 255 c 128,-1,33
 426 206 426 206 467 172 c 128,-1,34
 508 138 508 138 552 116.5 c 128,-1,35
 596 95 596 95 640 85.5 c 128,-1,36
 684 76 684 76 721 76 c 0,37,38
 752 76 752 76 783.5 80 c 128,-1,39
 815 84 815 84 843 90 c 128,-1,40
 871 96 871 96 893.5 102 c 128,-1,41
 916 108 916 108 928 111 c 1,42,-1
 1008 528 l 2,43,44
 1011 545 1011 545 1003 555 c 128,-1,45
 995 565 995 565 967 567 c 2,46,-1
 854 578 l 1,47,-1
 854 664 l 1,48,-1
 1382 664 l 1,49,-1
 1382 578 l 1,50,-1
 1266 567 l 2,51,52
 1246 565 1246 565 1232.5 556.5 c 128,-1,53
 1219 548 1219 548 1214 528 c 1,54,-1
 1122 47 l 1,55,56
 1112 44 1112 44 1087 37.5 c 128,-1,57
 1062 31 1062 31 1027 22 c 128,-1,58
 992 13 992 13 949.5 3.5 c 128,-1,59
 907 -6 907 -6 861 -14.5 c 128,-1,60
 815 -23 815 -23 768.5 -28 c 128,-1,61
 722 -33 722 -33 680 -33 c 0,62,63
 563 -33 563 -33 474.5 -6 c 128,-1,64
 386 21 386 21 321.5 66.5 c 128,-1,65
 257 112 257 112 214 171.5 c 128,-1,66
 171 231 171 231 145 296 c 128,-1,67
 119 361 119 361 108.5 426.5 c 128,-1,68
 98 492 98 492 98 549 c 0,0,1
EndSplineSet
Validated: 1
EndChar

StartChar: H
Encoding: 72 72 43
Width: 1485
GlyphClass: 2
Flags: W
LayerCount: 2
Fore
SplineSet
-31 0 m 1,0,-1
 -31 86 l 1,1,-1
 86 96 l 2,2,3
 128 99 128 99 137 135 c 1,4,-1
 350 1237 l 2,5,6
 353 1254 353 1254 345 1265 c 128,-1,7
 337 1276 337 1276 309 1278 c 2,8,-1
 195 1288 l 1,9,-1
 195 1374 l 1,10,-1
 727 1374 l 1,11,-1
 727 1288 l 1,12,-1
 606 1278 l 2,13,14
 588 1276 588 1276 574 1266.5 c 128,-1,15
 560 1257 560 1257 557 1237 c 2,16,-1
 467 770 l 1,17,-1
 1106 770 l 1,18,-1
 1196 1237 l 2,19,20
 1199 1254 1199 1254 1191 1265 c 128,-1,21
 1183 1276 1183 1276 1155 1278 c 2,22,-1
 1038 1288 l 1,23,-1
 1038 1374 l 1,24,-1
 1571 1374 l 1,25,-1
 1571 1288 l 1,26,-1
 1452 1278 l 2,27,28
 1433 1276 1433 1276 1420.5 1266.5 c 128,-1,29
 1408 1257 1408 1257 1403 1237 c 1,30,-1
 1190 135 l 2,31,32
 1187 120 1187 120 1195 109 c 128,-1,33
 1203 98 1203 98 1231 96 c 2,34,-1
 1346 86 l 1,35,-1
 1346 0 l 1,36,-1
 811 0 l 1,37,-1
 811 86 l 1,38,-1
 934 96 l 2,39,40
 952 98 952 98 966 107.5 c 128,-1,41
 980 117 980 117 983 135 c 2,42,-1
 1085 668 l 1,43,-1
 446 668 l 1,44,-1
 344 135 l 2,45,46
 341 120 341 120 349 109 c 128,-1,47
 357 98 357 98 383 96 c 2,48,-1
 502 86 l 1,49,-1
 502 0 l 1,50,-1
 -31 0 l 1,0,-1
EndSplineSet
Validated: 1
EndChar

StartChar: I
Encoding: 73 73 44
Width: 643
GlyphClass: 2
Flags: W
LayerCount: 2
Fore
SplineSet
-31 0 m 1,0,-1
 -31 86 l 1,1,-1
 98 96 l 2,2,3
 117 98 117 98 125.5 107.5 c 128,-1,4
 134 117 134 117 137 135 c 2,5,-1
 350 1237 l 2,6,7
 353 1254 353 1254 345 1265 c 128,-1,8
 337 1276 337 1276 311 1278 c 2,9,-1
 197 1288 l 1,10,-1
 197 1374 l 1,11,-1
 729 1374 l 1,12,-1
 729 1288 l 1,13,-1
 598 1278 l 2,14,15
 578 1276 578 1276 570 1266.5 c 128,-1,16
 562 1257 562 1257 557 1237 c 1,17,-1
 344 135 l 2,18,19
 341 120 341 120 349 109 c 128,-1,20
 357 98 357 98 385 96 c 2,21,-1
 504 86 l 1,22,-1
 504 0 l 1,23,-1
 -31 0 l 1,0,-1
EndSplineSet
Validated: 1
EndChar

StartChar: J
Encoding: 74 74 45
Width: 958
GlyphClass: 2
Flags: W
LayerCount: 2
Fore
SplineSet
-41 29 m 1,0,-1
 27 379 l 1,1,-1
 162 379 l 1,2,-1
 162 129 l 2,3,4
 162 103 162 103 187 88.5 c 128,-1,5
 212 74 212 74 244 74 c 0,6,7
 309 74 309 74 355 103 c 128,-1,8
 401 132 401 132 433 187 c 128,-1,9
 465 242 465 242 487.5 322.5 c 128,-1,10
 510 403 510 403 528 506 c 1,11,-1
 664 1237 l 2,12,13
 667 1254 667 1254 659 1265 c 128,-1,14
 651 1276 651 1276 625 1278 c 2,15,-1
 506 1288 l 1,16,-1
 506 1374 l 1,17,-1
 1038 1374 l 1,18,-1
 1038 1288 l 1,19,-1
 922 1278 l 2,20,21
 880 1275 880 1275 870 1237 c 1,22,-1
 739 524 l 2,23,24
 716 397 716 397 683 294 c 128,-1,25
 650 191 650 191 593 118.5 c 128,-1,26
 536 46 536 46 448.5 6.5 c 128,-1,27
 361 -33 361 -33 229 -33 c 0,28,29
 169 -33 169 -33 122 -25 c 128,-1,30
 75 -17 75 -17 41.5 -6.5 c 128,-1,31
 8 4 8 4 -12.5 14.5 c 128,-1,32
 -33 25 -33 25 -41 29 c 1,0,-1
EndSplineSet
Validated: 1
EndChar

StartChar: K
Encoding: 75 75 46
Width: 1343
GlyphClass: 2
Flags: W
LayerCount: 2
Fore
SplineSet
-33 0 m 1,0,-1
 -33 86 l 1,1,-1
 86 96 l 2,2,3
 129 99 129 99 135 135 c 1,4,-1
 350 1237 l 2,5,6
 353 1254 353 1254 345 1265 c 128,-1,7
 337 1276 337 1276 311 1278 c 2,8,-1
 197 1288 l 1,9,-1
 197 1374 l 1,10,-1
 729 1374 l 1,11,-1
 729 1288 l 1,12,-1
 608 1278 l 2,13,14
 588 1276 588 1276 575 1266.5 c 128,-1,15
 562 1257 562 1257 557 1237 c 1,16,-1
 453 700 l 1,17,-1
 487 700 l 1,18,-1
 1032 1237 l 2,19,20
 1045 1249 1045 1249 1042.5 1262.5 c 128,-1,21
 1040 1276 1040 1276 1018 1278 c 2,22,-1
 887 1288 l 1,23,-1
 887 1374 l 1,24,-1
 1417 1374 l 1,25,-1
 1417 1288 l 1,26,-1
 1245 1272 l 1,27,-1
 709 754 l 1,28,-1
 993 203 l 2,29,30
 1012 165 1012 165 1029.5 141.5 c 128,-1,31
 1047 118 1047 118 1066 104.5 c 128,-1,32
 1085 91 1085 91 1106.5 86.5 c 128,-1,33
 1128 82 1128 82 1155 82 c 0,34,35
 1174 82 1174 82 1195 83 c 128,-1,36
 1216 84 1216 84 1241 86 c 1,37,-1
 1241 0 l 1,38,39
 1193 -14 1193 -14 1141 -23.5 c 128,-1,40
 1089 -33 1089 -33 1049 -33 c 0,41,42
 1004 -33 1004 -33 970.5 -26 c 128,-1,43
 937 -19 937 -19 909 -1.5 c 128,-1,44
 881 16 881 16 858 45 c 128,-1,45
 835 74 835 74 811 119 c 2,46,-1
 559 604 l 1,47,-1
 434 604 l 1,48,-1
 342 135 l 2,49,50
 339 120 339 120 348 109 c 128,-1,51
 357 98 357 98 383 96 c 2,52,-1
 502 86 l 1,53,-1
 502 0 l 1,54,-1
 -33 0 l 1,0,-1
EndSplineSet
Validated: 1
EndChar

StartChar: L
Encoding: 76 76 47
Width: 1061
GlyphClass: 2
Flags: W
LayerCount: 2
Fore
SplineSet
-31 0 m 1,0,-1
 -31 86 l 1,1,-1
 88 96 l 2,2,3
 131 99 131 99 137 135 c 2,4,-1
 350 1237 l 2,5,6
 353 1254 353 1254 345 1265 c 128,-1,7
 337 1276 337 1276 311 1278 c 2,8,-1
 197 1288 l 1,9,-1
 197 1374 l 1,10,-1
 729 1374 l 1,11,-1
 729 1288 l 1,12,-1
 608 1278 l 2,13,14
 585 1276 585 1276 572.5 1264 c 128,-1,15
 560 1252 560 1252 557 1237 c 2,16,-1
 340 102 l 1,17,-1
 743 102 l 2,18,19
 763 102 763 102 775.5 113.5 c 128,-1,20
 788 125 788 125 795 143 c 1,21,-1
 868 379 l 1,22,-1
 989 379 l 1,23,-1
 915 0 l 1,24,-1
 -31 0 l 1,0,-1
EndSplineSet
Validated: 1
EndChar

StartChar: M
Encoding: 77 77 48
Width: 1765
GlyphClass: 2
Flags: W
LayerCount: 2
Fore
SplineSet
-29 0 m 1,0,-1
 -29 86 l 1,1,-1
 88 96 l 2,2,3
 130 99 130 99 139 135 c 1,4,-1
 350 1237 l 2,5,6
 353 1254 353 1254 345 1265 c 128,-1,7
 337 1276 337 1276 309 1278 c 2,8,-1
 195 1288 l 1,9,-1
 195 1374 l 1,10,-1
 653 1374 l 1,11,-1
 653 1317 l 1,12,-1
 829 326 l 1,13,-1
 1376 1307 l 1,14,-1
 1376 1374 l 1,15,-1
 1849 1374 l 1,16,-1
 1849 1288 l 1,17,-1
 1733 1278 l 2,18,19
 1691 1275 1691 1275 1681 1237 c 1,20,-1
 1470 135 l 2,21,22
 1467 120 1467 120 1475.5 109 c 128,-1,23
 1484 98 1484 98 1511 96 c 2,24,-1
 1626 86 l 1,25,-1
 1626 0 l 1,26,-1
 1094 0 l 1,27,-1
 1094 86 l 1,28,-1
 1214 96 l 2,29,30
 1233 98 1233 98 1247 107.5 c 128,-1,31
 1261 117 1261 117 1264 135 c 2,32,-1
 1462 1174 l 1,33,-1
 805 0 l 1,34,-1
 682 0 l 1,35,-1
 477 1163 l 1,36,-1
 287 135 l 2,37,38
 284 120 284 120 292 109 c 128,-1,39
 300 98 300 98 326 96 c 2,40,-1
 440 86 l 1,41,-1
 440 0 l 1,42,-1
 -29 0 l 1,0,-1
EndSplineSet
Validated: 1
EndChar

StartChar: N
Encoding: 78 78 49
Width: 1456
GlyphClass: 2
Flags: W
LayerCount: 2
Fore
SplineSet
-29 0 m 1,0,-1
 -29 86 l 1,1,-1
 88 96 l 2,2,3
 130 99 130 99 139 135 c 1,4,-1
 350 1237 l 2,5,6
 353 1254 353 1254 345 1265 c 128,-1,7
 337 1276 337 1276 311 1278 c 2,8,-1
 197 1288 l 1,9,-1
 197 1374 l 1,10,-1
 592 1374 l 1,11,-1
 592 1321 l 1,12,-1
 1053 344 l 1,13,-1
 1227 1237 l 2,14,15
 1230 1254 1230 1254 1222 1265 c 128,-1,16
 1214 1276 1214 1276 1188 1278 c 2,17,-1
 1071 1288 l 1,18,-1
 1071 1374 l 1,19,-1
 1546 1374 l 1,20,-1
 1546 1288 l 1,21,-1
 1430 1278 l 2,22,23
 1410 1276 1410 1276 1396.5 1266.5 c 128,-1,24
 1383 1257 1383 1257 1378 1237 c 1,25,-1
 1137 0 l 1,26,-1
 989 0 l 1,27,-1
 473 1087 l 1,28,-1
 291 135 l 2,29,30
 288 120 288 120 296 109 c 128,-1,31
 304 98 304 98 332 96 c 2,32,-1
 446 86 l 1,33,-1
 446 0 l 1,34,-1
 -29 0 l 1,0,-1
EndSplineSet
Validated: 1
EndChar

StartChar: O
Encoding: 79 79 50
Width: 1454
GlyphClass: 2
Flags: W
LayerCount: 2
Fore
SplineSet
98 537 m 0,0,1
 98 647 98 647 123 754 c 128,-1,2
 148 861 148 861 195.5 958 c 128,-1,3
 243 1055 243 1055 310.5 1137 c 128,-1,4
 378 1219 378 1219 462.5 1279 c 128,-1,5
 547 1339 547 1339 647.5 1373 c 128,-1,6
 748 1407 748 1407 860 1407 c 0,7,8
 987 1407 987 1407 1090 1363.5 c 128,-1,9
 1193 1320 1193 1320 1265 1245 c 128,-1,10
 1337 1170 1337 1170 1376 1069 c 128,-1,11
 1415 968 1415 968 1415 854 c 0,12,13
 1415 746 1415 746 1392 638.5 c 128,-1,14
 1369 531 1369 531 1325 432 c 128,-1,15
 1281 333 1281 333 1216 248.5 c 128,-1,16
 1151 164 1151 164 1066.5 101 c 128,-1,17
 982 38 982 38 878.5 2.5 c 128,-1,18
 775 -33 775 -33 655 -33 c 0,19,20
 532 -33 532 -33 430 7.5 c 128,-1,21
 328 48 328 48 254 123 c 128,-1,22
 180 198 180 198 139 303 c 128,-1,23
 98 408 98 408 98 537 c 0,0,1
330 520 m 0,24,25
 330 416 330 416 356.5 333.5 c 128,-1,26
 383 251 383 251 428.5 193.5 c 128,-1,27
 474 136 474 136 536 105 c 128,-1,28
 598 74 598 74 670 74 c 0,29,30
 745 74 745 74 812 107.5 c 128,-1,31
 879 141 879 141 936 199 c 128,-1,32
 993 257 993 257 1038.5 333.5 c 128,-1,33
 1084 410 1084 410 1116 497 c 128,-1,34
 1148 584 1148 584 1165 675.5 c 128,-1,35
 1182 767 1182 767 1182 854 c 0,36,37
 1182 956 1182 956 1156.5 1039 c 128,-1,38
 1131 1122 1131 1122 1085.5 1181.5 c 128,-1,39
 1040 1241 1040 1241 977.5 1273 c 128,-1,40
 915 1305 915 1305 842 1305 c 0,41,42
 767 1305 767 1305 700 1272 c 128,-1,43
 633 1239 633 1239 576 1182 c 128,-1,44
 519 1125 519 1125 473.5 1048.5 c 128,-1,45
 428 972 428 972 396 885 c 128,-1,46
 364 798 364 798 347 704.5 c 128,-1,47
 330 611 330 611 330 520 c 0,24,25
EndSplineSet
Validated: 1
EndChar

StartChar: P
Encoding: 80 80 51
Width: 1159
GlyphClass: 2
Flags: W
LayerCount: 2
Fore
SplineSet
-35 0 m 1,0,-1
 -35 86 l 1,1,-1
 84 96 l 2,2,3
 124 99 124 99 133 135 c 1,4,-1
 348 1237 l 2,5,6
 351 1254 351 1254 343 1265 c 128,-1,7
 335 1276 335 1276 307 1278 c 2,8,-1
 193 1288 l 1,9,-1
 193 1374 l 1,10,-1
 702 1374 l 2,11,12
 828 1374 828 1374 916.5 1349.5 c 128,-1,13
 1005 1325 1005 1325 1061.5 1281.5 c 128,-1,14
 1118 1238 1118 1238 1143.5 1178 c 128,-1,15
 1169 1118 1169 1118 1169 1047 c 0,16,17
 1169 923 1169 923 1122 824 c 128,-1,18
 1075 725 1075 725 991.5 655.5 c 128,-1,19
 908 586 908 586 793.5 549 c 128,-1,20
 679 512 679 512 545 512 c 0,21,22
 529 512 529 512 507 512.5 c 128,-1,23
 485 513 485 513 465 514 c 0,24,25
 441 515 441 515 416 516 c 1,26,-1
 340 135 l 2,27,28
 337 120 337 120 345 109 c 128,-1,29
 353 98 353 98 381 96 c 2,30,-1
 498 86 l 1,31,-1
 498 0 l 1,32,-1
 -35 0 l 1,0,-1
434 623 m 1,33,34
 467 620 467 620 500 620 c 0,35,36
 512 620 512 620 524 620 c 0,37,38
 570 622 570 622 614 629.5 c 128,-1,39
 658 637 658 637 699 651.5 c 128,-1,40
 740 666 740 666 776 688 c 0,41,42
 815 711 815 711 848 742 c 128,-1,43
 881 773 881 773 905 813 c 128,-1,44
 929 853 929 853 942.5 902.5 c 128,-1,45
 956 952 956 952 956 1012 c 0,46,47
 956 1071 956 1071 939.5 1120 c 128,-1,48
 923 1169 923 1169 885.5 1204 c 128,-1,49
 848 1239 848 1239 787.5 1258.5 c 128,-1,50
 727 1278 727 1278 639 1278 c 0,51,52
 620 1278 620 1278 598.5 1277 c 128,-1,53
 577 1276 577 1276 561 1274 c 1,54,-1
 434 623 l 1,33,34
EndSplineSet
Validated: 1
EndChar

StartChar: Q
Encoding: 81 81 52
Width: 1454
GlyphClass: 2
Flags: W
LayerCount: 2
Fore
SplineSet
94 530 m 0,0,1
 94 636 94 636 119.5 742 c 128,-1,2
 145 848 145 848 192.5 945.5 c 128,-1,3
 240 1043 240 1043 308 1127.5 c 128,-1,4
 376 1212 376 1212 461 1274 c 128,-1,5
 546 1336 546 1336 647.5 1371.5 c 128,-1,6
 749 1407 749 1407 862 1407 c 0,7,8
 987 1407 987 1407 1089 1365 c 128,-1,9
 1191 1323 1191 1323 1263 1249 c 128,-1,10
 1335 1175 1335 1175 1374 1074 c 128,-1,11
 1413 973 1413 973 1413 856 c 0,12,13
 1413 801 1413 801 1406 734 c 128,-1,14
 1399 667 1399 667 1381 594.5 c 128,-1,15
 1363 522 1363 522 1331 447 c 128,-1,16
 1299 372 1299 372 1249 299.5 c 128,-1,17
 1199 227 1199 227 1129 161 c 128,-1,18
 1059 95 1059 95 965 41 c 1,19,20
 996 -16 996 -16 1024 -62 c 128,-1,21
 1052 -108 1052 -108 1084 -141 c 128,-1,22
 1116 -174 1116 -174 1154 -191.5 c 128,-1,23
 1192 -209 1192 -209 1243 -209 c 0,24,25
 1273 -209 1273 -209 1304.5 -202.5 c 128,-1,26
 1336 -196 1336 -196 1367 -186 c 128,-1,27
 1398 -176 1398 -176 1426.5 -164 c 128,-1,28
 1455 -152 1455 -152 1479 -141 c 1,29,-1
 1479 -227 l 1,30,31
 1467 -233 1467 -233 1432 -250 c 128,-1,32
 1397 -267 1397 -267 1348 -284 c 128,-1,33
 1299 -301 1299 -301 1243 -314.5 c 128,-1,34
 1187 -328 1187 -328 1133 -328 c 0,35,36
 1054 -328 1054 -328 995 -305 c 128,-1,37
 936 -282 936 -282 891.5 -241 c 128,-1,38
 847 -200 847 -200 813.5 -145 c 128,-1,39
 780 -90 780 -90 752 -25 c 1,40,41
 729 -27 729 -27 701.5 -30 c 128,-1,42
 674 -33 674 -33 649 -33 c 0,43,44
 536 -33 536 -33 435 4.5 c 128,-1,45
 334 42 334 42 258.5 114 c 128,-1,46
 183 186 183 186 138.5 291 c 128,-1,47
 94 396 94 396 94 530 c 0,0,1
324 520 m 256,48,49
 324 424 324 424 348 342.5 c 128,-1,50
 372 261 372 261 416.5 202 c 128,-1,51
 461 143 461 143 524.5 109.5 c 128,-1,52
 588 76 588 76 668 76 c 0,53,54
 741 76 741 76 807.5 109 c 128,-1,55
 874 142 874 142 931.5 199 c 128,-1,56
 989 256 989 256 1035 332.5 c 128,-1,57
 1081 409 1081 409 1114 495.5 c 128,-1,58
 1147 582 1147 582 1164.5 674.5 c 128,-1,59
 1182 767 1182 767 1182 856 c 0,60,61
 1182 953 1182 953 1158 1035 c 128,-1,62
 1134 1117 1134 1117 1090.5 1176.5 c 128,-1,63
 1047 1236 1047 1236 986.5 1269.5 c 128,-1,64
 926 1303 926 1303 852 1303 c 0,65,66
 776 1303 776 1303 707 1271.5 c 128,-1,67
 638 1240 638 1240 579.5 1185 c 128,-1,68
 521 1130 521 1130 473.5 1055 c 128,-1,69
 426 980 426 980 393 893 c 128,-1,70
 360 806 360 806 342 711 c 128,-1,71
 324 616 324 616 324 520 c 256,48,49
EndSplineSet
Validated: 1
EndChar

StartChar: R
Encoding: 82 82 53
Width: 1313
GlyphClass: 2
Flags: W
LayerCount: 2
Fore
SplineSet
-27 0 m 1,0,-1
 -27 86 l 1,1,-1
 90 96 l 2,2,3
 132 99 132 99 141 135 c 1,4,-1
 350 1237 l 2,5,6
 353 1254 353 1254 345 1265 c 128,-1,7
 337 1276 337 1276 311 1278 c 2,8,-1
 197 1288 l 1,9,-1
 197 1374 l 1,10,-1
 745 1374 l 2,11,12
 830 1374 830 1374 910.5 1360 c 128,-1,13
 991 1346 991 1346 1053 1311 c 128,-1,14
 1115 1276 1115 1276 1152.5 1217.5 c 128,-1,15
 1190 1159 1190 1159 1190 1071 c 0,16,17
 1190 988 1190 988 1157 921 c 128,-1,18
 1124 854 1124 854 1067 801.5 c 128,-1,19
 1010 749 1010 749 934 711 c 128,-1,20
 858 673 858 673 772 649 c 1,21,22
 835 622 835 622 872.5 588.5 c 128,-1,23
 910 555 910 555 933 514 c 128,-1,24
 956 473 956 473 969 423 c 128,-1,25
 982 373 982 373 997 315 c 0,26,27
 1012 258 1012 258 1030 214.5 c 128,-1,28
 1048 171 1048 171 1077.5 142 c 128,-1,29
 1107 113 1107 113 1150.5 98.5 c 128,-1,30
 1194 84 1194 84 1260 84 c 1,31,-1
 1260 0 l 1,32,33
 1218 -19 1218 -19 1181.5 -26 c 128,-1,34
 1145 -33 1145 -33 1110 -33 c 0,35,36
 1017 -33 1017 -33 960.5 -3 c 128,-1,37
 904 27 904 27 871.5 75 c 128,-1,38
 839 123 839 123 823.5 181.5 c 128,-1,39
 808 240 808 240 797 297 c 0,40,41
 785 354 785 354 770.5 409.5 c 128,-1,42
 756 465 756 465 729.5 508.5 c 128,-1,43
 703 552 703 552 659 579 c 128,-1,44
 615 606 615 606 543 606 c 0,45,46
 529 606 529 606 511 605.5 c 128,-1,47
 493 605 493 605 476 605 c 0,48,49
 457 604 457 604 436 604 c 1,50,-1
 348 135 l 2,51,52
 345 120 345 120 353 109 c 128,-1,53
 361 98 361 98 387 96 c 2,54,-1
 506 86 l 1,55,-1
 506 0 l 1,56,-1
 -27 0 l 1,0,-1
459 711 m 1,57,-1
 504 711 l 2,58,59
 587 711 587 711 668 726 c 128,-1,60
 749 741 749 741 813.5 779 c 128,-1,61
 878 817 878 817 918 880.5 c 128,-1,62
 958 944 958 944 958 1042 c 0,63,64
 958 1117 958 1117 925.5 1163 c 128,-1,65
 893 1209 893 1209 842 1234 c 0,66,67
 791 1258 791 1258 729 1266 c 0,68,69
 680 1272 680 1272 633 1272 c 0,70,71
 620 1272 620 1272 608 1272 c 0,72,73
 600 1272 600 1272 586 1271 c 128,-1,74
 572 1270 572 1270 563 1270 c 1,75,-1
 459 711 l 1,57,-1
EndSplineSet
Validated: 1
EndChar

StartChar: S
Encoding: 83 83 54
Width: 1067
GlyphClass: 2
Flags: W
LayerCount: 2
Fore
SplineSet
-10 74 m 1,0,-1
 59 403 l 1,1,-1
 199 403 l 1,2,-1
 176 168 l 2,3,4
 175 156 175 156 190 144 c 128,-1,5
 205 132 205 132 229 121.5 c 128,-1,6
 253 111 253 111 282 102.5 c 128,-1,7
 311 94 311 94 337.5 87.5 c 128,-1,8
 364 81 364 81 384.5 77.5 c 128,-1,9
 405 74 405 74 412 74 c 0,10,11
 478 74 478 74 538 94.5 c 128,-1,12
 598 115 598 115 643.5 153.5 c 128,-1,13
 689 192 689 192 716 247.5 c 128,-1,14
 743 303 743 303 743 373 c 0,15,16
 743 425 743 425 712.5 465.5 c 128,-1,17
 682 506 682 506 637.5 538 c 128,-1,18
 593 570 593 570 543 594.5 c 128,-1,19
 493 619 493 619 455 639 c 0,20,21
 401 667 401 667 350 697.5 c 128,-1,22
 299 728 299 728 259.5 765.5 c 128,-1,23
 220 803 220 803 196 850 c 128,-1,24
 172 897 172 897 172 958 c 0,25,26
 172 1060 172 1060 212 1143 c 128,-1,27
 252 1226 252 1226 323.5 1284.5 c 128,-1,28
 395 1343 395 1343 492.5 1375 c 128,-1,29
 590 1407 590 1407 705 1407 c 0,30,31
 774 1407 774 1407 833 1397.5 c 128,-1,32
 892 1388 892 1388 937 1375 c 128,-1,33
 982 1362 982 1362 1011.5 1350 c 128,-1,34
 1041 1338 1041 1338 1051 1333 c 1,35,-1
 985 1020 l 1,36,-1
 864 1020 l 1,37,-1
 872 1227 l 2,38,39
 872 1237 872 1237 857 1250.5 c 128,-1,40
 842 1264 842 1264 816.5 1276.5 c 128,-1,41
 791 1289 791 1289 758 1298 c 128,-1,42
 725 1307 725 1307 688 1307 c 0,43,44
 629 1307 629 1307 573.5 1286 c 128,-1,45
 518 1265 518 1265 475 1227.5 c 128,-1,46
 432 1190 432 1190 406.5 1138.5 c 128,-1,47
 381 1087 381 1087 381 1026 c 0,48,49
 381 971 381 971 411 929.5 c 128,-1,50
 441 888 441 888 485 856 c 128,-1,51
 529 824 529 824 579 800 c 128,-1,52
 629 776 629 776 670 756 c 1,53,54
 724 728 724 728 775.5 697 c 128,-1,55
 827 666 827 666 867 627 c 128,-1,56
 907 588 907 588 931.5 537.5 c 128,-1,57
 956 487 956 487 956 420 c 0,58,59
 956 346 956 346 925.5 266 c 128,-1,60
 895 186 895 186 827 119.5 c 128,-1,61
 759 53 759 53 650.5 10 c 128,-1,62
 542 -33 542 -33 385 -33 c 0,63,64
 306 -33 306 -33 238.5 -18.5 c 128,-1,65
 171 -4 171 -4 119.5 14.5 c 128,-1,66
 68 33 68 33 34.5 50.5 c 128,-1,67
 1 68 1 68 -10 74 c 1,0,-1
EndSplineSet
Validated: 1
EndChar

StartChar: T
Encoding: 84 84 55
Width: 1200
GlyphClass: 2
Flags: W
LayerCount: 2
Fore
SplineSet
135 1061 m 1,0,-1
 195 1374 l 1,1,-1
 1329 1374 l 1,2,-1
 1266 1061 l 1,3,-1
 1137 1061 l 1,4,-1
 1145 1241 l 2,5,6
 1145 1244 1145 1244 1145 1246 c 0,7,8
 1145 1282 1145 1282 1106 1282 c 2,9,-1
 842 1282 l 1,10,-1
 629 135 l 2,11,12
 626 120 626 120 634 109 c 128,-1,13
 642 98 642 98 670 96 c 2,14,-1
 786 86 l 1,15,-1
 786 0 l 1,16,-1
 254 0 l 1,17,-1
 254 86 l 1,18,-1
 373 96 l 2,19,20
 391 98 391 98 405 107.5 c 128,-1,21
 419 117 419 117 422 135 c 2,22,-1
 635 1282 l 1,23,-1
 379 1282 l 2,24,25
 340 1282 340 1282 328 1241 c 1,26,-1
 264 1061 l 1,27,-1
 135 1061 l 1,0,-1
EndSplineSet
Validated: 1
EndChar

StartChar: U
Encoding: 85 85 56
Width: 1448
GlyphClass: 2
Flags: W
LayerCount: 2
Fore
SplineSet
188 326 m 0,0,1
 188 357 188 357 194.5 413 c 128,-1,2
 201 469 201 469 215 541 c 2,3,-1
 358 1237 l 2,4,5
 361 1254 361 1254 353 1265 c 128,-1,6
 345 1276 345 1276 317 1278 c 2,7,-1
 203 1288 l 1,8,-1
 203 1374 l 1,9,-1
 735 1374 l 1,10,-1
 735 1288 l 1,11,-1
 614 1278 l 2,12,13
 596 1276 596 1276 582 1266.5 c 128,-1,14
 568 1257 568 1257 565 1237 c 1,15,-1
 424 541 l 2,16,17
 412 481 412 481 406.5 433.5 c 128,-1,18
 401 386 401 386 401 358 c 0,19,20
 401 293 401 293 421.5 245 c 128,-1,21
 442 197 442 197 479.5 164.5 c 128,-1,22
 517 132 517 132 570.5 116 c 128,-1,23
 624 100 624 100 690 100 c 0,24,25
 790 100 790 100 857.5 133.5 c 128,-1,26
 925 167 925 167 970 223 c 128,-1,27
 1015 279 1015 279 1041 353.5 c 128,-1,28
 1067 428 1067 428 1083 510 c 2,29,-1
 1227 1237 l 2,30,31
 1230 1254 1230 1254 1222 1265 c 128,-1,32
 1214 1276 1214 1276 1186 1278 c 2,33,-1
 1071 1288 l 1,34,-1
 1071 1374 l 1,35,-1
 1534 1374 l 1,36,-1
 1534 1288 l 1,37,-1
 1415 1278 l 2,38,39
 1397 1276 1397 1276 1383 1266.5 c 128,-1,40
 1369 1257 1369 1257 1366 1237 c 2,41,-1
 1208 438 l 2,42,43
 1187 327 1187 327 1141 239.5 c 128,-1,44
 1095 152 1095 152 1023.5 91.5 c 128,-1,45
 952 31 952 31 855.5 -1 c 128,-1,46
 759 -33 759 -33 637 -33 c 0,47,48
 542 -33 542 -33 460.5 -13.5 c 128,-1,49
 379 6 379 6 318 49 c 128,-1,50
 257 92 257 92 222.5 160 c 128,-1,51
 188 228 188 228 188 326 c 0,0,1
EndSplineSet
Validated: 1
EndChar

StartChar: V
Encoding: 86 86 57
Width: 1317
GlyphClass: 2
Flags: W
LayerCount: 2
Fore
SplineSet
170 1288 m 1,0,-1
 170 1374 l 1,1,-1
 635 1374 l 1,2,-1
 635 1288 l 1,3,-1
 547 1284 l 2,4,5
 524 1282 524 1282 513.5 1273.5 c 128,-1,6
 503 1265 503 1265 506 1243 c 2,7,-1
 659 252 l 1,8,-1
 1180 1243 l 2,9,10
 1188 1259 1188 1259 1183 1270.5 c 128,-1,11
 1178 1282 1178 1282 1149 1284 c 2,12,-1
 1049 1288 l 1,13,-1
 1049 1374 l 1,14,-1
 1466 1374 l 1,15,-1
 1466 1288 l 1,16,-1
 1358 1276 l 1,17,-1
 651 -33 l 1,18,-1
 496 -33 l 1,19,-1
 297 1243 l 2,20,21
 294 1263 294 1263 281 1272.5 c 128,-1,22
 268 1282 268 1282 248 1284 c 2,23,-1
 170 1288 l 1,0,-1
EndSplineSet
Validated: 1
EndChar

StartChar: W
Encoding: 87 87 58
Width: 1898
GlyphClass: 2
Flags: W
LayerCount: 2
Fore
SplineSet
170 1288 m 1,0,-1
 170 1374 l 1,1,-1
 643 1374 l 1,2,-1
 643 1288 l 1,3,-1
 553 1284 l 2,4,5
 530 1282 530 1282 521 1272 c 128,-1,6
 512 1262 512 1262 512 1243 c 1,7,-1
 584 354 l 1,8,-1
 1065 1374 l 1,9,-1
 1231 1374 l 1,10,-1
 1335 340 l 1,11,-1
 1751 1243 l 2,12,13
 1755 1252 1755 1252 1755 1259 c 0,14,15
 1755 1281 1755 1281 1712 1284 c 1,16,-1
 1620 1288 l 1,17,-1
 1620 1374 l 1,18,-1
 2048 1374 l 1,19,-1
 2048 1288 l 1,20,-1
 1927 1276 l 1,21,-1
 1313 -33 l 1,22,-1
 1182 -33 l 1,23,-1
 1063 1061 l 1,24,-1
 551 -33 l 1,25,-1
 408 -33 l 1,26,-1
 305 1243 l 2,27,28
 303 1263 303 1263 292.5 1272.5 c 128,-1,29
 282 1282 282 1282 256 1284 c 2,30,-1
 170 1288 l 1,0,-1
EndSplineSet
Validated: 1
EndChar

StartChar: X
Encoding: 88 88 59
Width: 1296
GlyphClass: 2
Flags: W
LayerCount: 2
Fore
SplineSet
-90 0 m 1,0,-1
 -90 86 l 1,1,-1
 8 94 l 2,2,3
 25 96 25 96 38 106.5 c 128,-1,4
 51 117 51 117 57 125 c 2,5,-1
 567 696 l 1,6,-1
 322 1249 l 2,7,8
 314 1268 314 1268 304 1273 c 128,-1,9
 294 1278 294 1278 283 1280 c 1,10,-1
 170 1288 l 1,11,-1
 170 1374 l 1,12,-1
 702 1374 l 1,13,-1
 702 1288 l 1,14,-1
 569 1280 l 2,15,16
 552 1278 552 1278 542 1266.5 c 128,-1,17
 532 1255 532 1255 539 1239 c 2,18,-1
 707 856 l 1,19,-1
 1042 1239 l 2,20,21
 1053 1251 1053 1251 1051.5 1264.5 c 128,-1,22
 1050 1278 1050 1278 1024 1280 c 2,23,-1
 926 1288 l 1,24,-1
 926 1374 l 1,25,-1
 1389 1374 l 1,26,-1
 1389 1288 l 1,27,-1
 1266 1280 l 2,28,29
 1250 1278 1250 1278 1236.5 1267.5 c 128,-1,30
 1223 1257 1223 1257 1217 1249 c 2,31,-1
 766 737 l 1,32,-1
 1034 125 l 1,33,34
 1044 106 1044 106 1054 101 c 128,-1,35
 1064 96 1064 96 1075 94 c 1,36,-1
 1186 86 l 1,37,-1
 1186 0 l 1,38,-1
 657 0 l 1,39,-1
 657 86 l 1,40,-1
 788 94 l 2,41,42
 805 96 805 96 815 108 c 128,-1,43
 825 120 825 120 817 135 c 1,44,-1
 633 565 l 1,45,-1
 246 135 l 1,46,47
 233 123 233 123 235.5 109.5 c 128,-1,48
 238 96 238 96 264 94 c 2,49,-1
 387 86 l 1,50,-1
 387 0 l 1,51,-1
 -90 0 l 1,0,-1
EndSplineSet
Validated: 1
EndChar

StartChar: Y
Encoding: 89 89 60
Width: 1309
GlyphClass: 2
Flags: W
LayerCount: 2
Fore
SplineSet
172 1288 m 1,0,-1
 172 1374 l 1,1,-1
 702 1374 l 1,2,-1
 702 1288 l 1,3,-1
 571 1280 l 2,4,5
 554 1278 554 1278 545.5 1267 c 128,-1,6
 537 1256 537 1256 543 1239 c 2,7,-1
 711 707 l 1,8,-1
 1106 1239 l 2,9,10
 1110 1246 1110 1246 1113 1253 c 128,-1,11
 1116 1260 1116 1260 1115 1265.5 c 128,-1,12
 1114 1271 1114 1271 1108.5 1275 c 128,-1,13
 1103 1279 1103 1279 1090 1280 c 2,14,-1
 963 1288 l 1,15,-1
 963 1374 l 1,16,-1
 1456 1374 l 1,17,-1
 1456 1288 l 1,18,-1
 1341 1280 l 2,19,20
 1326 1278 1326 1278 1311 1267.5 c 128,-1,21
 1296 1257 1296 1257 1288 1249 c 1,22,-1
 768 575 l 1,23,-1
 682 135 l 1,24,25
 677 120 677 120 686 109 c 128,-1,26
 695 98 695 98 721 96 c 2,27,-1
 836 86 l 1,28,-1
 836 0 l 1,29,-1
 303 0 l 1,30,-1
 303 86 l 1,31,-1
 422 96 l 2,32,33
 440 98 440 98 453 107.5 c 128,-1,34
 466 117 466 117 471 135 c 1,35,-1
 555 557 l 1,36,-1
 326 1249 l 2,37,38
 319 1269 319 1269 308.5 1273.5 c 128,-1,39
 298 1278 298 1278 287 1280 c 1,40,-1
 172 1288 l 1,0,-1
EndSplineSet
Validated: 1
EndChar

StartChar: Z
Encoding: 90 90 61
Width: 1153
GlyphClass: 2
Flags: W
LayerCount: 2
Fore
SplineSet
-41 0 m 1,0,-1
 -23 90 l 1,1,-1
 938 1268 l 1,2,-1
 459 1268 l 2,3,4
 437 1268 437 1268 426.5 1258.5 c 128,-1,5
 416 1249 416 1249 410 1229 c 2,6,-1
 354 1049 l 1,7,-1
 213 1049 l 1,8,-1
 279 1374 l 1,9,-1
 1219 1374 l 1,10,-1
 1200 1282 l 1,11,-1
 236 109 l 1,12,-1
 793 109 l 2,13,14
 833 109 833 109 844 150 c 2,15,-1
 905 379 l 1,16,-1
 1044 379 l 1,17,-1
 973 0 l 1,18,-1
 -41 0 l 1,0,-1
EndSplineSet
Validated: 1
EndChar

StartChar: bracketleft
Encoding: 91 91 62
Width: 862
GlyphClass: 2
Flags: W
LayerCount: 2
Fore
SplineSet
111 -270 m 1,0,-1
 455 1450 l 1,1,-1
 965 1450 l 1,2,-1
 965 1354 l 1,3,-1
 631 1354 l 1,4,-1
 326 -174 l 1,5,-1
 639 -174 l 1,6,-1
 639 -270 l 1,7,-1
 111 -270 l 1,0,-1
EndSplineSet
Validated: 1
EndChar

StartChar: backslash
Encoding: 92 92 63
Width: 1001
GlyphClass: 2
Flags: W
LayerCount: 2
Fore
SplineSet
0 1374 m 1,0,-1
 131 1374 l 1,1,-1
 1001 -190 l 1,2,-1
 870 -190 l 1,3,-1
 0 1374 l 1,0,-1
EndSplineSet
Validated: 1
EndChar

StartChar: bracketright
Encoding: 93 93 64
Width: 862
GlyphClass: 2
Flags: W
LayerCount: 2
Fore
SplineSet
-84 -172 m 1,0,-1
 252 -172 l 1,1,-1
 555 1356 l 1,2,-1
 242 1356 l 1,3,-1
 242 1450 l 1,4,-1
 770 1450 l 1,5,-1
 426 -270 l 1,6,-1
 -84 -270 l 1,7,-1
 -84 -172 l 1,0,-1
EndSplineSet
Validated: 1
EndChar

StartChar: asciicircum
Encoding: 94 94 65
Width: 702
GlyphClass: 2
Flags: W
LayerCount: 2
Fore
SplineSet
119 1128 m 1,0,-1
 457 1475 l 1,1,-1
 618 1475 l 1,2,-1
 819 1128 l 1,3,-1
 676 1128 l 1,4,-1
 508 1317 l 1,5,-1
 262 1128 l 1,6,-1
 119 1128 l 1,0,-1
EndSplineSet
Validated: 1
EndChar

StartChar: underscore
Encoding: 95 95 66
Width: 622
GlyphClass: 2
Flags: W
LayerCount: 2
Fore
SplineSet
-160 -315 m 1,0,-1
 -131 -180 l 1,1,-1
 488 -180 l 1,2,-1
 462 -315 l 1,3,-1
 -160 -315 l 1,0,-1
EndSplineSet
Validated: 1
EndChar

StartChar: grave
Encoding: 96 96 67
Width: 805
GlyphClass: 2
Flags: W
LayerCount: 2
Fore
SplineSet
182 1409 m 0,0,1
 182 1424 182 1424 186.5 1440 c 128,-1,2
 191 1456 191 1456 201.5 1469 c 128,-1,3
 212 1482 212 1482 229.5 1490.5 c 128,-1,4
 247 1499 247 1499 274 1499 c 0,5,6
 296 1499 296 1499 311.5 1495 c 128,-1,7
 327 1491 327 1491 339 1484.5 c 128,-1,8
 351 1478 351 1478 360.5 1468.5 c 128,-1,9
 370 1459 370 1459 379 1448 c 2,10,-1
 653 1128 l 1,11,-1
 526 1128 l 1,12,-1
 229 1323 l 2,13,14
 208 1337 208 1337 195 1357.5 c 128,-1,15
 182 1378 182 1378 182 1409 c 0,0,1
EndSplineSet
Validated: 1
EndChar

StartChar: a
Encoding: 97 97 68
Width: 1268
GlyphClass: 2
Flags: W
LayerCount: 2
Fore
SplineSet
-93 0 m 1,0,-1
 -93 85 l 1,1,-1
 11 95 l 1,2,-1
 11 91 l 1,3,-1
 696 1147 l 1,4,-1
 839 1147 l 1,5,-1
 1040 118 l 2,6,7
 1042 106 1042 106 1049 100.5 c 128,-1,8
 1056 95 1056 95 1076 93 c 2,9,-1
 1161 85 l 1,10,-1
 1161 0 l 1,11,-1
 728 0 l 1,12,-1
 728 85 l 1,13,-1
 812 93 l 1,14,15
 851 99 851 99 847 115 c 1,16,-1
 792 429 l 1,17,-1
 792 423 l 1,18,-1
 374 423 l 1,19,-1
 374 426 l 1,20,-1
 185 112 l 1,21,22
 174 98 174 98 220 93 c 2,23,-1
 305 85 l 1,24,-1
 305 0 l 1,25,-1
 -93 0 l 1,0,-1
431 517 m 1,26,-1
 774 517 l 1,27,-1
 696 935 l 1,28,-1
 696 932 l 1,29,-1
 431 517 l 1,26,-1
EndSplineSet
Validated: 1
EndChar

StartChar: b
Encoding: 98 98 69
Width: 1144
GlyphClass: 2
Flags: W
LayerCount: 2
Fore
SplineSet
-23 0 m 1,0,-1
 -23 85 l 1,1,-1
 94 93 l 2,2,3
 111 95 111 95 119 100.5 c 128,-1,4
 127 106 127 106 129 118 c 2,5,-1
 321 1004 l 2,6,7
 323 1014 323 1014 315.5 1020 c 128,-1,8
 308 1026 308 1026 284 1027 c 2,9,-1
 181 1035 l 1,10,-1
 181 1120 l 1,11,-1
 699 1120 l 2,12,13
 799 1120 799 1120 869 1104.5 c 128,-1,14
 939 1089 939 1089 982.5 1060.5 c 128,-1,15
 1026 1032 1026 1032 1045.5 991.5 c 128,-1,16
 1065 951 1065 951 1065 902 c 0,17,18
 1065 841 1065 841 1043.5 793 c 128,-1,19
 1022 745 1022 745 985 708.5 c 128,-1,20
 948 672 948 672 898 645 c 128,-1,21
 848 618 848 618 790 599 c 1,22,23
 843 590 843 590 887 574 c 128,-1,24
 931 558 931 558 962.5 531.5 c 128,-1,25
 994 505 994 505 1011.5 467 c 128,-1,26
 1029 429 1029 429 1029 377 c 0,27,28
 1029 273 1029 273 987.5 201.5 c 128,-1,29
 946 130 946 130 872.5 85 c 128,-1,30
 799 40 799 40 699 20 c 128,-1,31
 599 0 599 0 483 0 c 2,32,-1
 -23 0 l 1,0,-1
311 95 m 1,33,34
 314 95 314 95 316 94.5 c 128,-1,35
 318 94 318 94 321 94 c 0,36,37
 344 93 344 93 373 91.5 c 128,-1,38
 402 90 402 90 422 90 c 0,39,40
 622 90 622 90 724.5 161 c 128,-1,41
 827 232 827 232 827 360 c 0,42,43
 827 409 827 409 807.5 442.5 c 128,-1,44
 788 476 788 476 751.5 496.5 c 128,-1,45
 715 517 715 517 662.5 526 c 128,-1,46
 610 535 610 535 545 535 c 0,47,48
 510 535 510 535 473 533 c 128,-1,49
 436 531 436 531 406 526 c 1,50,-1
 406 533 l 1,51,-1
 311 95 l 1,33,34
426 627 m 1,52,53
 447 626 447 626 473 625 c 128,-1,54
 499 624 499 624 512 624 c 0,55,56
 598 624 598 624 663.5 645.5 c 128,-1,57
 729 667 729 667 772.5 703.5 c 128,-1,58
 816 740 816 740 838 788.5 c 128,-1,59
 860 837 860 837 860 891 c 0,60,61
 860 965 860 965 793.5 999 c 128,-1,62
 727 1033 727 1033 609 1033 c 0,63,64
 583 1033 583 1033 561 1032.5 c 128,-1,65
 539 1032 539 1032 523 1030 c 0,66,67
 521 1030 521 1030 518.5 1029.5 c 128,-1,68
 516 1029 516 1029 514 1029 c 1,69,-1
 514 1035 l 1,70,-1
 426 627 l 1,52,53
EndSplineSet
Validated: 1
EndChar

StartChar: c
Encoding: 99 99 70
Width: 1187
GlyphClass: 2
Flags: W
LayerCount: 2
Fore
SplineSet
95 448 m 0,0,1
 95 536 95 536 119.5 622.5 c 128,-1,2
 144 709 144 709 189.5 786.5 c 128,-1,3
 235 864 235 864 301 930 c 128,-1,4
 367 996 367 996 449.5 1044.5 c 128,-1,5
 532 1093 532 1093 630 1120 c 128,-1,6
 728 1147 728 1147 838 1147 c 0,7,8
 883 1147 883 1147 924 1142.5 c 128,-1,9
 965 1138 965 1138 1008 1129.5 c 128,-1,10
 1051 1121 1051 1121 1097.5 1108.5 c 128,-1,11
 1144 1096 1144 1096 1198 1080 c 1,12,-1
 1145 809 l 1,13,-1
 1037 809 l 1,14,-1
 1037 969 l 2,15,16
 1037 979 1037 979 1026 990 c 128,-1,17
 1015 1001 1015 1001 1004 1006 c 1,18,-1
 1001 1009 l 1,19,20
 996 1012 996 1012 983 1018.5 c 128,-1,21
 970 1025 970 1025 950.5 1031 c 128,-1,22
 931 1037 931 1037 905 1042 c 128,-1,23
 879 1047 879 1047 847 1047 c 0,24,25
 741 1047 741 1047 641 1003 c 128,-1,26
 541 959 541 959 463 878.5 c 128,-1,27
 385 798 385 798 338 684 c 128,-1,28
 291 570 291 570 291 429 c 0,29,30
 291 338 291 338 321 271 c 128,-1,31
 351 204 351 204 402.5 160.5 c 128,-1,32
 454 117 454 117 523 95.5 c 128,-1,33
 592 74 592 74 669 74 c 0,34,35
 724 74 724 74 758 84 c 128,-1,36
 792 94 792 94 803 99 c 2,37,-1
 808 101 l 1,38,39
 820 103 820 103 833 111.5 c 128,-1,40
 846 120 846 120 850 130 c 1,41,-1
 850 129 l 1,42,-1
 933 322 l 1,43,-1
 1041 322 l 1,44,-1
 988 39 l 1,45,-1
 980 37 l 2,46,47
 960 31 960 31 921 20 c 128,-1,48
 882 9 882 9 832 -1 c 128,-1,49
 782 -11 782 -11 724.5 -18.5 c 128,-1,50
 667 -26 667 -26 609 -26 c 0,51,52
 471 -26 471 -26 373.5 14.5 c 128,-1,53
 276 55 276 55 214 121.5 c 128,-1,54
 152 188 152 188 123.5 273.5 c 128,-1,55
 95 359 95 359 95 448 c 0,0,1
EndSplineSet
Validated: 1
EndChar

StartChar: d
Encoding: 100 100 71
Width: 1264
GlyphClass: 2
Flags: W
LayerCount: 2
Fore
SplineSet
-22 0 m 1,0,-1
 -22 85 l 1,1,-1
 93 93 l 2,2,3
 112 95 112 95 119 101 c 128,-1,4
 126 107 126 107 130 118 c 1,5,-1
 322 1004 l 2,6,7
 324 1014 324 1014 316 1020 c 128,-1,8
 308 1026 308 1026 284 1027 c 2,9,-1
 182 1035 l 1,10,-1
 182 1120 l 1,11,-1
 623 1120 l 2,12,13
 749 1120 749 1120 857 1097.5 c 128,-1,14
 965 1075 965 1075 1043.5 1024.5 c 128,-1,15
 1122 974 1122 974 1167 892 c 128,-1,16
 1212 810 1212 810 1212 691 c 0,17,18
 1212 537 1212 537 1153.5 410 c 128,-1,19
 1095 283 1095 283 989.5 192 c 128,-1,20
 884 101 884 101 737 50.5 c 128,-1,21
 590 0 590 0 413 0 c 2,22,-1
 -22 0 l 1,0,-1
313 101 m 1,23,-1
 445 101 l 1,24,25
 582 105 582 105 687.5 157 c 128,-1,26
 793 209 793 209 865 293 c 128,-1,27
 937 377 937 377 974.5 484.5 c 128,-1,28
 1012 592 1012 592 1012 706 c 0,29,30
 1012 802 1012 802 975.5 862.5 c 128,-1,31
 939 923 939 923 878.5 957.5 c 128,-1,32
 818 992 818 992 740.5 1006 c 128,-1,33
 663 1020 663 1020 581 1023 c 1,34,-1
 513 1023 l 1,35,-1
 513 1029 l 1,36,-1
 313 101 l 1,23,-1
EndSplineSet
Validated: 1
EndChar

StartChar: e
Encoding: 101 101 72
Width: 1052
GlyphClass: 2
Flags: W
LayerCount: 2
Fore
SplineSet
-23 0 m 1,0,-1
 -23 85 l 1,1,-1
 85 93 l 2,2,3
 103 95 103 95 115 100.5 c 128,-1,4
 127 106 127 106 129 118 c 2,5,-1
 321 1004 l 2,6,7
 323 1014 323 1014 316 1020 c 128,-1,8
 309 1026 309 1026 286 1027 c 2,9,-1
 183 1035 l 1,10,-1
 183 1120 l 1,11,-1
 1078 1120 l 1,12,-1
 1018 858 l 1,13,-1
 903 858 l 1,14,-1
 903 999 l 2,15,16
 903 1013 903 1013 895.5 1018 c 128,-1,17
 888 1023 888 1023 868 1023 c 2,18,-1
 513 1023 l 1,19,-1
 513 1029 l 1,20,-1
 430 633 l 1,21,-1
 675 633 l 2,22,23
 713 633 713 633 722 659 c 2,24,-1
 759 775 l 1,25,-1
 862 775 l 1,26,-1
 777 382 l 1,27,-1
 672 382 l 1,28,-1
 693 508 l 2,29,30
 698 532 698 532 657 532 c 2,31,-1
 408 532 l 1,32,-1
 408 539 l 1,33,-1
 314 98 l 1,34,-1
 745 98 l 2,35,36
 766 98 766 98 777 106 c 128,-1,37
 788 114 788 114 791 125 c 2,38,-1
 851 289 l 1,39,-1
 964 289 l 1,40,-1
 899 0 l 1,41,-1
 -23 0 l 1,0,-1
EndSplineSet
Validated: 1
EndChar

StartChar: f
Encoding: 102 102 73
Width: 969
GlyphClass: 2
Flags: W
LayerCount: 2
Fore
SplineSet
-23 0 m 1,0,-1
 -23 85 l 1,1,-1
 83 93 l 2,2,3
 120 96 120 96 129 118 c 1,4,-1
 321 1004 l 2,5,6
 323 1014 323 1014 315.5 1020 c 128,-1,7
 308 1026 308 1026 284 1027 c 2,8,-1
 181 1035 l 1,9,-1
 181 1120 l 1,10,-1
 1057 1120 l 1,11,-1
 997 839 l 1,12,-1
 880 839 l 1,13,-1
 880 999 l 2,14,15
 880 1013 880 1013 872.5 1018 c 128,-1,16
 865 1023 865 1023 844 1023 c 2,17,-1
 512 1023 l 1,18,-1
 512 1029 l 1,19,-1
 424 615 l 1,20,-1
 659 615 l 2,21,22
 679 615 679 615 689 620.5 c 128,-1,23
 699 626 699 626 703 640 c 2,24,-1
 740 758 l 1,25,-1
 845 758 l 1,26,-1
 761 367 l 1,27,-1
 656 367 l 1,28,-1
 675 491 l 1,29,30
 678 503 678 503 667.5 509 c 128,-1,31
 657 515 657 515 638 515 c 2,32,-1
 404 515 l 1,33,-1
 404 522 l 1,34,35
 381 419 381 419 359 318 c 128,-1,36
 337 217 337 217 316 115 c 0,37,38
 314 107 314 107 321 101 c 128,-1,39
 328 95 328 95 351 93 c 2,40,-1
 470 85 l 1,41,-1
 470 0 l 1,42,-1
 -23 0 l 1,0,-1
EndSplineSet
Validated: 1
EndChar

StartChar: g
Encoding: 103 103 74
Width: 1296
GlyphClass: 2
Flags: W
LayerCount: 2
Fore
SplineSet
95 449 m 0,0,1
 95 555 95 555 126.5 648.5 c 128,-1,2
 158 742 158 742 213.5 819.5 c 128,-1,3
 269 897 269 897 344.5 958 c 128,-1,4
 420 1019 420 1019 508.5 1061 c 128,-1,5
 597 1103 597 1103 694.5 1125 c 128,-1,6
 792 1147 792 1147 891 1147 c 0,7,8
 936 1147 936 1147 975 1143.5 c 128,-1,9
 1014 1140 1014 1140 1054 1133.5 c 128,-1,10
 1094 1127 1094 1127 1138 1116 c 128,-1,11
 1182 1105 1182 1105 1236 1090 c 1,12,-1
 1176 810 l 1,13,-1
 1052 810 l 1,14,-1
 1057 969 l 2,15,16
 1058 984 1058 984 1049 993.5 c 128,-1,17
 1040 1003 1040 1003 1026 1006 c 1,18,-1
 1017 1010 l 2,19,20
 1003 1016 1003 1016 966 1028.5 c 128,-1,21
 929 1041 929 1041 868 1041 c 0,22,23
 764 1041 764 1041 662.5 997 c 128,-1,24
 561 953 561 953 480 872.5 c 128,-1,25
 399 792 399 792 349 678 c 128,-1,26
 299 564 299 564 299 423 c 0,27,28
 299 358 299 358 316 307 c 128,-1,29
 333 256 333 256 362 217.5 c 128,-1,30
 391 179 391 179 428 152.5 c 128,-1,31
 465 126 465 126 504.5 109 c 128,-1,32
 544 92 544 92 584 84.5 c 128,-1,33
 624 77 624 77 657 77 c 0,34,35
 684 77 684 77 712.5 80.5 c 128,-1,36
 741 84 741 84 766.5 88.5 c 128,-1,37
 792 93 792 93 812.5 97.5 c 128,-1,38
 833 102 833 102 844 105 c 1,39,-1
 844 99 l 1,40,41
 861 184 861 184 879.5 266.5 c 128,-1,42
 898 349 898 349 915 434 c 0,43,44
 917 443 917 443 909 448.5 c 128,-1,45
 901 454 901 454 879 456 c 2,46,-1
 776 465 l 1,47,-1
 776 549 l 1,48,-1
 1253 549 l 1,49,-1
 1253 465 l 1,50,-1
 1148 456 l 2,51,52
 1129 454 1129 454 1117 449 c 128,-1,53
 1105 444 1105 444 1101 430 c 1,54,55
 1081 334 1081 334 1059 234.5 c 128,-1,56
 1037 135 1037 135 1017 38 c 1,57,58
 1019 38 1019 38 1011 36 c 2,59,-1
 995 32 l 2,60,61
 968 26 968 26 924.5 16 c 128,-1,62
 881 6 881 6 830 -3 c 128,-1,63
 779 -12 779 -12 724 -19 c 128,-1,64
 669 -26 669 -26 620 -26 c 0,65,66
 515 -26 515 -26 435 -4 c 128,-1,67
 355 18 355 18 296.5 55.5 c 128,-1,68
 238 93 238 93 199.5 141.5 c 128,-1,69
 161 190 161 190 137.5 243 c 128,-1,70
 114 296 114 296 104.5 349 c 128,-1,71
 95 402 95 402 95 449 c 0,0,1
EndSplineSet
Validated: 1
EndChar

StartChar: h
Encoding: 104 104 75
Width: 1366
GlyphClass: 2
Flags: W
LayerCount: 2
Fore
SplineSet
-21 0 m 1,0,-1
 -21 85 l 1,1,-1
 85 93 l 2,2,3
 122 96 122 96 131 118 c 1,4,-1
 323 1004 l 2,5,6
 325 1014 325 1014 317 1020 c 128,-1,7
 309 1026 309 1026 286 1027 c 2,8,-1
 183 1035 l 1,9,-1
 183 1120 l 1,10,-1
 662 1120 l 1,11,-1
 662 1035 l 1,12,-1
 554 1027 l 2,13,14
 537 1026 537 1026 524.5 1020 c 128,-1,15
 512 1014 512 1014 510 1000 c 1,16,-1
 431 635 l 1,17,-1
 1005 635 l 1,18,-1
 1005 628 l 1,19,-1
 1086 1004 l 2,20,21
 1088 1014 1088 1014 1080 1020 c 128,-1,22
 1072 1026 1072 1026 1049 1027 c 2,23,-1
 943 1035 l 1,24,-1
 943 1120 l 1,25,-1
 1423 1120 l 1,26,-1
 1423 1035 l 1,27,-1
 1317 1027 l 2,28,29
 1281 1025 1281 1025 1272 1000 c 1,30,-1
 1080 115 l 2,31,32
 1078 106 1078 106 1086 100.5 c 128,-1,33
 1094 95 1094 95 1117 93 c 2,34,-1
 1221 85 l 1,35,-1
 1221 0 l 1,36,-1
 739 0 l 1,37,-1
 739 85 l 1,38,-1
 849 93 l 2,39,40
 866 95 866 95 878.5 101 c 128,-1,41
 891 107 891 107 893 118 c 2,42,-1
 983 537 l 1,43,-1
 409 537 l 1,44,-1
 409 544 l 1,45,-1
 317 115 l 2,46,47
 315 107 315 107 322.5 101 c 128,-1,48
 330 95 330 95 352 93 c 2,49,-1
 460 85 l 1,50,-1
 460 0 l 1,51,-1
 -21 0 l 1,0,-1
EndSplineSet
Validated: 1
EndChar

StartChar: i
Encoding: 105 105 76
Width: 592
GlyphClass: 2
Flags: W
LayerCount: 2
Fore
SplineSet
-25 0 m 1,0,-1
 -25 85 l 1,1,-1
 92 93 l 2,2,3
 109 95 109 95 117 100.5 c 128,-1,4
 125 106 125 106 127 118 c 2,5,-1
 319 1004 l 2,6,7
 321 1014 321 1014 313.5 1020 c 128,-1,8
 306 1026 306 1026 283 1027 c 2,9,-1
 181 1035 l 1,10,-1
 181 1120 l 1,11,-1
 661 1120 l 1,12,-1
 661 1035 l 1,13,-1
 543 1027 l 2,14,15
 524 1025 524 1025 516.5 1018 c 128,-1,16
 509 1011 509 1011 505 1000 c 1,17,-1
 314 115 l 2,18,19
 312 106 312 106 319.5 100.5 c 128,-1,20
 327 95 327 95 351 93 c 2,21,-1
 457 85 l 1,22,-1
 457 0 l 1,23,-1
 -25 0 l 1,0,-1
EndSplineSet
Validated: 1
EndChar

StartChar: j
Encoding: 106 106 77
Width: 881
GlyphClass: 2
Flags: W
LayerCount: 2
Fore
SplineSet
-34 25 m 1,0,-1
 30 321 l 1,1,-1
 151 321 l 1,2,-1
 151 112 l 2,3,4
 151 95 151 95 173 85 c 128,-1,5
 195 75 195 75 224 75 c 0,6,7
 284 75 284 75 325 98 c 128,-1,8
 366 121 366 121 395.5 164.5 c 128,-1,9
 425 208 425 208 444.5 271.5 c 128,-1,10
 464 335 464 335 480 417 c 1,11,-1
 604 1004 l 2,12,13
 605 1013 605 1013 597 1019.5 c 128,-1,14
 589 1026 589 1026 569 1027 c 2,15,-1
 461 1035 l 1,16,-1
 461 1120 l 1,17,-1
 940 1120 l 1,18,-1
 940 1035 l 1,19,-1
 836 1027 l 2,20,21
 797 1025 797 1025 789 1000 c 1,22,23
 760 857 760 857 730 714 c 128,-1,24
 700 571 700 571 671 427 c 1,25,26
 650 328 650 328 619 245 c 128,-1,27
 588 162 588 162 535.5 102 c 128,-1,28
 483 42 483 42 404.5 8 c 128,-1,29
 326 -26 326 -26 211 -26 c 0,30,31
 157 -26 157 -26 115 -19.5 c 128,-1,32
 73 -13 73 -13 42 -4 c 128,-1,33
 11 5 11 5 -8 13.5 c 128,-1,34
 -27 22 -27 22 -34 25 c 1,0,-1
EndSplineSet
Validated: 1
EndChar

StartChar: k
Encoding: 107 107 78
Width: 1236
GlyphClass: 2
Flags: W
LayerCount: 2
Fore
SplineSet
-23 0 m 1,0,-1
 -23 85 l 1,1,-1
 84 93 l 2,2,3
 124 96 124 96 128 118 c 2,4,-1
 322 1004 l 2,5,6
 324 1013 324 1013 316 1019.5 c 128,-1,7
 308 1026 308 1026 287 1027 c 2,8,-1
 184 1035 l 1,9,-1
 184 1120 l 1,10,-1
 663 1120 l 1,11,-1
 663 1035 l 1,12,-1
 555 1027 l 2,13,14
 537 1026 537 1026 525 1019.5 c 128,-1,15
 513 1013 513 1013 509 1000 c 1,16,17
 486 895 486 895 462.5 790 c 128,-1,18
 439 685 439 685 417 579 c 1,19,-1
 445 579 l 1,20,-1
 445 576 l 1,21,-1
 937 1008 l 2,22,23
 944 1013 944 1013 941 1019.5 c 128,-1,24
 938 1026 938 1026 925 1027 c 2,25,-1
 806 1035 l 1,26,-1
 806 1120 l 1,27,-1
 1284 1120 l 1,28,-1
 1284 1035 l 1,29,-1
 1129 1023 l 1,30,-1
 1129 1025 l 1,31,-1
 650 612 l 1,32,33
 712 503 712 503 775.5 393.5 c 128,-1,34
 839 284 839 284 902 175 c 0,35,36
 918 146 918 146 934 128 c 128,-1,37
 950 110 950 110 967 99.5 c 128,-1,38
 984 89 984 89 1003.5 85.5 c 128,-1,39
 1023 82 1023 82 1048 82 c 0,40,41
 1062 82 1062 82 1078 82.5 c 128,-1,42
 1094 83 1094 83 1113 84 c 0,43,44
 1116 84 1116 84 1119 84.5 c 128,-1,45
 1122 85 1122 85 1125 85 c 1,46,-1
 1125 0 l 1,47,48
 1082 -11 1082 -11 1035 -18.5 c 128,-1,49
 988 -26 988 -26 952 -26 c 0,50,51
 912 -26 912 -26 882 -20 c 128,-1,52
 852 -14 852 -14 827 0 c 128,-1,53
 802 14 802 14 781 38.5 c 128,-1,54
 760 63 760 63 738 100 c 2,55,-1
 511 490 l 1,56,-1
 511 485 l 1,57,-1
 397 485 l 1,58,-1
 397 492 l 1,59,60
 377 398 377 398 356 303.5 c 128,-1,61
 335 209 335 209 315 115 c 0,62,63
 313 107 313 107 320.5 101 c 128,-1,64
 328 95 328 95 351 93 c 2,65,-1
 459 85 l 1,66,-1
 459 0 l 1,67,-1
 -23 0 l 1,0,-1
EndSplineSet
Validated: 1
EndChar

StartChar: l
Encoding: 108 108 79
Width: 976
GlyphClass: 2
Flags: W
LayerCount: 2
Fore
SplineSet
-24 0 m 1,0,-1
 -24 85 l 1,1,-1
 84 93 l 2,2,3
 124 96 124 96 128 118 c 2,4,-1
 320 1004 l 2,5,6
 322 1014 322 1014 315 1020 c 128,-1,7
 308 1026 308 1026 285 1027 c 2,8,-1
 182 1035 l 1,9,-1
 182 1120 l 1,10,-1
 661 1120 l 1,11,-1
 661 1035 l 1,12,-1
 553 1027 l 2,13,14
 531 1026 531 1026 520 1018.5 c 128,-1,15
 509 1011 509 1011 507 1000 c 2,16,-1
 313 98 l 1,17,-1
 674 98 l 2,18,19
 693 98 693 98 704.5 105.5 c 128,-1,20
 716 113 716 113 721 126 c 1,21,-1
 721 125 l 1,22,-1
 788 321 l 1,23,-1
 898 321 l 1,24,-1
 828 0 l 1,25,-1
 -24 0 l 1,0,-1
EndSplineSet
Validated: 1
EndChar

StartChar: m
Encoding: 109 109 80
Width: 1624
GlyphClass: 2
Flags: W
LayerCount: 2
Fore
SplineSet
-17 0 m 1,0,-1
 -17 85 l 1,1,-1
 87 93 l 2,2,3
 126 96 126 96 133 118 c 1,4,-1
 324 1004 l 2,5,6
 326 1013 326 1013 317.5 1019.5 c 128,-1,7
 309 1026 309 1026 287 1027 c 2,8,-1
 184 1035 l 1,9,-1
 184 1120 l 1,10,-1
 597 1120 l 1,11,-1
 597 1068 l 1,12,13
 636 870 636 870 677 669.5 c 128,-1,14
 718 469 718 469 756 271 c 1,15,-1
 756 274 l 1,16,-1
 1249 1063 l 1,17,-1
 1249 1120 l 1,18,-1
 1675 1120 l 1,19,-1
 1675 1035 l 1,20,-1
 1571 1027 l 2,21,22
 1532 1025 1532 1025 1524 1000 c 1,23,-1
 1334 115 l 2,24,25
 1332 107 1332 107 1340 101 c 128,-1,26
 1348 95 1348 95 1371 93 c 2,27,-1
 1475 85 l 1,28,-1
 1475 0 l 1,29,-1
 995 0 l 1,30,-1
 995 85 l 1,31,-1
 1103 93 l 2,32,33
 1120 95 1120 95 1133 101 c 128,-1,34
 1146 107 1146 107 1148 118 c 2,35,-1
 1325 945 l 1,36,-1
 731 0 l 1,37,-1
 624 0 l 1,38,-1
 439 941 l 1,39,40
 397 738 397 738 353 527.5 c 128,-1,41
 309 317 309 317 267 115 c 0,42,43
 265 107 265 107 272.5 101 c 128,-1,44
 280 95 280 95 303 93 c 2,45,-1
 405 85 l 1,46,-1
 405 0 l 1,47,-1
 -17 0 l 1,0,-1
EndSplineSet
Validated: 1
EndChar

StartChar: n
Encoding: 110 110 81
Width: 1340
GlyphClass: 2
Flags: W
LayerCount: 2
Fore
SplineSet
-19 0 m 1,0,-1
 -19 85 l 1,1,-1
 86 93 l 2,2,3
 104 95 104 95 116 101 c 128,-1,4
 128 107 128 107 132 118 c 1,5,-1
 323 1004 l 2,6,7
 325 1013 325 1013 317 1019.5 c 128,-1,8
 309 1026 309 1026 287 1027 c 2,9,-1
 185 1035 l 1,10,-1
 185 1120 l 1,11,-1
 541 1120 l 1,12,-1
 541 1073 l 1,13,-1
 957 288 l 1,14,-1
 957 286 l 1,15,-1
 1113 1004 l 2,16,17
 1115 1014 1115 1014 1108 1020 c 128,-1,18
 1101 1026 1101 1026 1078 1027 c 2,19,-1
 972 1035 l 1,20,-1
 972 1120 l 1,21,-1
 1401 1120 l 1,22,-1
 1401 1035 l 1,23,-1
 1296 1027 l 2,24,25
 1258 1025 1258 1025 1249 1000 c 1,26,-1
 1030 0 l 1,27,-1
 902 0 l 1,28,-1
 433 878 l 1,29,-1
 433 880 l 1,30,-1
 270 115 l 2,31,32
 268 106 268 106 275.5 100.5 c 128,-1,33
 283 95 283 95 306 93 c 2,34,-1
 409 85 l 1,35,-1
 409 0 l 1,36,-1
 -19 0 l 1,0,-1
EndSplineSet
Validated: 1
EndChar

StartChar: o
Encoding: 111 111 82
Width: 1338
GlyphClass: 2
Flags: W
LayerCount: 2
Fore
SplineSet
96 440 m 0,0,1
 96 529 96 529 118.5 616 c 128,-1,2
 141 703 141 703 183.5 782 c 128,-1,3
 226 861 226 861 286.5 927.5 c 128,-1,4
 347 994 347 994 423.5 1043 c 128,-1,5
 500 1092 500 1092 590.5 1119.5 c 128,-1,6
 681 1147 681 1147 782 1147 c 0,7,8
 897 1147 897 1147 989.5 1111.5 c 128,-1,9
 1082 1076 1082 1076 1147 1014.5 c 128,-1,10
 1212 953 1212 953 1247 871 c 128,-1,11
 1282 789 1282 789 1282 695 c 0,12,13
 1282 607 1282 607 1261.5 519.5 c 128,-1,14
 1241 432 1241 432 1201 352 c 128,-1,15
 1161 272 1161 272 1102.5 203 c 128,-1,16
 1044 134 1044 134 968 83 c 128,-1,17
 892 32 892 32 799 3 c 128,-1,18
 706 -26 706 -26 597 -26 c 0,19,20
 487 -26 487 -26 395 7 c 128,-1,21
 303 40 303 40 236.5 101 c 128,-1,22
 170 162 170 162 133 248 c 128,-1,23
 96 334 96 334 96 440 c 0,0,1
305 426 m 0,24,25
 305 345 305 345 328.5 280 c 128,-1,26
 352 215 352 215 393.5 169.5 c 128,-1,27
 435 124 435 124 490.5 99.5 c 128,-1,28
 546 75 546 75 611 75 c 0,29,30
 678 75 678 75 738.5 101.5 c 128,-1,31
 799 128 799 128 850.5 174 c 128,-1,32
 902 220 902 220 943 281 c 128,-1,33
 984 342 984 342 1013 411 c 128,-1,34
 1042 480 1042 480 1057.5 553 c 128,-1,35
 1073 626 1073 626 1073 695 c 0,36,37
 1073 775 1073 775 1050 840.5 c 128,-1,38
 1027 906 1027 906 986 952.5 c 128,-1,39
 945 999 945 999 888.5 1024 c 128,-1,40
 832 1049 832 1049 766 1049 c 0,41,42
 699 1049 699 1049 638.5 1023 c 128,-1,43
 578 997 578 997 527 951.5 c 128,-1,44
 476 906 476 906 435 845 c 128,-1,45
 394 784 394 784 365 715 c 128,-1,46
 336 646 336 646 320.5 572 c 128,-1,47
 305 498 305 498 305 426 c 0,24,25
EndSplineSet
Validated: 1
EndChar

StartChar: p
Encoding: 112 112 83
Width: 1066
GlyphClass: 2
Flags: W
LayerCount: 2
Fore
SplineSet
-27 0 m 1,0,-1
 -27 85 l 1,1,-1
 81 93 l 2,2,3
 98 95 98 95 109.5 101 c 128,-1,4
 121 107 121 107 125 118 c 1,5,6
 173 338 173 338 222 561 c 128,-1,7
 271 784 271 784 319 1004 c 0,8,9
 321 1013 321 1013 313 1019.5 c 128,-1,10
 305 1026 305 1026 282 1027 c 2,11,-1
 179 1035 l 1,12,-1
 179 1120 l 1,13,-1
 638 1120 l 2,14,15
 752 1120 752 1120 832 1100 c 128,-1,16
 912 1080 912 1080 962.5 1044 c 128,-1,17
 1013 1008 1013 1008 1036 958.5 c 128,-1,18
 1059 909 1059 909 1059 850 c 0,19,20
 1059 749 1059 749 1016.5 668 c 128,-1,21
 974 587 974 587 899 530 c 128,-1,22
 824 473 824 473 721 442.5 c 128,-1,23
 618 412 618 412 497 412 c 2,24,-1
 463 412 l 2,25,26
 444 412 444 412 425 413 c 0,27,28
 403 414 403 414 380 415 c 1,29,-1
 380 421 l 1,30,-1
 312 115 l 2,31,32
 310 106 310 106 317.5 100.5 c 128,-1,33
 325 95 325 95 349 93 c 2,34,-1
 454 85 l 1,35,-1
 454 0 l 1,36,-1
 -27 0 l 1,0,-1
398 517 m 1,37,38
 428 514 428 514 458 514 c 0,39,40
 525 514 525 514 589 527 c 128,-1,41
 653 540 653 540 705 568 c 0,42,43
 740 587 740 587 770 611.5 c 128,-1,44
 800 636 800 636 821.5 667.5 c 128,-1,45
 843 699 843 699 855.5 737.5 c 128,-1,46
 868 776 868 776 868 822 c 0,47,48
 868 867 868 867 853 905 c 128,-1,49
 838 943 838 943 804 970 c 128,-1,50
 770 997 770 997 715 1012 c 128,-1,51
 660 1027 660 1027 581 1027 c 0,52,53
 564 1027 564 1027 544.5 1026.5 c 128,-1,54
 525 1026 525 1026 511 1024 c 1,55,-1
 511 1031 l 1,56,-1
 398 517 l 1,37,38
EndSplineSet
Validated: 1
EndChar

StartChar: q
Encoding: 113 113 84
Width: 1338
GlyphClass: 2
Flags: W
LayerCount: 2
Fore
SplineSet
92 434 m 0,0,1
 92 520 92 520 115 606.5 c 128,-1,2
 138 693 138 693 180.5 772 c 128,-1,3
 223 851 223 851 284.5 919.5 c 128,-1,4
 346 988 346 988 423 1038.5 c 128,-1,5
 500 1089 500 1089 591.5 1118 c 128,-1,6
 683 1147 683 1147 785 1147 c 0,7,8
 898 1147 898 1147 989.5 1112.5 c 128,-1,9
 1081 1078 1081 1078 1146 1017.5 c 128,-1,10
 1211 957 1211 957 1246.5 874.5 c 128,-1,11
 1282 792 1282 792 1282 696 c 0,12,13
 1282 651 1282 651 1276 597 c 128,-1,14
 1270 543 1270 543 1253.5 484 c 128,-1,15
 1237 425 1237 425 1209 364 c 128,-1,16
 1181 303 1181 303 1136.5 245 c 128,-1,17
 1092 187 1092 187 1029.5 133.5 c 128,-1,18
 967 80 967 80 883 36 c 1,19,20
 910 -8 910 -8 934.5 -43 c 128,-1,21
 959 -78 959 -78 986.5 -102 c 128,-1,22
 1014 -126 1014 -126 1048 -139 c 128,-1,23
 1082 -152 1082 -152 1128 -152 c 0,24,25
 1156 -152 1156 -152 1184.5 -147 c 128,-1,26
 1213 -142 1213 -142 1240.5 -134 c 128,-1,27
 1268 -126 1268 -126 1293.5 -116.5 c 128,-1,28
 1319 -107 1319 -107 1340 -98 c 1,29,-1
 1340 -182 l 1,30,31
 1330 -187 1330 -187 1298 -200 c 128,-1,32
 1266 -213 1266 -213 1222 -227 c 128,-1,33
 1178 -241 1178 -241 1127.5 -252 c 128,-1,34
 1077 -263 1077 -263 1029 -263 c 0,35,36
 958 -263 958 -263 905.5 -244 c 128,-1,37
 853 -225 853 -225 812.5 -192 c 128,-1,38
 772 -159 772 -159 741.5 -114 c 128,-1,39
 711 -69 711 -69 685 -16 c 1,40,-1
 685 -20 l 1,41,-1
 652 -22 l 1,42,43
 638 -24 638 -24 622 -25 c 128,-1,44
 606 -26 606 -26 592 -26 c 0,45,46
 490 -26 490 -26 399.5 5 c 128,-1,47
 309 36 309 36 240.5 94.5 c 128,-1,48
 172 153 172 153 132 238.5 c 128,-1,49
 92 324 92 324 92 434 c 0,0,1
299 426 m 0,50,51
 299 351 299 351 320.5 287 c 128,-1,52
 342 223 342 223 382.5 176.5 c 128,-1,53
 423 130 423 130 480.5 103.5 c 128,-1,54
 538 77 538 77 610 77 c 0,55,56
 676 77 676 77 736 103.5 c 128,-1,57
 796 130 796 130 847.5 175 c 128,-1,58
 899 220 899 220 940.5 280.5 c 128,-1,59
 982 341 982 341 1011.5 410 c 128,-1,60
 1041 479 1041 479 1057 552.5 c 128,-1,61
 1073 626 1073 626 1073 696 c 0,62,63
 1073 772 1073 772 1051.5 836.5 c 128,-1,64
 1030 901 1030 901 991 947.5 c 128,-1,65
 952 994 952 994 897 1020.5 c 128,-1,66
 842 1047 842 1047 776 1047 c 0,67,68
 707 1047 707 1047 645 1022 c 128,-1,69
 583 997 583 997 530 953.5 c 128,-1,70
 477 910 477 910 434 850.5 c 128,-1,71
 391 791 391 791 361 722 c 128,-1,72
 331 653 331 653 315 577.5 c 128,-1,73
 299 502 299 502 299 426 c 0,50,51
EndSplineSet
Validated: 1
EndChar

StartChar: r
Encoding: 114 114 85
Width: 1208
GlyphClass: 2
Flags: W
LayerCount: 2
Fore
SplineSet
-18 0 m 1,0,-1
 -18 85 l 1,1,-1
 86 93 l 2,2,3
 125 96 125 96 132 118 c 1,4,5
 179 338 179 338 227 561 c 128,-1,6
 275 784 275 784 321 1004 c 0,7,8
 323 1013 323 1013 315 1019.5 c 128,-1,9
 307 1026 307 1026 286 1027 c 2,10,-1
 183 1035 l 1,11,-1
 183 1120 l 1,12,-1
 677 1120 l 2,13,14
 754 1120 754 1120 826.5 1108.5 c 128,-1,15
 899 1097 899 1097 955 1068 c 128,-1,16
 1011 1039 1011 1039 1044.5 990.5 c 128,-1,17
 1078 942 1078 942 1078 869 c 0,18,19
 1078 802 1078 802 1050.5 748 c 128,-1,20
 1023 694 1023 694 975 651.5 c 128,-1,21
 927 609 927 609 862.5 578 c 128,-1,22
 798 547 798 547 724 527 c 1,23,24
 769 507 769 507 797.5 481.5 c 128,-1,25
 826 456 826 456 845 425 c 128,-1,26
 864 394 864 394 876 358 c 128,-1,27
 888 322 888 322 899 282 c 2,28,-1
 904 263 l 1,29,30
 917 220 917 220 934 187 c 128,-1,31
 951 154 951 154 977.5 131 c 128,-1,32
 1004 108 1004 108 1043.5 96 c 128,-1,33
 1083 84 1083 84 1142 84 c 1,34,-1
 1142 1 l 1,35,36
 1102 -15 1102 -15 1070 -20.5 c 128,-1,37
 1038 -26 1038 -26 1006 -26 c 0,38,39
 924 -26 924 -26 874 -1 c 128,-1,40
 824 24 824 24 794 63 c 128,-1,41
 764 102 764 102 749.5 150 c 128,-1,42
 735 198 735 198 724 245 c 0,43,44
 713 289 713 289 700.5 332 c 128,-1,45
 688 375 688 375 664 409.5 c 128,-1,46
 640 444 640 444 600 465.5 c 128,-1,47
 560 487 560 487 495 487 c 0,48,49
 483 487 483 487 466.5 486.5 c 128,-1,50
 450 486 450 486 435 486 c 0,51,52
 417 485 417 485 398 485 c 1,53,-1
 398 492 l 1,54,-1
 319 115 l 2,55,56
 317 107 317 107 324.5 101 c 128,-1,57
 332 95 332 95 354 93 c 2,58,-1
 462 85 l 1,59,-1
 462 0 l 1,60,-1
 -18 0 l 1,0,-1
421 587 m 1,61,-1
 460 587 l 2,62,63
 535 587 535 587 608.5 599 c 128,-1,64
 682 611 682 611 739.5 640.5 c 128,-1,65
 797 670 797 670 833 719.5 c 128,-1,66
 869 769 869 769 869 845 c 0,67,68
 869 899 869 899 843.5 933.5 c 128,-1,69
 818 968 818 968 776.5 988 c 128,-1,70
 735 1008 735 1008 683.5 1015.5 c 128,-1,71
 632 1023 632 1023 581 1023 c 2,72,-1
 554 1023 l 2,73,74
 550 1023 550 1023 545 1022.5 c 128,-1,75
 540 1022 540 1022 535 1022 c 0,76,77
 530 1021 530 1021 523 1021 c 2,78,-1
 513 1021 l 1,79,-1
 513 1027 l 1,80,81
 490 914 490 914 467 807 c 128,-1,82
 444 700 444 700 421 587 c 1,61,-1
EndSplineSet
Validated: 1
EndChar

StartChar: s
Encoding: 115 115 86
Width: 982
GlyphClass: 2
Flags: W
LayerCount: 2
Fore
SplineSet
-6 61 m 1,0,-1
 60 340 l 1,1,-1
 185 340 l 1,2,-1
 164 142 l 2,3,4
 164 133 164 133 178.5 125 c 128,-1,5
 193 117 193 117 214.5 109.5 c 128,-1,6
 236 102 236 102 261.5 95.5 c 128,-1,7
 287 89 287 89 310.5 84.5 c 128,-1,8
 334 80 334 80 352 77.5 c 128,-1,9
 370 75 370 75 376 75 c 0,10,11
 436 75 436 75 490 91 c 128,-1,12
 544 107 544 107 585 137 c 128,-1,13
 626 167 626 167 650 210 c 128,-1,14
 674 253 674 253 674 307 c 0,15,16
 674 340 674 340 652 368 c 128,-1,17
 630 396 630 396 596.5 420 c 128,-1,18
 563 444 563 444 523.5 464 c 128,-1,19
 484 484 484 484 450 499 c 2,20,-1
 415 514 l 2,21,22
 366 536 366 536 320 561 c 128,-1,23
 274 586 274 586 238.5 617 c 128,-1,24
 203 648 203 648 181.5 687 c 128,-1,25
 160 726 160 726 160 778 c 0,26,27
 160 862 160 862 196 930 c 128,-1,28
 232 998 232 998 296.5 1046.5 c 128,-1,29
 361 1095 361 1095 448.5 1121 c 128,-1,30
 536 1147 536 1147 640 1147 c 0,31,32
 702 1147 702 1147 755 1139 c 128,-1,33
 808 1131 808 1131 849.5 1120.5 c 128,-1,34
 891 1110 891 1110 918 1100 c 128,-1,35
 945 1090 945 1090 954 1086 c 1,36,-1
 891 820 l 1,37,-1
 784 820 l 1,38,-1
 791 994 l 2,39,40
 791 1001 791 1001 777.5 1010.5 c 128,-1,41
 764 1020 764 1020 741.5 1029 c 128,-1,42
 719 1038 719 1038 688.5 1044 c 128,-1,43
 658 1050 658 1050 625 1050 c 0,44,45
 572 1050 572 1050 522 1033.5 c 128,-1,46
 472 1017 472 1017 433.5 988 c 128,-1,47
 395 959 395 959 372 919 c 128,-1,48
 349 879 349 879 349 832 c 0,49,50
 349 795 349 795 371.5 765.5 c 128,-1,51
 394 736 394 736 428 712 c 128,-1,52
 462 688 462 688 502.5 669 c 128,-1,53
 543 650 543 650 580 635 c 2,54,-1
 609 623 l 1,55,56
 658 600 658 600 704.5 575 c 128,-1,57
 751 550 751 550 787 517.5 c 128,-1,58
 823 485 823 485 845 443 c 128,-1,59
 867 401 867 401 867 345 c 0,60,61
 867 305 867 305 855 261.5 c 128,-1,62
 843 218 843 218 817 177 c 128,-1,63
 791 136 791 136 750.5 99 c 128,-1,64
 710 62 710 62 653 34.5 c 128,-1,65
 596 7 596 7 521 -9.5 c 128,-1,66
 446 -26 446 -26 352 -26 c 0,67,68
 281 -26 281 -26 220 -14 c 128,-1,69
 159 -2 159 -2 112 13 c 128,-1,70
 65 28 65 28 34.5 42 c 128,-1,71
 4 56 4 56 -6 61 c 1,0,-1
EndSplineSet
Validated: 1
EndChar

StartChar: t
Encoding: 116 116 87
Width: 1104
GlyphClass: 2
Flags: W
LayerCount: 2
Fore
SplineSet
127 853 m 1,0,-1
 184 1120 l 1,1,-1
 1207 1120 l 1,2,-1
 1146 853 l 1,3,-1
 1032 853 l 1,4,-1
 1040 1005 l 2,5,6
 1041 1031 1041 1031 1004 1031 c 2,7,-1
 766 1031 l 1,8,-1
 766 1036 l 1,9,-1
 574 115 l 2,10,11
 572 106 572 106 580 100.5 c 128,-1,12
 588 95 588 95 611 93 c 2,13,-1
 716 85 l 1,14,-1
 716 0 l 1,15,-1
 236 0 l 1,16,-1
 236 85 l 1,17,-1
 343 93 l 2,18,19
 360 95 360 95 372.5 101 c 128,-1,20
 385 107 385 107 387 118 c 2,21,-1
 578 1031 l 1,22,-1
 349 1031 l 2,23,24
 312 1031 312 1031 303 1003 c 1,25,-1
 243 853 l 1,26,-1
 127 853 l 1,0,-1
EndSplineSet
Validated: 1
EndChar

StartChar: u
Encoding: 117 117 88
Width: 1332
GlyphClass: 2
Flags: W
LayerCount: 2
Fore
SplineSet
178 270 m 0,0,1
 178 295 178 295 184 341 c 128,-1,2
 190 387 190 387 201 444 c 1,3,-1
 330 1004 l 2,4,5
 332 1014 332 1014 325 1020 c 128,-1,6
 318 1026 318 1026 293 1027 c 2,7,-1
 191 1035 l 1,8,-1
 191 1120 l 1,9,-1
 671 1120 l 1,10,-1
 671 1035 l 1,11,-1
 561 1027 l 2,12,13
 544 1026 544 1026 531.5 1020 c 128,-1,14
 519 1014 519 1014 517 1000 c 1,15,-1
 390 441 l 2,16,17
 380 396 380 396 375 356 c 128,-1,18
 370 316 370 316 370 296 c 0,19,20
 370 246 370 246 388.5 208.5 c 128,-1,21
 407 171 407 171 440.5 146.5 c 128,-1,22
 474 122 474 122 522 109.5 c 128,-1,23
 570 97 570 97 630 97 c 0,24,25
 721 97 721 97 782.5 123 c 128,-1,26
 844 149 844 149 884 193.5 c 128,-1,27
 924 238 924 238 947 296.5 c 128,-1,28
 970 355 970 355 984 420 c 2,29,-1
 1114 1004 l 2,30,31
 1116 1013 1116 1013 1108 1019.5 c 128,-1,32
 1100 1026 1100 1026 1077 1027 c 2,33,-1
 973 1035 l 1,34,-1
 973 1120 l 1,35,-1
 1391 1120 l 1,36,-1
 1391 1035 l 1,37,-1
 1283 1027 l 2,38,39
 1266 1026 1266 1026 1253.5 1020 c 128,-1,40
 1241 1014 1241 1014 1239 1000 c 1,41,-1
 1098 358 l 1,42,43
 1076 273 1076 273 1032.5 202.5 c 128,-1,44
 989 132 989 132 924 81 c 128,-1,45
 859 30 859 30 773.5 2 c 128,-1,46
 688 -26 688 -26 582 -26 c 0,47,48
 497 -26 497 -26 423 -10 c 128,-1,49
 349 6 349 6 294.5 41.5 c 128,-1,50
 240 77 240 77 209 133.5 c 128,-1,51
 178 190 178 190 178 270 c 0,0,1
EndSplineSet
Validated: 1
EndChar

StartChar: v
Encoding: 118 118 89
Width: 1212
GlyphClass: 2
Flags: W
LayerCount: 2
Fore
SplineSet
161 1035 m 1,0,-1
 161 1120 l 1,1,-1
 581 1120 l 1,2,-1
 581 1035 l 1,3,-1
 500 1032 l 2,4,5
 464 1030 464 1030 464 1009 c 1,6,-1
 602 212 l 1,7,-1
 602 215 l 1,8,-1
 1072 1011 l 1,9,-1
 1072 1010 l 1,10,11
 1077 1019 1077 1019 1072 1025 c 128,-1,12
 1067 1031 1067 1031 1043 1032 c 2,13,-1
 953 1035 l 1,14,-1
 953 1120 l 1,15,-1
 1329 1120 l 1,16,-1
 1329 1035 l 1,17,-1
 1232 1026 l 1,18,-1
 1232 1030 l 1,19,20
 1072 765 1072 765 912 501.5 c 128,-1,21
 752 238 752 238 592 -26 c 1,22,-1
 455 -26 l 1,23,-1
 275 1005 l 2,24,25
 271 1030 271 1030 231 1032 c 2,26,-1
 161 1035 l 1,0,-1
EndSplineSet
Validated: 1
EndChar

StartChar: w
Encoding: 119 119 90
Width: 1746
GlyphClass: 2
Flags: W
LayerCount: 2
Fore
SplineSet
164 1035 m 1,0,-1
 164 1120 l 1,1,-1
 590 1120 l 1,2,-1
 590 1035 l 1,3,-1
 509 1032 l 2,4,5
 489 1031 489 1031 481 1024.5 c 128,-1,6
 473 1018 473 1018 472 1008 c 1,7,-1
 536 294 l 1,8,-1
 536 296 l 1,9,-1
 973 1120 l 1,10,-1
 1120 1120 l 1,11,-1
 1213 282 l 1,12,-1
 1213 285 l 1,13,14
 1308 467 1308 467 1401.5 647 c 128,-1,15
 1495 827 1495 827 1589 1010 c 0,16,17
 1600 1030 1600 1030 1554 1032 c 2,18,-1
 1471 1035 l 1,19,-1
 1471 1120 l 1,20,-1
 1857 1120 l 1,21,-1
 1857 1035 l 1,22,-1
 1748 1026 l 1,23,-1
 1748 1031 l 1,24,25
 1609 766 1609 766 1469.5 502 c 128,-1,26
 1330 238 1330 238 1191 -26 c 1,27,-1
 1077 -26 l 1,28,-1
 969 860 l 1,29,-1
 969 858 l 1,30,-1
 504 -26 l 1,31,-1
 379 -26 l 1,32,-1
 285 1006 l 2,33,34
 284 1019 284 1019 274.5 1025 c 128,-1,35
 265 1031 265 1031 241 1032 c 2,36,-1
 164 1035 l 1,0,-1
EndSplineSet
Validated: 1
EndChar

StartChar: x
Encoding: 120 120 91
Width: 1192
GlyphClass: 2
Flags: W
LayerCount: 2
Fore
SplineSet
-75 0 m 1,0,-1
 -75 85 l 1,1,-1
 13 92 l 2,2,3
 31 94 31 94 41.5 101 c 128,-1,4
 52 108 52 108 57 113 c 2,5,-1
 514 571 l 1,6,7
 460 680 460 680 405 789.5 c 128,-1,8
 350 899 350 899 296 1009 c 0,9,10
 291 1020 291 1020 281.5 1023.5 c 128,-1,11
 272 1027 272 1027 261 1029 c 1,12,-1
 159 1035 l 1,13,-1
 159 1120 l 1,14,-1
 639 1120 l 1,15,-1
 639 1035 l 1,16,-1
 519 1029 l 1,17,18
 506 1027 506 1027 497.5 1021 c 128,-1,19
 489 1015 489 1015 492 1007 c 2,20,-1
 643 699 l 1,21,-1
 643 702 l 1,22,-1
 946 1009 l 2,23,24
 951 1015 951 1015 948.5 1021.5 c 128,-1,25
 946 1028 946 1028 929 1029 c 2,26,-1
 841 1035 l 1,27,-1
 841 1120 l 1,28,-1
 1259 1120 l 1,29,-1
 1259 1035 l 1,30,-1
 1147 1029 l 1,31,32
 1132 1027 1132 1027 1119 1018.5 c 128,-1,33
 1106 1010 1106 1010 1099 1002 c 2,34,-1
 699 598 l 1,35,36
 759 475 759 475 818.5 355 c 128,-1,37
 878 235 878 235 938 112 c 1,38,39
 946 101 946 101 955 97 c 128,-1,40
 964 93 964 93 975 92 c 2,41,-1
 1075 85 l 1,42,-1
 1075 0 l 1,43,-1
 598 0 l 1,44,-1
 598 85 l 1,45,-1
 717 92 l 2,46,47
 730 93 730 93 738.5 99 c 128,-1,48
 747 105 747 105 742 113 c 1,49,-1
 577 459 l 1,50,-1
 577 457 l 1,51,-1
 228 111 l 2,52,53
 221 105 221 105 224 99 c 128,-1,54
 227 93 227 93 244 92 c 2,55,-1
 355 85 l 1,56,-1
 355 0 l 1,57,-1
 -75 0 l 1,0,-1
EndSplineSet
Validated: 1
EndChar

StartChar: y
Encoding: 121 121 92
Width: 1204
GlyphClass: 2
Flags: W
LayerCount: 2
Fore
SplineSet
163 1035 m 1,0,-1
 163 1120 l 1,1,-1
 640 1120 l 1,2,-1
 640 1035 l 1,3,-1
 523 1029 l 1,4,5
 509 1027 509 1027 500.5 1021.5 c 128,-1,6
 492 1016 492 1016 497 1006 c 1,7,-1
 649 579 l 1,8,-1
 649 581 l 1,9,-1
 1005 1009 l 2,10,11
 1010 1016 1010 1016 1008.5 1021.5 c 128,-1,12
 1007 1027 1007 1027 990 1029 c 1,13,-1
 876 1035 l 1,14,-1
 876 1120 l 1,15,-1
 1320 1120 l 1,16,-1
 1320 1035 l 1,17,-1
 1216 1029 l 1,18,19
 1202 1027 1202 1027 1188.5 1019.5 c 128,-1,20
 1175 1012 1175 1012 1169 1006 c 1,21,-1
 1169 1007 l 1,22,-1
 700 466 l 1,23,-1
 700 468 l 1,24,25
 680 380 680 380 660.5 290.5 c 128,-1,26
 641 201 641 201 622 112 c 0,27,28
 620 104 620 104 627.5 99.5 c 128,-1,29
 635 95 635 95 658 93 c 2,30,-1
 761 85 l 1,31,-1
 761 0 l 1,32,-1
 281 0 l 1,33,-1
 281 85 l 1,34,-1
 388 93 l 2,35,36
 404 95 404 95 416 101 c 128,-1,37
 428 107 428 107 432 118 c 1,38,-1
 507 455 l 1,39,-1
 302 1009 l 2,40,41
 297 1020 297 1020 286.5 1023.5 c 128,-1,42
 276 1027 276 1027 266 1029 c 1,43,-1
 163 1035 l 1,0,-1
EndSplineSet
Validated: 1
EndChar

StartChar: z
Encoding: 122 122 93
Width: 1061
GlyphClass: 2
Flags: W
LayerCount: 2
Fore
SplineSet
-33 0 m 1,0,-1
 -15 86 l 1,1,-1
 839 1019 l 1,2,-1
 420 1019 l 2,3,4
 399 1019 399 1019 389.5 1012 c 128,-1,5
 380 1005 380 1005 375 993 c 2,6,-1
 323 843 l 1,7,-1
 196 843 l 1,8,-1
 259 1120 l 1,9,-1
 1107 1120 l 1,10,-1
 1087 1032 l 1,11,-1
 230 103 l 1,12,-1
 720 103 l 2,13,14
 758 103 758 103 766 131 c 2,15,-1
 823 321 l 1,16,-1
 949 321 l 1,17,-1
 882 0 l 1,18,-1
 -33 0 l 1,0,-1
EndSplineSet
Validated: 1
EndChar

StartChar: braceleft
Encoding: 123 123 94
Width: 995
GlyphClass: 2
Flags: W
LayerCount: 2
Fore
SplineSet
119 547 m 1,0,-1
 137 641 l 1,1,2
 179 641 179 641 216.5 642 c 128,-1,3
 254 643 254 643 286 649 c 128,-1,4
 318 655 318 655 345.5 667.5 c 128,-1,5
 373 680 373 680 395 702 c 0,6,7
 433 738 433 738 453.5 791.5 c 128,-1,8
 474 845 474 845 486.5 906 c 128,-1,9
 499 967 499 967 510 1032.5 c 128,-1,10
 521 1098 521 1098 539.5 1160 c 128,-1,11
 558 1222 558 1222 590 1275.5 c 128,-1,12
 622 1329 622 1329 678 1366 c 1,13,14
 741 1409 741 1409 831.5 1424.5 c 128,-1,15
 922 1440 922 1440 1047 1440 c 1,16,-1
 1032 1354 l 1,17,18
 949 1354 949 1354 895 1334 c 128,-1,19
 841 1314 841 1314 807 1282 c 0,20,21
 772 1249 772 1249 752.5 1204 c 128,-1,22
 733 1159 733 1159 721 1108 c 128,-1,23
 709 1057 709 1057 700.5 1002 c 128,-1,24
 692 947 692 947 679 894 c 128,-1,25
 666 841 666 841 644.5 792.5 c 128,-1,26
 623 744 623 744 584 705 c 1,27,28
 550 673 550 673 498.5 644.5 c 128,-1,29
 447 616 447 616 369 596 c 1,30,31
 415 580 415 580 449 562.5 c 128,-1,32
 483 545 483 545 508 522 c 0,33,34
 540 492 540 492 553.5 453 c 128,-1,35
 567 414 567 414 568 370 c 128,-1,36
 569 326 569 326 561.5 278 c 128,-1,37
 554 230 554 230 544 182.5 c 128,-1,38
 534 135 534 135 525 89 c 128,-1,39
 516 43 516 43 514 3 c 128,-1,40
 512 -37 512 -37 520.5 -70 c 128,-1,41
 529 -103 529 -103 555 -125 c 0,42,43
 571 -139 571 -139 592 -147 c 128,-1,44
 613 -155 613 -155 636.5 -159.5 c 128,-1,45
 660 -164 660 -164 685.5 -165 c 128,-1,46
 711 -166 711 -166 735 -166 c 1,47,-1
 719 -252 l 1,48,49
 663 -252 663 -252 611 -249.5 c 128,-1,50
 559 -247 559 -247 514.5 -238 c 128,-1,51
 470 -229 470 -229 433.5 -212.5 c 128,-1,52
 397 -196 397 -196 371 -168 c 0,53,54
 342 -137 342 -137 331 -96 c 128,-1,55
 320 -55 320 -55 320.5 -9 c 128,-1,56
 321 37 321 37 329.5 86.5 c 128,-1,57
 338 136 338 136 348.5 186 c 128,-1,58
 359 236 359 236 368.5 283.5 c 128,-1,59
 378 331 378 331 379.5 373 c 128,-1,60
 381 415 381 415 371.5 450 c 128,-1,61
 362 485 362 485 336 508 c 0,62,63
 318 525 318 525 293 533 c 128,-1,64
 268 541 268 541 239.5 544 c 128,-1,65
 211 547 211 547 180 547 c 2,66,-1
 119 547 l 1,0,-1
EndSplineSet
Validated: 33
EndChar

StartChar: bar
Encoding: 124 124 95
Width: 724
GlyphClass: 2
Flags: W
LayerCount: 2
Fore
SplineSet
300 -528 m 1,0,-1
 300 1630 l 1,1,-1
 424 1630 l 1,2,-1
 424 -528 l 1,3,-1
 300 -528 l 1,0,-1
EndSplineSet
Validated: 1
EndChar

StartChar: braceright
Encoding: 125 125 96
Width: 995
GlyphClass: 2
Flags: W
LayerCount: 2
Fore
SplineSet
-31 -252 m 1,0,-1
 -16 -166 l 1,1,2
 67 -166 67 -166 121.5 -146 c 128,-1,3
 176 -126 176 -126 211 -94 c 0,4,5
 246 -61 246 -61 265 -16 c 128,-1,6
 284 29 284 29 295.5 80.5 c 128,-1,7
 307 132 307 132 315 187 c 128,-1,8
 323 242 323 242 336 295 c 128,-1,9
 349 348 349 348 371 396.5 c 128,-1,10
 393 445 393 445 432 483 c 0,11,12
 466 517 466 517 517.5 544.5 c 128,-1,13
 569 572 569 572 647 594 c 1,14,15
 555 621 555 621 510 666 c 1,16,17
 467 706 467 706 456 761.5 c 128,-1,18
 445 817 445 817 451 879 c 128,-1,19
 457 941 457 941 472.5 1006 c 128,-1,20
 488 1071 488 1071 497 1129.5 c 128,-1,21
 506 1188 506 1188 501.5 1236 c 128,-1,22
 497 1284 497 1284 463 1313 c 0,23,24
 446 1327 446 1327 424.5 1335 c 128,-1,25
 403 1343 403 1343 379.5 1347.5 c 128,-1,26
 356 1352 356 1352 330.5 1353 c 128,-1,27
 305 1354 305 1354 281 1354 c 1,28,-1
 299 1440 l 1,29,30
 354 1440 354 1440 405 1437.5 c 128,-1,31
 456 1435 456 1435 500.5 1426 c 128,-1,32
 545 1417 545 1417 582 1400.5 c 128,-1,33
 619 1384 619 1384 645 1356 c 0,34,35
 683 1314 683 1314 691 1256.5 c 128,-1,36
 699 1199 699 1199 691 1134 c 128,-1,37
 683 1069 683 1069 667 1002 c 128,-1,38
 651 935 651 935 642.5 873.5 c 128,-1,39
 634 812 634 812 639.5 761.5 c 128,-1,40
 645 711 645 711 680 680 c 0,41,42
 698 663 698 663 723 655 c 128,-1,43
 748 647 748 647 776.5 644 c 128,-1,44
 805 641 805 641 836 641 c 2,45,-1
 897 641 l 1,46,-1
 879 547 l 1,47,48
 837 547 837 547 799.5 545.5 c 128,-1,49
 762 544 762 544 729.5 538 c 128,-1,50
 697 532 697 532 670 519.5 c 128,-1,51
 643 507 643 507 621 485 c 0,52,53
 583 449 583 449 563 396 c 128,-1,54
 543 343 543 343 530 282 c 128,-1,55
 517 221 517 221 506.5 155 c 128,-1,56
 496 89 496 89 477.5 27.5 c 128,-1,57
 459 -34 459 -34 427 -87.5 c 128,-1,58
 395 -141 395 -141 340 -178 c 0,59,60
 275 -222 275 -222 184.5 -237 c 128,-1,61
 94 -252 94 -252 -31 -252 c 1,0,-1
EndSplineSet
Validated: 33
EndChar

StartChar: asciitilde
Encoding: 126 126 97
Width: 1706
GlyphClass: 2
Flags: W
LayerCount: 2
Fore
SplineSet
193 461 m 1,0,-1
 193 594 l 1,1,2
 302 672 302 672 400 705.5 c 128,-1,3
 498 739 498 739 582 739 c 0,4,5
 656 739 656 739 731 717.5 c 128,-1,6
 806 696 806 696 879 670.5 c 128,-1,7
 952 645 952 645 1023 623.5 c 128,-1,8
 1094 602 1094 602 1161 602 c 0,9,10
 1198 602 1198 602 1239.5 610 c 128,-1,11
 1281 618 1281 618 1328 636.5 c 128,-1,12
 1375 655 1375 655 1428.5 685 c 128,-1,13
 1482 715 1482 715 1544 760 c 1,14,-1
 1544 627 l 1,15,16
 1485 586 1485 586 1434 558.5 c 128,-1,17
 1383 531 1383 531 1336.5 514 c 128,-1,18
 1290 497 1290 497 1246.5 490 c 128,-1,19
 1203 483 1203 483 1159 483 c 0,20,21
 1086 483 1086 483 1014 504.5 c 128,-1,22
 942 526 942 526 869 552 c 128,-1,23
 796 578 796 578 721 599.5 c 128,-1,24
 646 621 646 621 567 621 c 0,25,26
 489 621 489 621 392.5 578.5 c 128,-1,27
 296 536 296 536 193 461 c 1,0,-1
EndSplineSet
Validated: 1
EndChar

StartChar: exclamdown
Encoding: 161 161 99
Width: 692
GlyphClass: 2
Flags: W
LayerCount: 2
Fore
SplineSet
73 -303 m 0,0,1
 73 -294 73 -294 83.5 -248.5 c 128,-1,2
 94 -203 94 -203 111 -134.5 c 128,-1,3
 128 -66 128 -66 150 18.5 c 128,-1,4
 172 103 172 103 195 190 c 0,5,6
 249 394 249 394 317 647 c 1,7,-1
 448 647 l 1,8,-1
 342 -246 l 2,9,10
 336 -289 336 -289 322.5 -319 c 128,-1,11
 309 -349 309 -349 288 -368 c 128,-1,12
 267 -387 267 -387 240 -396 c 128,-1,13
 213 -405 213 -405 182 -405 c 0,14,15
 123 -405 123 -405 98 -377 c 128,-1,16
 73 -349 73 -349 73 -303 c 0,0,1
282 889 m 0,17,18
 282 915 282 915 292 937.5 c 128,-1,19
 302 960 302 960 320 976.5 c 128,-1,20
 338 993 338 993 362.5 1002.5 c 128,-1,21
 387 1012 387 1012 417 1012 c 0,22,23
 439 1012 439 1012 462.5 1004.5 c 128,-1,24
 486 997 486 997 505 983 c 128,-1,25
 524 969 524 969 536 947 c 128,-1,26
 548 925 548 925 548 897 c 0,27,28
 548 870 548 870 538 847 c 128,-1,29
 528 824 528 824 511 806.5 c 128,-1,30
 494 789 494 789 469.5 779.5 c 128,-1,31
 445 770 445 770 417 770 c 0,32,33
 390 770 390 770 365.5 779.5 c 128,-1,34
 341 789 341 789 322.5 805 c 128,-1,35
 304 821 304 821 293 842.5 c 128,-1,36
 282 864 282 864 282 889 c 0,17,18
EndSplineSet
Validated: 1
EndChar

StartChar: cent
Encoding: 162 162 100
Width: 1139
GlyphClass: 2
Flags: W
LayerCount: 2
Fore
SplineSet
113 352 m 0,0,1
 113 425 113 425 128.5 498.5 c 128,-1,2
 144 572 144 572 174.5 640.5 c 128,-1,3
 205 709 205 709 250 770.5 c 128,-1,4
 295 832 295 832 354.5 880.5 c 128,-1,5
 414 929 414 929 487 962.5 c 128,-1,6
 560 996 560 996 647 1008 c 1,7,-1
 688 1212 l 1,8,-1
 813 1212 l 1,9,-1
 774 1012 l 1,10,11
 824 1011 824 1011 863 1007 c 128,-1,12
 902 1003 902 1003 935.5 996 c 128,-1,13
 969 989 969 989 999.5 979 c 128,-1,14
 1030 969 1030 969 1063 956 c 1,15,-1
 1020 651 l 1,16,-1
 897 651 l 1,17,18
 898 659 898 659 899.5 678 c 128,-1,19
 901 697 901 697 902 721.5 c 128,-1,20
 903 746 903 746 902 772 c 128,-1,21
 901 798 901 798 896.5 821 c 128,-1,22
 892 844 892 844 883 860.5 c 128,-1,23
 874 877 874 877 860 881 c 1,24,25
 854 884 854 884 827.5 896 c 128,-1,26
 801 908 801 908 756 913 c 1,27,-1
 596 76 l 1,28,29
 641 81 641 81 672.5 88.5 c 128,-1,30
 704 96 704 96 709 98 c 0,31,32
 727 102 727 102 741.5 119.5 c 128,-1,33
 756 137 756 137 766.5 160.5 c 128,-1,34
 777 184 777 184 784.5 212 c 128,-1,35
 792 240 792 240 797.5 265 c 128,-1,36
 803 290 803 290 805 310 c 2,37,-1
 809 338 l 1,38,-1
 932 338 l 1,39,-1
 889 37 l 1,40,41
 858 19 858 19 825 7.5 c 128,-1,42
 792 -4 792 -4 754 -11.5 c 128,-1,43
 716 -19 716 -19 672.5 -22 c 128,-1,44
 629 -25 629 -25 578 -25 c 1,45,-1
 539 -225 l 1,46,-1
 412 -225 l 1,47,-1
 453 -18 l 1,48,49
 367 -5 367 -5 303 31 c 128,-1,50
 239 67 239 67 197 117.5 c 128,-1,51
 155 168 155 168 134 228.5 c 128,-1,52
 113 289 113 289 113 352 c 0,0,1
319 379 m 0,53,54
 319 263 319 263 360 192 c 128,-1,55
 401 121 401 121 475 90 c 1,56,-1
 627 895 l 1,57,58
 560 869 560 869 503.5 818.5 c 128,-1,59
 447 768 447 768 406 700.5 c 128,-1,60
 365 633 365 633 342 551 c 128,-1,61
 319 469 319 469 319 379 c 0,53,54
EndSplineSet
Validated: 1
EndChar

StartChar: sterling
Encoding: 163 163 101
Width: 1139
GlyphClass: 2
Flags: W
LayerCount: 2
Fore
SplineSet
-8 0 m 1,0,-1
 -8 123 l 1,1,2
 89 141 89 141 147.5 190 c 128,-1,3
 206 239 206 239 240 307 c 0,4,5
 260 346 260 346 273 385 c 128,-1,6
 286 424 286 424 295 463 c 128,-1,7
 304 502 304 502 311 541 c 128,-1,8
 318 580 318 580 326 618 c 1,9,-1
 180 618 l 1,10,-1
 180 723 l 1,11,-1
 340 723 l 1,12,13
 343 758 343 758 353 822 c 128,-1,14
 363 886 363 886 386.5 962 c 128,-1,15
 410 1038 410 1038 450 1117 c 128,-1,16
 490 1196 490 1196 552.5 1260.5 c 128,-1,17
 615 1325 615 1325 703.5 1366 c 128,-1,18
 792 1407 792 1407 913 1407 c 0,19,20
 951 1407 951 1407 999 1400 c 128,-1,21
 1047 1393 1047 1393 1089.5 1376 c 128,-1,22
 1132 1359 1132 1359 1161 1330 c 128,-1,23
 1190 1301 1190 1301 1190 1257 c 0,24,25
 1190 1218 1190 1218 1167 1191.5 c 128,-1,26
 1144 1165 1144 1165 1112 1147.5 c 128,-1,27
 1080 1130 1080 1130 1046.5 1121.5 c 128,-1,28
 1013 1113 1013 1113 991 1110 c 1,29,-1
 903 1296 l 1,30,31
 835 1292 835 1292 785 1262.5 c 128,-1,32
 735 1233 735 1233 698.5 1186.5 c 128,-1,33
 662 1140 662 1140 638 1081 c 128,-1,34
 614 1022 614 1022 597.5 959.5 c 128,-1,35
 581 897 581 897 570.5 835.5 c 128,-1,36
 560 774 560 774 551 723 c 1,37,-1
 924 723 l 1,38,-1
 924 618 l 1,39,-1
 526 618 l 1,40,41
 513 546 513 546 493 482.5 c 128,-1,42
 473 419 473 419 440.5 362 c 128,-1,43
 408 305 408 305 360 254 c 128,-1,44
 312 203 312 203 244 156 c 1,45,46
 287 161 287 161 322.5 163.5 c 128,-1,47
 358 166 358 166 383 166 c 2,48,-1
 983 166 l 1,49,-1
 983 0 l 1,50,-1
 -8 0 l 1,0,-1
EndSplineSet
Validated: 1
EndChar

StartChar: currency
Encoding: 164 164 102
Width: 1249
GlyphClass: 2
Flags: W
LayerCount: 2
Fore
SplineSet
82 401 m 1,0,-1
 293 612 l 1,1,2
 248 668 248 668 225.5 735 c 128,-1,3
 203 802 203 802 203 874 c 0,4,5
 203 910 203 910 208.5 946.5 c 128,-1,6
 214 983 214 983 225.5 1018 c 128,-1,7
 237 1053 237 1053 254.5 1085.5 c 128,-1,8
 272 1118 272 1118 297 1145 c 1,9,-1
 82 1360 l 1,10,-1
 156 1434 l 1,11,-1
 371 1219 l 1,12,13
 426 1264 426 1264 496.5 1286.5 c 128,-1,14
 567 1309 567 1309 639 1309 c 0,15,16
 710 1309 710 1309 777 1285.5 c 128,-1,17
 844 1262 844 1262 897 1217 c 1,18,-1
 1114 1434 l 1,19,-1
 1188 1360 l 1,20,-1
 975 1147 l 1,21,22
 1018 1093 1018 1093 1042.5 1021 c 128,-1,23
 1067 949 1067 949 1067 877 c 0,24,25
 1067 804 1067 804 1045 736 c 128,-1,26
 1023 668 1023 668 977 612 c 1,27,-1
 1188 401 l 1,28,-1
 1114 328 l 1,29,-1
 903 539 l 1,30,31
 847 491 847 491 778.5 466.5 c 128,-1,32
 710 442 710 442 639 442 c 0,33,34
 562 442 562 442 493 465.5 c 128,-1,35
 424 489 424 489 367 539 c 1,36,-1
 156 328 l 1,37,-1
 82 401 l 1,0,-1
319 874 m 0,38,39
 319 808 319 808 344 750.5 c 128,-1,40
 369 693 369 693 412.5 650.5 c 128,-1,41
 456 608 456 608 514.5 583.5 c 128,-1,42
 573 559 573 559 639 559 c 0,43,44
 704 559 704 559 761 584.5 c 128,-1,45
 818 610 818 610 860 653.5 c 128,-1,46
 902 697 902 697 926 754.5 c 128,-1,47
 950 812 950 812 950 877 c 0,48,49
 950 941 950 941 925.5 998 c 128,-1,50
 901 1055 901 1055 859 1098 c 128,-1,51
 817 1141 817 1141 760 1166.5 c 128,-1,52
 703 1192 703 1192 639 1192 c 0,53,54
 572 1192 572 1192 514 1167.5 c 128,-1,55
 456 1143 456 1143 412.5 1100 c 128,-1,56
 369 1057 369 1057 344 999 c 128,-1,57
 319 941 319 941 319 874 c 0,38,39
EndSplineSet
Validated: 1
EndChar

StartChar: yen
Encoding: 165 165 103
Width: 1139
GlyphClass: 2
Flags: W
LayerCount: 2
Fore
SplineSet
57 479 m 1,0,-1
 57 573 l 1,1,-1
 465 573 l 1,2,-1
 399 772 l 1,3,-1
 117 772 l 1,4,-1
 117 864 l 1,5,-1
 360 864 l 1,6,-1
 238 1249 l 1,7,-1
 127 1274 l 1,8,-1
 127 1360 l 1,9,-1
 602 1360 l 1,10,-1
 602 1270 l 1,11,-1
 483 1260 l 2,12,13
 469 1258 469 1258 463.5 1247.5 c 128,-1,14
 458 1237 458 1237 463 1223 c 2,15,-1
 623 721 l 1,16,-1
 1001 1212 l 2,17,18
 1005 1218 1005 1218 1008.5 1224 c 128,-1,19
 1012 1230 1012 1230 1011.5 1235 c 128,-1,20
 1011 1240 1011 1240 1006 1244.5 c 128,-1,21
 1001 1249 1001 1249 989 1251 c 2,22,-1
 899 1272 l 1,23,-1
 899 1360 l 1,24,-1
 1309 1360 l 1,25,-1
 1309 1272 l 1,26,-1
 1184 1245 l 1,27,-1
 893 864 l 1,28,-1
 1128 864 l 1,29,-1
 1128 772 l 1,30,-1
 811 772 l 1,31,-1
 662 573 l 1,32,-1
 1069 573 l 1,33,-1
 1069 479 l 1,34,-1
 645 479 l 1,35,-1
 582 137 l 2,36,37
 581 132 581 132 581 126.5 c 128,-1,38
 581 121 581 121 583 115.5 c 128,-1,39
 585 110 585 110 591 105.5 c 128,-1,40
 597 101 597 101 608 100 c 2,41,-1
 745 90 l 1,42,-1
 745 0 l 1,43,-1
 190 0 l 1,44,-1
 190 90 l 1,45,46
 219 92 219 92 251 91.5 c 128,-1,47
 283 91 283 91 309 94 c 0,48,49
 321 95 321 95 333.5 98 c 128,-1,50
 346 101 346 101 357 105.5 c 128,-1,51
 368 110 368 110 375.5 117.5 c 128,-1,52
 383 125 383 125 385 137 c 2,53,-1
 449 479 l 1,54,-1
 57 479 l 1,0,-1
EndSplineSet
Validated: 1
EndChar

StartChar: brokenbar
Encoding: 166 166 104
Width: 707
GlyphClass: 2
Flags: W
LayerCount: 2
Fore
SplineSet
301 -406 m 1,0,-1
 301 414 l 1,1,-1
 406 414 l 1,2,-1
 406 -406 l 1,3,-1
 301 -406 l 1,0,-1
301 688 m 1,4,-1
 301 1507 l 1,5,-1
 406 1507 l 1,6,-1
 406 688 l 1,7,-1
 301 688 l 1,4,-1
EndSplineSet
Validated: 1
EndChar

StartChar: section
Encoding: 167 167 105
Width: 1024
GlyphClass: 2
Flags: W
LayerCount: 2
Fore
SplineSet
25 -219 m 1,0,-1
 72 47 l 1,1,-1
 203 47 l 1,2,-1
 197 -135 l 1,3,4
 239 -163 239 -163 282 -174.5 c 128,-1,5
 325 -186 325 -186 362 -186 c 0,6,7
 395 -186 395 -186 436 -174 c 128,-1,8
 477 -162 477 -162 512.5 -138 c 128,-1,9
 548 -114 548 -114 572 -78.5 c 128,-1,10
 596 -43 596 -43 596 4 c 0,11,12
 596 39 596 39 576 69 c 128,-1,13
 556 99 556 99 523.5 125.5 c 128,-1,14
 491 152 491 152 450 176 c 128,-1,15
 409 200 409 200 368 222 c 128,-1,16
 327 244 327 244 290 265 c 128,-1,17
 253 286 253 286 227 307 c 0,18,19
 179 347 179 347 149 398.5 c 128,-1,20
 119 450 119 450 119 524 c 0,21,22
 119 593 119 593 141.5 650 c 128,-1,23
 164 707 164 707 204.5 754.5 c 128,-1,24
 245 802 245 802 301 839 c 128,-1,25
 357 876 357 876 424 905 c 1,26,27
 389 927 389 927 360 950.5 c 128,-1,28
 331 974 331 974 310.5 1000 c 128,-1,29
 290 1026 290 1026 279 1056.5 c 128,-1,30
 268 1087 268 1087 268 1122 c 0,31,32
 268 1213 268 1213 308.5 1279 c 128,-1,33
 349 1345 349 1345 415.5 1387.5 c 128,-1,34
 482 1430 482 1430 567 1450 c 128,-1,35
 652 1470 652 1470 741 1470 c 0,36,37
 773 1470 773 1470 810 1467 c 128,-1,38
 847 1464 847 1464 883.5 1457.5 c 128,-1,39
 920 1451 920 1451 955.5 1441.5 c 128,-1,40
 991 1432 991 1432 1020 1419 c 1,41,-1
 969 1151 l 1,42,-1
 846 1151 l 1,43,-1
 854 1319 l 1,44,45
 811 1347 811 1347 768.5 1359.5 c 128,-1,46
 726 1372 726 1372 686 1372 c 0,47,48
 655 1372 655 1372 616.5 1360.5 c 128,-1,49
 578 1349 578 1349 544 1326 c 128,-1,50
 510 1303 510 1303 486.5 1268.5 c 128,-1,51
 463 1234 463 1234 463 1188 c 0,52,53
 463 1154 463 1154 480 1127.5 c 128,-1,54
 497 1101 497 1101 525.5 1078.5 c 128,-1,55
 554 1056 554 1056 591.5 1035.5 c 128,-1,56
 629 1015 629 1015 669.5 994 c 128,-1,57
 710 973 710 973 751.5 949 c 128,-1,58
 793 925 793 925 829 895 c 0,59,60
 877 855 877 855 907.5 803 c 128,-1,61
 938 751 938 751 938 680 c 0,62,63
 938 617 938 617 911.5 559 c 128,-1,64
 885 501 885 501 841 451.5 c 128,-1,65
 797 402 797 402 740 362.5 c 128,-1,66
 683 323 683 323 621 297 c 1,67,68
 695 255 695 255 740.5 202.5 c 128,-1,69
 786 150 786 150 786 78 c 0,70,71
 786 -8 786 -8 746.5 -75.5 c 128,-1,72
 707 -143 707 -143 642.5 -190 c 128,-1,73
 578 -237 578 -237 495.5 -262 c 128,-1,74
 413 -287 413 -287 326 -287 c 0,75,76
 161 -287 161 -287 25 -219 c 1,0,-1
313 592 m 0,77,78
 313 555 313 555 322 525 c 128,-1,79
 331 495 331 495 356 466.5 c 128,-1,80
 381 438 381 438 424 408.5 c 128,-1,81
 467 379 467 379 535 344 c 1,82,83
 579 369 579 369 617 400.5 c 128,-1,84
 655 432 655 432 682.5 467.5 c 128,-1,85
 710 503 710 503 725.5 543 c 128,-1,86
 741 583 741 583 741 625 c 0,87,88
 741 658 741 658 730.5 688 c 128,-1,89
 720 718 720 718 694.5 746 c 128,-1,90
 669 774 669 774 627 801.5 c 128,-1,91
 585 829 585 829 522 858 c 1,92,93
 465 837 465 837 425 804.5 c 128,-1,94
 385 772 385 772 360 735 c 128,-1,95
 335 698 335 698 324 660.5 c 128,-1,96
 313 623 313 623 313 592 c 0,77,78
EndSplineSet
Validated: 1
EndChar

StartChar: dieresis
Encoding: 168 168 106
Width: 649
GlyphClass: 2
Flags: W
LayerCount: 2
Fore
SplineSet
158 1311 m 0,0,1
 158 1333 158 1333 167 1353.5 c 128,-1,2
 176 1374 176 1374 191 1390 c 128,-1,3
 206 1406 206 1406 226 1415.5 c 128,-1,4
 246 1425 246 1425 268 1425 c 0,5,6
 291 1425 291 1425 311.5 1416 c 128,-1,7
 332 1407 332 1407 347.5 1392 c 128,-1,8
 363 1377 363 1377 372 1356.5 c 128,-1,9
 381 1336 381 1336 381 1313 c 256,10,11
 381 1290 381 1290 372 1269 c 128,-1,12
 363 1248 363 1248 347.5 1232 c 128,-1,13
 332 1216 332 1216 311.5 1207 c 128,-1,14
 291 1198 291 1198 268 1198 c 0,15,16
 246 1198 246 1198 226 1207 c 128,-1,17
 206 1216 206 1216 191 1232 c 128,-1,18
 176 1248 176 1248 167 1268 c 128,-1,19
 158 1288 158 1288 158 1311 c 0,0,1
582 1313 m 0,20,21
 582 1334 582 1334 591.5 1354.5 c 128,-1,22
 601 1375 601 1375 616.5 1390.5 c 128,-1,23
 632 1406 632 1406 652.5 1415.5 c 128,-1,24
 673 1425 673 1425 694 1425 c 0,25,26
 717 1425 717 1425 737.5 1416 c 128,-1,27
 758 1407 758 1407 773 1392 c 128,-1,28
 788 1377 788 1377 796.5 1356.5 c 128,-1,29
 805 1336 805 1336 805 1313 c 256,30,31
 805 1290 805 1290 796.5 1269 c 128,-1,32
 788 1248 788 1248 773 1232 c 128,-1,33
 758 1216 758 1216 737.5 1207 c 128,-1,34
 717 1198 717 1198 694 1198 c 256,35,36
 671 1198 671 1198 650.5 1207 c 128,-1,37
 630 1216 630 1216 615 1232 c 128,-1,38
 600 1248 600 1248 591 1269 c 128,-1,39
 582 1290 582 1290 582 1313 c 0,20,21
EndSplineSet
Validated: 1
EndChar

StartChar: copyright
Encoding: 169 169 107
Width: 1714
GlyphClass: 2
Flags: W
LayerCount: 2
Fore
SplineSet
111 717 m 0,0,1
 111 826 111 826 139 927 c 128,-1,2
 167 1028 167 1028 218.5 1116 c 128,-1,3
 270 1204 270 1204 341.5 1276.5 c 128,-1,4
 413 1349 413 1349 500.5 1400.5 c 128,-1,5
 588 1452 588 1452 689 1480.5 c 128,-1,6
 790 1509 790 1509 899 1509 c 0,7,8
 1009 1509 1009 1509 1110 1480 c 128,-1,9
 1211 1451 1211 1451 1298.5 1399 c 128,-1,10
 1386 1347 1386 1347 1457.5 1274.5 c 128,-1,11
 1529 1202 1529 1202 1580 1114 c 128,-1,12
 1631 1026 1631 1026 1658.5 926 c 128,-1,13
 1686 826 1686 826 1686 719 c 0,14,15
 1686 610 1686 610 1658 509 c 128,-1,16
 1630 408 1630 408 1578.5 320 c 128,-1,17
 1527 232 1527 232 1455 159 c 128,-1,18
 1383 86 1383 86 1295.5 34.5 c 128,-1,19
 1208 -17 1208 -17 1107 -45.5 c 128,-1,20
 1006 -74 1006 -74 897 -74 c 0,21,22
 789 -74 789 -74 689 -45.5 c 128,-1,23
 589 -17 589 -17 501.5 34.5 c 128,-1,24
 414 86 414 86 342 158.5 c 128,-1,25
 270 231 270 231 218.5 319 c 128,-1,26
 167 407 167 407 139 508 c 128,-1,27
 111 609 111 609 111 717 c 0,0,1
199 717 m 256,28,29
 199 620 199 620 224 530.5 c 128,-1,30
 249 441 249 441 294.5 362.5 c 128,-1,31
 340 284 340 284 403.5 219.5 c 128,-1,32
 467 155 467 155 544.5 109 c 128,-1,33
 622 63 622 63 711.5 37.5 c 128,-1,34
 801 12 801 12 897 12 c 256,35,36
 993 12 993 12 1082.5 37.5 c 128,-1,37
 1172 63 1172 63 1249.5 109 c 128,-1,38
 1327 155 1327 155 1391 219.5 c 128,-1,39
 1455 284 1455 284 1501 362.5 c 128,-1,40
 1547 441 1547 441 1572 530.5 c 128,-1,41
 1597 620 1597 620 1597 717 c 256,42,43
 1597 814 1597 814 1572 904 c 128,-1,44
 1547 994 1547 994 1502 1072 c 128,-1,45
 1457 1150 1457 1150 1393.5 1215 c 128,-1,46
 1330 1280 1330 1280 1252 1326 c 128,-1,47
 1174 1372 1174 1372 1085 1397.5 c 128,-1,48
 996 1423 996 1423 899 1423 c 256,49,50
 802 1423 802 1423 712.5 1397.5 c 128,-1,51
 623 1372 623 1372 545.5 1326 c 128,-1,52
 468 1280 468 1280 404 1215.5 c 128,-1,53
 340 1151 340 1151 294.5 1072.5 c 128,-1,54
 249 994 249 994 224 904 c 128,-1,55
 199 814 199 814 199 717 c 256,28,29
428 717 m 0,56,57
 428 823 428 823 464 911 c 128,-1,58
 500 999 500 999 566 1063 c 128,-1,59
 632 1127 632 1127 725 1162.5 c 128,-1,60
 818 1198 818 1198 932 1198 c 0,61,62
 1012 1198 1012 1198 1082 1182.5 c 128,-1,63
 1152 1167 1152 1167 1221 1147 c 1,64,-1
 1221 903 l 1,65,-1
 1128 903 l 1,66,-1
 1098 1059 l 1,67,68
 1075 1074 1075 1074 1035.5 1088 c 128,-1,69
 996 1102 996 1102 952 1102 c 0,70,71
 887 1102 887 1102 826 1076.5 c 128,-1,72
 765 1051 765 1051 718.5 1002 c 128,-1,73
 672 953 672 953 644 882.5 c 128,-1,74
 616 812 616 812 616 721 c 0,75,76
 616 627 616 627 643 554 c 128,-1,77
 670 481 670 481 714 430.5 c 128,-1,78
 758 380 758 380 815 354 c 128,-1,79
 872 328 872 328 932 328 c 0,80,81
 957 328 957 328 982 331.5 c 128,-1,82
 1007 335 1007 335 1029 341 c 128,-1,83
 1051 347 1051 347 1070 354 c 128,-1,84
 1089 361 1089 361 1102 367 c 1,85,-1
 1130 541 l 1,86,-1
 1221 541 l 1,87,-1
 1221 283 l 1,88,89
 1218 282 1218 282 1193.5 274 c 128,-1,90
 1169 266 1169 266 1129.5 257 c 128,-1,91
 1090 248 1090 248 1038.5 240.5 c 128,-1,92
 987 233 987 233 930 233 c 0,93,94
 809 233 809 233 715.5 272.5 c 128,-1,95
 622 312 622 312 558 378.5 c 128,-1,96
 494 445 494 445 461 532.5 c 128,-1,97
 428 620 428 620 428 717 c 0,56,57
EndSplineSet
Validated: 1
EndChar

StartChar: ordfeminine
Encoding: 170 170 108
Width: 692
GlyphClass: 2
Flags: W
LayerCount: 2
Fore
SplineSet
86 627 m 1,0,-1
 102 700 l 1,1,-1
 715 700 l 1,2,-1
 700 627 l 1,3,-1
 86 627 l 1,0,-1
158 989 m 0,4,5
 158 1061 158 1061 183 1132.5 c 128,-1,6
 208 1204 208 1204 256.5 1261.5 c 128,-1,7
 305 1319 305 1319 377 1355 c 128,-1,8
 449 1391 449 1391 543 1391 c 0,9,10
 580 1391 580 1391 611.5 1377 c 128,-1,11
 643 1363 643 1363 662 1348 c 1,12,-1
 682 1376 l 1,13,-1
 772 1376 l 1,14,15
 769 1369 769 1369 765 1359 c 128,-1,16
 761 1349 761 1349 757.5 1339 c 128,-1,17
 754 1329 754 1329 750.5 1320 c 128,-1,18
 747 1311 747 1311 745 1307 c 1,19,20
 741 1290 741 1290 733 1257.5 c 128,-1,21
 725 1225 725 1225 715.5 1184 c 128,-1,22
 706 1143 706 1143 696 1098 c 128,-1,23
 686 1053 686 1053 678 1013 c 128,-1,24
 670 973 670 973 664.5 942 c 128,-1,25
 659 911 659 911 659 897 c 0,26,27
 659 866 659 866 675 854 c 128,-1,28
 691 842 691 842 719 842 c 0,29,30
 726 842 726 842 738.5 844.5 c 128,-1,31
 751 847 751 847 764.5 850 c 128,-1,32
 778 853 778 853 790 856 c 128,-1,33
 802 859 802 859 807 860 c 1,34,-1
 807 817 l 1,35,36
 798 814 798 814 777 806.5 c 128,-1,37
 756 799 756 799 730.5 790.5 c 128,-1,38
 705 782 705 782 678.5 776 c 128,-1,39
 652 770 652 770 633 770 c 0,40,41
 583 770 583 770 563.5 791 c 128,-1,42
 544 812 544 812 541 854 c 1,43,44
 526 840 526 840 505.5 825 c 128,-1,45
 485 810 485 810 460.5 798 c 128,-1,46
 436 786 436 786 408 778 c 128,-1,47
 380 770 380 770 350 770 c 0,48,49
 292 770 292 770 254.5 792 c 128,-1,50
 217 814 217 814 195.5 846.5 c 128,-1,51
 174 879 174 879 166 917.5 c 128,-1,52
 158 956 158 956 158 989 c 0,4,5
291 997 m 0,53,54
 291 971 291 971 295 945 c 128,-1,55
 299 919 299 919 310.5 898 c 128,-1,56
 322 877 322 877 341.5 863.5 c 128,-1,57
 361 850 361 850 393 850 c 0,58,59
 417 850 417 850 440 859.5 c 128,-1,60
 463 869 463 869 483 882 c 128,-1,61
 503 895 503 895 518 908 c 128,-1,62
 533 921 533 921 541 928 c 1,63,-1
 610 1266 l 2,64,65
 611 1269 611 1269 605.5 1279.5 c 128,-1,66
 600 1290 600 1290 592.5 1301.5 c 128,-1,67
 585 1313 585 1313 576 1322 c 128,-1,68
 567 1331 567 1331 561 1331 c 0,69,70
 484 1331 484 1331 432.5 1298 c 128,-1,71
 381 1265 381 1265 349.5 1215 c 128,-1,72
 318 1165 318 1165 304.5 1106.5 c 128,-1,73
 291 1048 291 1048 291 997 c 0,53,54
EndSplineSet
Validated: 1
EndChar

StartChar: guillemotleft
Encoding: 171 171 109
Width: 905
GlyphClass: 2
Flags: W
LayerCount: 2
Fore
SplineSet
25 412 m 1,0,-1
 53 571 l 1,1,-1
 479 868 l 1,2,-1
 449 707 l 1,3,-1
 170 494 l 1,4,-1
 365 274 l 1,5,-1
 334 115 l 1,6,-1
 25 412 l 1,0,-1
428 412 m 1,7,-1
 459 571 l 1,8,-1
 885 868 l 1,9,-1
 854 707 l 1,10,-1
 573 494 l 1,11,-1
 768 274 l 1,12,-1
 737 115 l 1,13,-1
 428 412 l 1,7,-1
EndSplineSet
Validated: 1
EndChar

StartChar: logicalnot
Encoding: 172 172 110
Width: 1270
GlyphClass: 2
Flags: W
LayerCount: 2
Fore
SplineSet
82 737 m 1,0,-1
 82 860 l 1,1,-1
 1188 860 l 1,2,-1
 1188 387 l 1,3,-1
 1065 387 l 1,4,-1
 1065 737 l 1,5,-1
 82 737 l 1,0,-1
EndSplineSet
Validated: 1
EndChar

StartChar: uni00AD
Encoding: 173 173 111
Width: 653
GlyphClass: 2
Flags: W
LayerCount: 2
Fore
SplineSet
61 424 m 1,0,-1
 88 563 l 1,1,-1
 580 563 l 1,2,-1
 553 424 l 1,3,-1
 61 424 l 1,0,-1
EndSplineSet
Validated: 1
EndChar

StartChar: registered
Encoding: 174 174 112
Width: 1714
GlyphClass: 2
Flags: W
LayerCount: 2
Fore
SplineSet
111 717 m 256,0,1
 111 826 111 826 139 927 c 128,-1,2
 167 1028 167 1028 218.5 1116 c 128,-1,3
 270 1204 270 1204 341.5 1276.5 c 128,-1,4
 413 1349 413 1349 500.5 1400.5 c 128,-1,5
 588 1452 588 1452 689 1480.5 c 128,-1,6
 790 1509 790 1509 899 1509 c 0,7,8
 1006 1509 1006 1509 1106.5 1480.5 c 128,-1,9
 1207 1452 1207 1452 1294.5 1401 c 128,-1,10
 1382 1350 1382 1350 1454 1277.5 c 128,-1,11
 1526 1205 1526 1205 1577.5 1117 c 128,-1,12
 1629 1029 1629 1029 1657.5 927.5 c 128,-1,13
 1686 826 1686 826 1686 717 c 256,14,15
 1686 608 1686 608 1658 507 c 128,-1,16
 1630 406 1630 406 1578.5 318 c 128,-1,17
 1527 230 1527 230 1455 158 c 128,-1,18
 1383 86 1383 86 1295 34.5 c 128,-1,19
 1207 -17 1207 -17 1105.5 -45.5 c 128,-1,20
 1004 -74 1004 -74 895 -74 c 0,21,22
 787 -74 787 -74 687.5 -45.5 c 128,-1,23
 588 -17 588 -17 501 34.5 c 128,-1,24
 414 86 414 86 342 158 c 128,-1,25
 270 230 270 230 218.5 318 c 128,-1,26
 167 406 167 406 139 507 c 128,-1,27
 111 608 111 608 111 717 c 256,0,1
199 713 m 0,28,29
 199 617 199 617 224 528 c 128,-1,30
 249 439 249 439 294 361 c 128,-1,31
 339 283 339 283 402.5 219 c 128,-1,32
 466 155 466 155 544 109 c 128,-1,33
 622 63 622 63 711 37.5 c 128,-1,34
 800 12 800 12 897 12 c 256,35,36
 994 12 994 12 1083.5 37.5 c 128,-1,37
 1173 63 1173 63 1250.5 109 c 128,-1,38
 1328 155 1328 155 1392 220 c 128,-1,39
 1456 285 1456 285 1501.5 363 c 128,-1,40
 1547 441 1547 441 1572 531 c 128,-1,41
 1597 621 1597 621 1597 717 c 0,42,43
 1597 815 1597 815 1572 905 c 128,-1,44
 1547 995 1547 995 1501.5 1073.5 c 128,-1,45
 1456 1152 1456 1152 1392.5 1216.5 c 128,-1,46
 1329 1281 1329 1281 1251.5 1327 c 128,-1,47
 1174 1373 1174 1373 1084.5 1398 c 128,-1,48
 995 1423 995 1423 899 1423 c 256,49,50
 803 1423 803 1423 714 1398 c 128,-1,51
 625 1373 625 1373 547.5 1327.5 c 128,-1,52
 470 1282 470 1282 405.5 1217.5 c 128,-1,53
 341 1153 341 1153 295.5 1074.5 c 128,-1,54
 250 996 250 996 224.5 904.5 c 128,-1,55
 199 813 199 813 199 713 c 0,28,29
483 291 m 1,56,-1
 483 348 l 1,57,-1
 561 354 l 2,58,59
 577 356 577 356 584.5 365 c 128,-1,60
 592 374 592 374 592 383 c 2,61,-1
 592 1096 l 2,62,63
 592 1105 592 1105 584.5 1113.5 c 128,-1,64
 577 1122 577 1122 561 1124 c 2,65,-1
 483 1130 l 1,66,-1
 483 1188 l 1,67,-1
 864 1188 l 2,68,69
 948 1188 948 1188 1014.5 1175.5 c 128,-1,70
 1081 1163 1081 1163 1127.5 1135 c 128,-1,71
 1174 1107 1174 1107 1198.5 1061.5 c 128,-1,72
 1223 1016 1223 1016 1223 950 c 0,73,74
 1223 898 1223 898 1203 860.5 c 128,-1,75
 1183 823 1183 823 1150 796.5 c 128,-1,76
 1117 770 1117 770 1073.5 753.5 c 128,-1,77
 1030 737 1030 737 983 727 c 1,78,79
 1044 713 1044 713 1079.5 689.5 c 128,-1,80
 1115 666 1115 666 1135 637 c 128,-1,81
 1155 608 1155 608 1164.5 575 c 128,-1,82
 1174 542 1174 542 1181.5 509.5 c 128,-1,83
 1189 477 1189 477 1200 447.5 c 128,-1,84
 1211 418 1211 418 1234.5 395.5 c 128,-1,85
 1258 373 1258 373 1298.5 359.5 c 128,-1,86
 1339 346 1339 346 1407 346 c 1,87,-1
 1407 291 l 1,88,89
 1402 290 1402 290 1389 288.5 c 128,-1,90
 1376 287 1376 287 1359 285.5 c 128,-1,91
 1342 284 1342 284 1323 282.5 c 128,-1,92
 1304 281 1304 281 1288 281 c 0,93,94
 1220 281 1220 281 1177.5 298.5 c 128,-1,95
 1135 316 1135 316 1109.5 345 c 128,-1,96
 1084 374 1084 374 1070 410.5 c 128,-1,97
 1056 447 1056 447 1045 485.5 c 128,-1,98
 1034 524 1034 524 1020 560.5 c 128,-1,99
 1006 597 1006 597 981 626 c 128,-1,100
 956 655 956 655 914 672.5 c 128,-1,101
 872 690 872 690 805 690 c 0,102,103
 782 690 782 690 761 689 c 128,-1,104
 740 688 740 688 737 688 c 1,105,-1
 737 383 l 2,106,107
 737 374 737 374 744 365 c 128,-1,108
 751 356 751 356 768 354 c 2,109,-1
 846 348 l 1,110,-1
 846 291 l 1,111,-1
 483 291 l 1,56,-1
737 756 m 1,112,113
 738 756 738 756 747 755.5 c 128,-1,114
 756 755 756 755 768 755 c 128,-1,115
 780 755 780 755 792.5 754.5 c 128,-1,116
 805 754 805 754 813 754 c 0,117,118
 874 754 874 754 920.5 763.5 c 128,-1,119
 967 773 967 773 998.5 795.5 c 128,-1,120
 1030 818 1030 818 1046.5 854 c 128,-1,121
 1063 890 1063 890 1063 944 c 0,122,123
 1063 986 1063 986 1049 1019.5 c 128,-1,124
 1035 1053 1035 1053 1004 1076.5 c 128,-1,125
 973 1100 973 1100 924.5 1112 c 128,-1,126
 876 1124 876 1124 807 1124 c 2,127,-1
 737 1124 l 1,128,-1
 737 756 l 1,112,113
EndSplineSet
Validated: 1
EndChar

StartChar: macron
Encoding: 175 175 113
Width: 625
GlyphClass: 2
Flags: W
LayerCount: 2
Fore
SplineSet
140 1200 m 1,0,-1
 169 1335 l 1,1,-1
 786 1335 l 1,2,-1
 760 1200 l 1,3,-1
 140 1200 l 1,0,-1
EndSplineSet
Validated: 1
EndChar

StartChar: degree
Encoding: 176 176 114
Width: 655
GlyphClass: 2
Flags: W
LayerCount: 2
Fore
SplineSet
102 1249 m 256,0,1
 102 1296 102 1296 119.5 1337 c 128,-1,2
 137 1378 137 1378 168 1409 c 128,-1,3
 199 1440 199 1440 240 1457.5 c 128,-1,4
 281 1475 281 1475 328 1475 c 256,5,6
 375 1475 375 1475 416 1457.5 c 128,-1,7
 457 1440 457 1440 487.5 1409 c 128,-1,8
 518 1378 518 1378 535.5 1337 c 128,-1,9
 553 1296 553 1296 553 1249 c 256,10,11
 553 1202 553 1202 535.5 1161 c 128,-1,12
 518 1120 518 1120 487.5 1089.5 c 128,-1,13
 457 1059 457 1059 416 1041.5 c 128,-1,14
 375 1024 375 1024 328 1024 c 256,15,16
 281 1024 281 1024 240 1041.5 c 128,-1,17
 199 1059 199 1059 168 1089.5 c 128,-1,18
 137 1120 137 1120 119.5 1161 c 128,-1,19
 102 1202 102 1202 102 1249 c 256,0,1
184 1249 m 256,20,21
 184 1219 184 1219 195 1193 c 128,-1,22
 206 1167 206 1167 225.5 1147.5 c 128,-1,23
 245 1128 245 1128 271.5 1117 c 128,-1,24
 298 1106 298 1106 328 1106 c 256,25,26
 358 1106 358 1106 384 1117 c 128,-1,27
 410 1128 410 1128 429.5 1147.5 c 128,-1,28
 449 1167 449 1167 460 1193 c 128,-1,29
 471 1219 471 1219 471 1249 c 256,30,31
 471 1279 471 1279 460 1305 c 128,-1,32
 449 1331 449 1331 429.5 1350.5 c 128,-1,33
 410 1370 410 1370 384 1381.5 c 128,-1,34
 358 1393 358 1393 328 1393 c 256,35,36
 298 1393 298 1393 271.5 1381.5 c 128,-1,37
 245 1370 245 1370 225.5 1350.5 c 128,-1,38
 206 1331 206 1331 195 1305 c 128,-1,39
 184 1279 184 1279 184 1249 c 256,20,21
EndSplineSet
Validated: 1
EndChar

StartChar: plusminus
Encoding: 177 177 115
Width: 2048
GlyphClass: 2
Flags: W
LayerCount: 2
Fore
SplineSet
410 0 m 1,0,-1
 410 127 l 1,1,-1
 1638 127 l 1,2,-1
 1638 0 l 1,3,-1
 410 0 l 1,0,-1
410 733 m 1,4,-1
 410 860 l 1,5,-1
 961 860 l 1,6,-1
 961 1229 l 1,7,-1
 1087 1229 l 1,8,-1
 1087 860 l 1,9,-1
 1638 860 l 1,10,-1
 1638 733 l 1,11,-1
 1087 733 l 1,12,-1
 1087 365 l 1,13,-1
 961 365 l 1,14,-1
 961 733 l 1,15,-1
 410 733 l 1,4,-1
EndSplineSet
Validated: 1
EndChar

StartChar: uni00B2
Encoding: 178 178 116
Width: 739
GlyphClass: 2
Flags: W
LayerCount: 2
Fore
SplineSet
96 784 m 1,0,-1
 115 874 l 1,1,2
 257 968 257 968 362 1041 c 128,-1,3
 467 1114 467 1114 536 1177 c 128,-1,4
 605 1240 605 1240 638.5 1298 c 128,-1,5
 672 1356 672 1356 672 1421 c 0,6,7
 672 1484 672 1484 636 1514 c 128,-1,8
 600 1544 600 1544 537 1544 c 0,9,10
 495 1544 495 1544 465 1533.5 c 128,-1,11
 435 1523 435 1523 426 1518 c 1,12,-1
 399 1391 l 1,13,14
 391 1384 391 1384 380 1379 c 0,15,16
 371 1374 371 1374 357.5 1371 c 128,-1,17
 344 1368 344 1368 328 1368 c 0,18,19
 322 1368 322 1368 310 1369.5 c 128,-1,20
 298 1371 298 1371 286.5 1377 c 128,-1,21
 275 1383 275 1383 266.5 1394.5 c 128,-1,22
 258 1406 258 1406 258 1425 c 0,23,24
 258 1462 258 1462 285 1497.5 c 128,-1,25
 312 1533 312 1533 356 1560.5 c 128,-1,26
 400 1588 400 1588 457.5 1605 c 128,-1,27
 515 1622 515 1622 575 1622 c 0,28,29
 622 1622 622 1622 665.5 1612.5 c 128,-1,30
 709 1603 709 1603 742 1581 c 128,-1,31
 775 1559 775 1559 795 1523.5 c 128,-1,32
 815 1488 815 1488 815 1436 c 0,33,34
 815 1379 815 1379 787.5 1324.5 c 128,-1,35
 760 1270 760 1270 715 1219.5 c 128,-1,36
 670 1169 670 1169 613 1122.5 c 128,-1,37
 556 1076 556 1076 497 1035.5 c 128,-1,38
 438 995 438 995 382.5 960 c 128,-1,39
 327 925 327 925 285 897 c 1,40,-1
 641 897 l 1,41,-1
 684 999 l 1,42,-1
 760 999 l 1,43,-1
 717 784 l 1,44,-1
 96 784 l 1,0,-1
EndSplineSet
Validated: 1
EndChar

StartChar: uni00B3
Encoding: 179 179 117
Width: 739
GlyphClass: 2
Flags: W
LayerCount: 2
Fore
SplineSet
137 909 m 0,0,1
 137 918 137 918 140.5 931 c 128,-1,2
 144 944 144 944 153 956 c 128,-1,3
 162 968 162 968 177.5 976.5 c 128,-1,4
 193 985 193 985 217 985 c 0,5,6
 228 985 228 985 237 983.5 c 128,-1,7
 246 982 246 982 254 980 c 0,8,9
 263 977 263 977 270 975 c 1,10,-1
 291 870 l 1,11,12
 300 865 300 865 327 854.5 c 128,-1,13
 354 844 354 844 391 844 c 0,14,15
 442 844 442 844 485 860 c 128,-1,16
 528 876 528 876 559.5 904 c 128,-1,17
 591 932 591 932 609 970 c 128,-1,18
 627 1008 627 1008 627 1051 c 0,19,20
 627 1090 627 1090 612 1114 c 128,-1,21
 597 1138 597 1138 574.5 1151.5 c 128,-1,22
 552 1165 552 1165 525.5 1169.5 c 128,-1,23
 499 1174 499 1174 477 1174 c 0,24,25
 459 1174 459 1174 443 1173 c 128,-1,26
 427 1172 427 1172 415 1170 c 0,27,28
 401 1168 401 1168 389 1167 c 1,29,-1
 401 1253 l 1,30,31
 465 1249 465 1249 516.5 1261.5 c 128,-1,32
 568 1274 568 1274 603 1298.5 c 128,-1,33
 638 1323 638 1323 657 1357 c 128,-1,34
 676 1391 676 1391 676 1430 c 0,35,36
 676 1463 676 1463 663.5 1486 c 128,-1,37
 651 1509 651 1509 631.5 1523 c 128,-1,38
 612 1537 612 1537 588.5 1543.5 c 128,-1,39
 565 1550 565 1550 543 1550 c 0,40,41
 519 1550 519 1550 499 1545.5 c 128,-1,42
 479 1541 479 1541 463.5 1535 c 128,-1,43
 448 1529 448 1529 438 1522.5 c 128,-1,44
 428 1516 428 1516 424 1513 c 1,45,-1
 406 1399 l 1,46,47
 393 1393 393 1393 381 1389 c 0,48,49
 370 1385 370 1385 358 1382.5 c 128,-1,50
 346 1380 346 1380 336 1380 c 0,51,52
 327 1380 327 1380 316 1383.5 c 128,-1,53
 305 1387 305 1387 294.5 1395 c 128,-1,54
 284 1403 284 1403 277 1415.5 c 128,-1,55
 270 1428 270 1428 270 1446 c 0,56,57
 270 1486 270 1486 299 1518.5 c 128,-1,58
 328 1551 328 1551 373.5 1574 c 128,-1,59
 419 1597 419 1597 475 1609.5 c 128,-1,60
 531 1622 531 1622 586 1622 c 0,61,62
 638 1622 638 1622 681 1611 c 128,-1,63
 724 1600 724 1600 754.5 1578.5 c 128,-1,64
 785 1557 785 1557 802 1524 c 128,-1,65
 819 1491 819 1491 819 1446 c 0,66,67
 819 1412 819 1412 805 1379.5 c 128,-1,68
 791 1347 791 1347 764 1318.5 c 128,-1,69
 737 1290 737 1290 697 1266.5 c 128,-1,70
 657 1243 657 1243 606 1227 c 1,71,72
 638 1221 638 1221 667.5 1209.5 c 128,-1,73
 697 1198 697 1198 719.5 1178.5 c 128,-1,74
 742 1159 742 1159 755 1131.5 c 128,-1,75
 768 1104 768 1104 768 1067 c 0,76,77
 768 1006 768 1006 737 952 c 128,-1,78
 706 898 706 898 652.5 857.5 c 128,-1,79
 599 817 599 817 528 793.5 c 128,-1,80
 457 770 457 770 377 770 c 0,81,82
 315 770 315 770 269.5 783 c 128,-1,83
 224 796 224 796 194.5 816.5 c 128,-1,84
 165 837 165 837 151 861.5 c 128,-1,85
 137 886 137 886 137 909 c 0,0,1
EndSplineSet
Validated: 33
EndChar

StartChar: acute
Encoding: 180 180 118
Width: 598
GlyphClass: 2
Flags: W
LayerCount: 2
Fore
SplineSet
274 1128 m 1,0,-1
 553 1448 l 2,1,2
 563 1460 563 1460 574 1469 c 128,-1,3
 585 1478 585 1478 598.5 1485 c 128,-1,4
 612 1492 612 1492 629.5 1495.5 c 128,-1,5
 647 1499 647 1499 670 1499 c 0,6,7
 697 1499 697 1499 716.5 1491 c 128,-1,8
 736 1483 736 1483 748.5 1470.5 c 128,-1,9
 761 1458 761 1458 767.5 1442 c 128,-1,10
 774 1426 774 1426 774 1411 c 0,11,12
 774 1382 774 1382 761 1362.5 c 128,-1,13
 748 1343 748 1343 725 1327 c 2,14,-1
 418 1128 l 1,15,-1
 274 1128 l 1,0,-1
EndSplineSet
Validated: 1
EndChar

StartChar: uni00B5
Encoding: 181 181 119
Width: 1120
GlyphClass: 2
Flags: W
LayerCount: 2
Fore
SplineSet
-57 -369 m 0,0,1
 -57 -340 -57 -340 -46.5 -306.5 c 128,-1,2
 -36 -273 -36 -273 -21.5 -239 c 128,-1,3
 -7 -205 -7 -205 8.5 -172.5 c 128,-1,4
 24 -140 24 -140 35 -113 c 1,5,6
 63 -34 63 -34 83 45.5 c 128,-1,7
 103 125 103 125 119 207 c 2,8,-1
 272 987 l 1,9,-1
 463 987 l 1,10,-1
 348 403 l 2,11,12
 339 360 339 360 331.5 316 c 128,-1,13
 324 272 324 272 324 225 c 0,14,15
 324 200 324 200 331 178 c 128,-1,16
 338 156 338 156 352 139.5 c 128,-1,17
 366 123 366 123 387 113.5 c 128,-1,18
 408 104 408 104 436 104 c 0,19,20
 473 104 473 104 507 117 c 128,-1,21
 541 130 541 130 572.5 151 c 128,-1,22
 604 172 604 172 632 197 c 128,-1,23
 660 222 660 222 686 246 c 1,24,-1
 834 987 l 1,25,-1
 1024 987 l 1,26,-1
 885 281 l 2,27,28
 882 269 882 269 877.5 250.5 c 128,-1,29
 873 232 873 232 869.5 211 c 128,-1,30
 866 190 866 190 865.5 168.5 c 128,-1,31
 865 147 865 147 869 130 c 128,-1,32
 873 113 873 113 884 102.5 c 128,-1,33
 895 92 895 92 915 92 c 0,34,35
 939 92 939 92 957 105.5 c 128,-1,36
 975 119 975 119 988.5 139 c 128,-1,37
 1002 159 1002 159 1011.5 181 c 128,-1,38
 1021 203 1021 203 1028 221 c 1,39,-1
 1069 221 l 1,40,41
 1057 174 1057 174 1035.5 130 c 128,-1,42
 1014 86 1014 86 982.5 51.5 c 128,-1,43
 951 17 951 17 909 -4 c 128,-1,44
 867 -25 867 -25 813 -25 c 0,45,46
 768 -25 768 -25 739.5 -8.5 c 128,-1,47
 711 8 711 8 696 36 c 128,-1,48
 681 64 681 64 676.5 100 c 128,-1,49
 672 136 672 136 674 174 c 1,50,51
 639 142 639 142 600 106.5 c 128,-1,52
 561 71 561 71 517.5 42 c 128,-1,53
 474 13 474 13 426.5 -6 c 128,-1,54
 379 -25 379 -25 328 -25 c 0,55,56
 303 -25 303 -25 278 -20.5 c 128,-1,57
 253 -16 253 -16 231 -5 c 128,-1,58
 209 6 209 6 191.5 23 c 128,-1,59
 174 40 174 40 164 66 c 1,60,61
 150 -7 150 -7 144.5 -76 c 128,-1,62
 139 -145 139 -145 139 -219 c 0,63,64
 139 -251 139 -251 136 -292 c 128,-1,65
 133 -333 133 -333 120 -369 c 128,-1,66
 107 -405 107 -405 82 -430 c 128,-1,67
 57 -455 57 -455 12 -455 c 0,68,69
 -6 -455 -6 -455 -19 -447.5 c 128,-1,70
 -32 -440 -32 -440 -40.5 -428 c 128,-1,71
 -49 -416 -49 -416 -53 -400.5 c 128,-1,72
 -57 -385 -57 -385 -57 -369 c 0,0,1
EndSplineSet
Validated: 33
EndChar

StartChar: paragraph
Encoding: 182 182 120
Width: 995
GlyphClass: 2
Flags: W
LayerCount: 2
Fore
SplineSet
104 973 m 0,0,1
 104 1086 104 1086 136.5 1162.5 c 128,-1,2
 169 1239 169 1239 230.5 1286 c 128,-1,3
 292 1333 292 1333 382 1353.5 c 128,-1,4
 472 1374 472 1374 586 1374 c 2,5,-1
 989 1374 l 1,6,-1
 989 1300 l 1,7,-1
 862 1280 l 1,8,-1
 862 -162 l 1,9,-1
 764 -162 l 1,10,-1
 764 1290 l 1,11,-1
 606 1290 l 1,12,-1
 606 575 l 1,13,14
 495 575 495 575 403 592.5 c 128,-1,15
 311 610 311 610 244.5 655 c 128,-1,16
 178 700 178 700 141 777 c 128,-1,17
 104 854 104 854 104 973 c 0,0,1
EndSplineSet
Validated: 1
EndChar

StartChar: periodcentered
Encoding: 183 183 121
Width: 385
GlyphClass: 2
Flags: W
LayerCount: 2
Fore
SplineSet
72 696 m 256,0,1
 72 721 72 721 81.5 743.5 c 128,-1,2
 91 766 91 766 107 782 c 128,-1,3
 123 798 123 798 145 807.5 c 128,-1,4
 167 817 167 817 193 817 c 0,5,6
 218 817 218 817 240 807.5 c 128,-1,7
 262 798 262 798 278 782 c 128,-1,8
 294 766 294 766 303.5 743.5 c 128,-1,9
 313 721 313 721 313 696 c 256,10,11
 313 671 313 671 303.5 649 c 128,-1,12
 294 627 294 627 278 610.5 c 128,-1,13
 262 594 262 594 240 584.5 c 128,-1,14
 218 575 218 575 193 575 c 0,15,16
 167 575 167 575 145 584.5 c 128,-1,17
 123 594 123 594 107 610.5 c 128,-1,18
 91 627 91 627 81.5 649 c 128,-1,19
 72 671 72 671 72 696 c 256,0,1
EndSplineSet
Validated: 1
EndChar

StartChar: cedilla
Encoding: 184 184 122
Width: 487
GlyphClass: 2
Flags: W
LayerCount: 2
Fore
SplineSet
-117 -432 m 1,0,-1
 -98 -350 l 1,1,2
 -75 -356 -75 -356 -37 -364.5 c 128,-1,3
 1 -373 1 -373 35 -373 c 0,4,5
 49 -373 49 -373 72 -369 c 128,-1,6
 95 -365 95 -365 116.5 -354.5 c 128,-1,7
 138 -344 138 -344 154 -325 c 128,-1,8
 170 -306 170 -306 170 -276 c 0,9,10
 170 -261 170 -261 163.5 -250.5 c 128,-1,11
 157 -240 157 -240 147.5 -233.5 c 128,-1,12
 138 -227 138 -227 126 -224 c 128,-1,13
 114 -221 114 -221 102 -221 c 0,14,15
 93 -221 93 -221 81 -226.5 c 128,-1,16
 69 -232 69 -232 37 -248 c 1,17,-1
 84 0 l 1,18,-1
 190 0 l 1,19,-1
 168 -125 l 1,20,21
 176 -123 176 -123 183.5 -122 c 128,-1,22
 191 -121 191 -121 199 -121 c 0,23,24
 336 -121 336 -121 336 -229 c 0,25,26
 336 -282 336 -282 313 -324.5 c 128,-1,27
 290 -367 290 -367 250 -396.5 c 128,-1,28
 210 -426 210 -426 157.5 -441.5 c 128,-1,29
 105 -457 105 -457 47 -457 c 0,30,31
 24 -457 24 -457 -0.5 -454 c 128,-1,32
 -25 -451 -25 -451 -47 -447.5 c 128,-1,33
 -69 -444 -69 -444 -87.5 -439.5 c 128,-1,34
 -106 -435 -106 -435 -117 -432 c 1,0,-1
EndSplineSet
Validated: 1
EndChar

StartChar: uni00B9
Encoding: 185 185 123
Width: 739
GlyphClass: 2
Flags: W
LayerCount: 2
Fore
SplineSet
236 784 m 1,0,-1
 236 854 l 1,1,-1
 348 858 l 1,2,3
 370 860 370 860 380 869 c 128,-1,4
 390 878 390 878 393 895 c 2,5,-1
 516 1499 l 1,6,-1
 319 1477 l 1,7,-1
 319 1542 l 1,8,-1
 625 1622 l 1,9,-1
 668 1622 l 1,10,-1
 518 895 l 2,11,12
 512 861 512 861 547 858 c 2,13,-1
 635 852 l 1,14,-1
 635 784 l 1,15,-1
 236 784 l 1,0,-1
EndSplineSet
Validated: 1
EndChar

StartChar: ordmasculine
Encoding: 186 186 124
Width: 674
GlyphClass: 2
Flags: W
LayerCount: 2
Fore
SplineSet
72 627 m 1,0,-1
 86 692 l 1,1,-1
 674 692 l 1,2,-1
 659 627 l 1,3,-1
 72 627 l 1,0,-1
150 1001 m 0,4,5
 150 1076 150 1076 175.5 1146 c 128,-1,6
 201 1216 201 1216 247.5 1270.5 c 128,-1,7
 294 1325 294 1325 359 1358 c 128,-1,8
 424 1391 424 1391 502 1391 c 0,9,10
 550 1391 550 1391 593.5 1377 c 128,-1,11
 637 1363 637 1363 669 1334 c 128,-1,12
 701 1305 701 1305 720 1260 c 128,-1,13
 739 1215 739 1215 739 1153 c 0,14,15
 739 1078 739 1078 713 1009 c 128,-1,16
 687 940 687 940 640 887 c 128,-1,17
 593 834 593 834 528 802 c 128,-1,18
 463 770 463 770 385 770 c 0,19,20
 331 770 331 770 287.5 786 c 128,-1,21
 244 802 244 802 213.5 832 c 128,-1,22
 183 862 183 862 166.5 904.5 c 128,-1,23
 150 947 150 947 150 1001 c 0,4,5
285 1008 m 0,24,25
 285 915 285 915 318.5 870 c 128,-1,26
 352 825 352 825 401 825 c 0,27,28
 449 825 449 825 486.5 856.5 c 128,-1,29
 524 888 524 888 550 936.5 c 128,-1,30
 576 985 576 985 590 1044 c 128,-1,31
 604 1103 604 1103 604 1157 c 0,32,33
 604 1245 604 1245 571 1291 c 128,-1,34
 538 1337 538 1337 487 1337 c 0,35,36
 444 1337 444 1337 407 1308 c 128,-1,37
 370 1279 370 1279 343 1232 c 128,-1,38
 316 1185 316 1185 300.5 1126.5 c 128,-1,39
 285 1068 285 1068 285 1008 c 0,24,25
EndSplineSet
Validated: 1
EndChar

StartChar: guillemotright
Encoding: 187 187 125
Width: 905
GlyphClass: 2
Flags: W
LayerCount: 2
Fore
SplineSet
10 115 m 1,0,-1
 41 274 l 1,1,-1
 322 494 l 1,2,-1
 127 707 l 1,3,-1
 154 868 l 1,4,-1
 469 571 l 1,5,-1
 436 412 l 1,6,-1
 10 115 l 1,0,-1
412 115 m 1,7,-1
 446 274 l 1,8,-1
 725 494 l 1,9,-1
 530 707 l 1,10,-1
 559 868 l 1,11,-1
 870 571 l 1,12,-1
 840 412 l 1,13,-1
 412 115 l 1,7,-1
EndSplineSet
Validated: 1
EndChar

StartChar: onequarter
Encoding: 188 188 126
Width: 1800
GlyphClass: 2
Flags: W
LayerCount: 2
Fore
SplineSet
139 598 m 1,0,-1
 139 668 l 1,1,-1
 252 674 l 1,2,3
 274 674 274 674 284 683 c 128,-1,4
 294 692 294 692 299 709 c 1,5,-1
 420 1313 l 1,6,-1
 223 1290 l 1,7,-1
 223 1356 l 1,8,-1
 528 1436 l 1,9,-1
 571 1436 l 1,10,-1
 422 709 l 1,11,12
 416 674 416 674 451 674 c 1,13,-1
 539 666 l 1,14,-1
 539 598 l 1,15,-1
 139 598 l 1,0,-1
205 0 m 1,16,-1
 1395 1430 l 1,17,-1
 1540 1430 l 1,18,-1
 350 0 l 1,19,-1
 205 0 l 1,16,-1
907 238 m 1,20,-1
 926 328 l 1,21,-1
 1483 840 l 1,22,-1
 1577 840 l 1,23,-1
 1470 332 l 1,24,-1
 1618 332 l 1,25,-1
 1597 238 l 1,26,-1
 1450 238 l 1,27,-1
 1391 -43 l 1,28,-1
 1272 -43 l 1,29,-1
 1329 238 l 1,30,-1
 907 238 l 1,20,-1
1055 332 m 1,31,-1
 1352 332 l 1,32,-1
 1421 674 l 1,33,-1
 1055 332 l 1,31,-1
EndSplineSet
Validated: 1
EndChar

StartChar: onehalf
Encoding: 189 189 127
Width: 1800
GlyphClass: 2
Flags: W
LayerCount: 2
Fore
SplineSet
139 598 m 1,0,-1
 139 668 l 1,1,-1
 252 674 l 1,2,3
 274 674 274 674 284 683 c 128,-1,4
 294 692 294 692 299 709 c 1,5,-1
 420 1313 l 1,6,-1
 223 1290 l 1,7,-1
 223 1356 l 1,8,-1
 528 1436 l 1,9,-1
 571 1436 l 1,10,-1
 422 709 l 1,11,12
 416 674 416 674 451 674 c 1,13,-1
 539 666 l 1,14,-1
 539 598 l 1,15,-1
 139 598 l 1,0,-1
205 0 m 1,16,-1
 1395 1430 l 1,17,-1
 1540 1430 l 1,18,-1
 350 0 l 1,19,-1
 205 0 l 1,16,-1
938 0 m 1,20,-1
 958 90 l 1,21,22
 1002 119 1002 119 1061.5 154 c 128,-1,23
 1121 189 1121 189 1183.5 230.5 c 128,-1,24
 1246 272 1246 272 1307 319 c 128,-1,25
 1368 366 1368 366 1416.5 417.5 c 128,-1,26
 1465 469 1465 469 1494.5 525.5 c 128,-1,27
 1524 582 1524 582 1524 643 c 0,28,29
 1524 708 1524 708 1485.5 737 c 128,-1,30
 1447 766 1447 766 1384 766 c 0,31,32
 1342 766 1342 766 1311.5 755 c 128,-1,33
 1281 744 1281 744 1272 739 c 1,34,-1
 1245 612 l 1,35,36
 1237 605 1237 605 1226 601 c 1,37,38
 1217 596 1217 596 1204 593 c 128,-1,39
 1191 590 1191 590 1174 590 c 0,40,41
 1166 590 1166 590 1154 591.5 c 128,-1,42
 1142 593 1142 593 1131 599 c 128,-1,43
 1120 605 1120 605 1112 616.5 c 128,-1,44
 1104 628 1104 628 1104 647 c 0,45,46
 1104 685 1104 685 1131 721 c 128,-1,47
 1158 757 1158 757 1203 784.5 c 128,-1,48
 1248 812 1248 812 1306 829 c 128,-1,49
 1364 846 1364 846 1425 846 c 0,50,51
 1473 846 1473 846 1517 836 c 128,-1,52
 1561 826 1561 826 1594.5 804 c 128,-1,53
 1628 782 1628 782 1648.5 745.5 c 128,-1,54
 1669 709 1669 709 1669 657 c 0,55,56
 1669 600 1669 600 1640.5 545 c 128,-1,57
 1612 490 1612 490 1566.5 438.5 c 128,-1,58
 1521 387 1521 387 1462.5 340.5 c 128,-1,59
 1404 294 1404 294 1344.5 252.5 c 128,-1,60
 1285 211 1285 211 1228.5 176.5 c 128,-1,61
 1172 142 1172 142 1130 115 c 1,62,-1
 1491 115 l 1,63,-1
 1536 215 l 1,64,-1
 1612 215 l 1,65,-1
 1567 0 l 1,66,-1
 938 0 l 1,20,-1
EndSplineSet
Validated: 1
EndChar

StartChar: threequarters
Encoding: 190 190 128
Width: 1800
GlyphClass: 2
Flags: W
LayerCount: 2
Fore
SplineSet
92 725 m 0,0,1
 92 734 92 734 95 747.5 c 128,-1,2
 98 761 98 761 106.5 773.5 c 128,-1,3
 115 786 115 786 130.5 794.5 c 128,-1,4
 146 803 146 803 172 803 c 0,5,6
 183 803 183 803 192.5 801 c 128,-1,7
 202 799 202 799 210 797 c 0,8,9
 219 794 219 794 227 791 c 1,10,-1
 248 686 l 1,11,12
 257 681 257 681 285 670 c 128,-1,13
 313 659 313 659 350 659 c 0,14,15
 401 659 401 659 445 675.5 c 128,-1,16
 489 692 489 692 520.5 720 c 128,-1,17
 552 748 552 748 570 785.5 c 128,-1,18
 588 823 588 823 588 866 c 0,19,20
 588 918 588 918 563.5 944.5 c 128,-1,21
 539 971 539 971 503 981.5 c 128,-1,22
 467 992 467 992 424.5 990.5 c 128,-1,23
 382 989 382 989 346 985 c 1,24,-1
 360 1073 l 1,25,26
 426 1069 426 1069 478 1081.5 c 128,-1,27
 530 1094 530 1094 566 1118 c 128,-1,28
 602 1142 602 1142 620.5 1176 c 128,-1,29
 639 1210 639 1210 639 1249 c 0,30,31
 639 1282 639 1282 626.5 1305 c 128,-1,32
 614 1328 614 1328 594.5 1342.5 c 128,-1,33
 575 1357 575 1357 551 1363.5 c 128,-1,34
 527 1370 527 1370 504 1370 c 0,35,36
 479 1370 479 1370 458.5 1365.5 c 128,-1,37
 438 1361 438 1361 422.5 1355.5 c 128,-1,38
 407 1350 407 1350 397 1344 c 128,-1,39
 387 1338 387 1338 383 1335 c 1,40,-1
 365 1219 l 1,41,42
 352 1213 352 1213 339 1209 c 0,43,44
 328 1205 328 1205 315.5 1202.5 c 128,-1,45
 303 1200 303 1200 293 1200 c 0,46,47
 284 1200 284 1200 272.5 1203.5 c 128,-1,48
 261 1207 261 1207 251 1215.5 c 128,-1,49
 241 1224 241 1224 234 1237 c 128,-1,50
 227 1250 227 1250 227 1268 c 0,51,52
 227 1308 227 1308 256 1340.5 c 128,-1,53
 285 1373 285 1373 331.5 1396.5 c 128,-1,54
 378 1420 378 1420 434.5 1433 c 128,-1,55
 491 1446 491 1446 547 1446 c 0,56,57
 600 1446 600 1446 643.5 1434.5 c 128,-1,58
 687 1423 687 1423 718.5 1400.5 c 128,-1,59
 750 1378 750 1378 767 1344.5 c 128,-1,60
 784 1311 784 1311 784 1266 c 0,61,62
 784 1232 784 1232 770 1199.5 c 128,-1,63
 756 1167 756 1167 729 1137.5 c 128,-1,64
 702 1108 702 1108 661.5 1084 c 128,-1,65
 621 1060 621 1060 569 1044 c 1,66,67
 601 1039 601 1039 630.5 1027.5 c 128,-1,68
 660 1016 660 1016 682.5 997 c 128,-1,69
 705 978 705 978 718 950 c 128,-1,70
 731 922 731 922 731 885 c 0,71,72
 731 823 731 823 699.5 769 c 128,-1,73
 668 715 668 715 614 674 c 128,-1,74
 560 633 560 633 488.5 609.5 c 128,-1,75
 417 586 417 586 336 586 c 0,76,77
 272 586 272 586 226 599 c 128,-1,78
 180 612 180 612 150 632 c 128,-1,79
 120 652 120 652 106 676.5 c 128,-1,80
 92 701 92 701 92 725 c 0,0,1
299 0 m 1,81,-1
 1489 1430 l 1,82,-1
 1634 1430 l 1,83,-1
 444 0 l 1,84,-1
 299 0 l 1,81,-1
973 238 m 1,85,-1
 991 328 l 1,86,-1
 1550 840 l 1,87,-1
 1642 840 l 1,88,-1
 1536 332 l 1,89,-1
 1683 332 l 1,90,-1
 1663 238 l 1,91,-1
 1516 238 l 1,92,-1
 1458 -43 l 1,93,-1
 1339 -43 l 1,94,-1
 1397 238 l 1,95,-1
 973 238 l 1,85,-1
1120 332 m 1,96,-1
 1417 332 l 1,97,-1
 1489 674 l 1,98,-1
 1120 332 l 1,96,-1
EndSplineSet
Validated: 33
EndChar

StartChar: questiondown
Encoding: 191 191 129
Width: 995
GlyphClass: 2
Flags: W
LayerCount: 2
Fore
SplineSet
26 -135 m 0,0,1
 26 -31 26 -31 67.5 51 c 128,-1,2
 109 133 109 133 176 196.5 c 128,-1,3
 243 260 243 260 326 307 c 128,-1,4
 409 354 409 354 493 389 c 1,5,-1
 541 633 l 1,6,-1
 680 633 l 1,7,-1
 622 328 l 1,8,9
 552 306 552 306 485.5 266.5 c 128,-1,10
 419 227 419 227 366.5 171.5 c 128,-1,11
 314 116 314 116 282 45 c 128,-1,12
 250 -26 250 -26 250 -112 c 0,13,14
 250 -218 250 -218 307.5 -271.5 c 128,-1,15
 365 -325 365 -325 465 -325 c 1,16,-1
 588 -123 l 1,17,-1
 647 -123 l 2,18,19
 700 -123 700 -123 730 -144.5 c 128,-1,20
 760 -166 760 -166 760 -207 c 0,21,22
 760 -237 760 -237 742.5 -275 c 128,-1,23
 725 -313 725 -313 683 -347 c 128,-1,24
 641 -381 641 -381 572 -404.5 c 128,-1,25
 503 -428 503 -428 401 -428 c 0,26,27
 311 -428 311 -428 241 -407.5 c 128,-1,28
 171 -387 171 -387 123 -349 c 128,-1,29
 75 -311 75 -311 50.5 -257 c 128,-1,30
 26 -203 26 -203 26 -135 c 0,0,1
512 889 m 256,31,32
 512 913 512 913 520.5 935 c 128,-1,33
 529 957 529 957 545.5 974.5 c 128,-1,34
 562 992 562 992 586.5 1002 c 128,-1,35
 611 1012 611 1012 643 1012 c 0,36,37
 674 1012 674 1012 699.5 1002 c 128,-1,38
 725 992 725 992 742 975.5 c 128,-1,39
 759 959 759 959 768.5 937 c 128,-1,40
 778 915 778 915 778 891 c 256,41,42
 778 867 778 867 768.5 844.5 c 128,-1,43
 759 822 759 822 742 804 c 128,-1,44
 725 786 725 786 699.5 775 c 128,-1,45
 674 764 674 764 643 764 c 0,46,47
 611 764 611 764 586.5 774.5 c 128,-1,48
 562 785 562 785 545.5 802.5 c 128,-1,49
 529 820 529 820 520.5 842.5 c 128,-1,50
 512 865 512 865 512 889 c 256,31,32
EndSplineSet
Validated: 1
EndChar

StartChar: Agrave
Encoding: 192 192 130
Width: 1378
GlyphClass: 2
Flags: W
LayerCount: 2
Fore
SplineSet
-109 0 m 1,0,-1
 -109 86 l 1,1,-1
 6 98 l 1,2,-1
 762 1407 l 1,3,-1
 926 1407 l 1,4,-1
 1147 135 l 2,5,6
 1150 115 1150 115 1158 106.5 c 128,-1,7
 1166 98 1166 98 1188 96 c 2,8,-1
 1282 86 l 1,9,-1
 1282 0 l 1,10,-1
 801 0 l 1,11,-1
 801 86 l 1,12,-1
 895 96 l 1,13,14
 940 102 940 102 934 135 c 2,15,-1
 872 526 l 1,16,-1
 408 526 l 1,17,-1
 199 135 l 2,18,19
 188 115 188 115 198.5 107 c 128,-1,20
 209 99 209 99 238 96 c 2,21,-1
 332 86 l 1,22,-1
 332 0 l 1,23,-1
 -109 0 l 1,0,-1
463 623 m 1,24,-1
 854 623 l 1,25,-1
 766 1155 l 1,26,-1
 463 623 l 1,24,-1
576 1809 m 0,27,28
 576 1824 576 1824 580.5 1840 c 128,-1,29
 585 1856 585 1856 595.5 1869 c 128,-1,30
 606 1882 606 1882 623.5 1890.5 c 128,-1,31
 641 1899 641 1899 668 1899 c 0,32,33
 690 1899 690 1899 705.5 1895 c 128,-1,34
 721 1891 721 1891 733 1884.5 c 128,-1,35
 745 1878 745 1878 754.5 1868.5 c 128,-1,36
 764 1859 764 1859 773 1848 c 2,37,-1
 1047 1528 l 1,38,-1
 920 1528 l 1,39,-1
 623 1723 l 2,40,41
 602 1737 602 1737 589 1757.5 c 128,-1,42
 576 1778 576 1778 576 1809 c 0,27,28
EndSplineSet
Validated: 1
EndChar

StartChar: Aacute
Encoding: 193 193 131
Width: 1378
GlyphClass: 2
Flags: W
LayerCount: 2
Fore
SplineSet
-109 0 m 1,0,-1
 -109 86 l 1,1,-1
 6 98 l 1,2,-1
 762 1407 l 1,3,-1
 926 1407 l 1,4,-1
 1147 135 l 2,5,6
 1150 115 1150 115 1158 106.5 c 128,-1,7
 1166 98 1166 98 1188 96 c 2,8,-1
 1282 86 l 1,9,-1
 1282 0 l 1,10,-1
 801 0 l 1,11,-1
 801 86 l 1,12,-1
 895 96 l 1,13,14
 940 102 940 102 934 135 c 2,15,-1
 872 526 l 1,16,-1
 408 526 l 1,17,-1
 199 135 l 2,18,19
 188 115 188 115 198.5 107 c 128,-1,20
 209 99 209 99 238 96 c 2,21,-1
 332 86 l 1,22,-1
 332 0 l 1,23,-1
 -109 0 l 1,0,-1
463 623 m 1,24,-1
 854 623 l 1,25,-1
 766 1155 l 1,26,-1
 463 623 l 1,24,-1
677 1528 m 1,27,-1
 956 1848 l 2,28,29
 966 1860 966 1860 977 1869 c 128,-1,30
 988 1878 988 1878 1001.5 1885 c 128,-1,31
 1015 1892 1015 1892 1032.5 1895.5 c 128,-1,32
 1050 1899 1050 1899 1073 1899 c 0,33,34
 1100 1899 1100 1899 1119.5 1891 c 128,-1,35
 1139 1883 1139 1883 1151.5 1870.5 c 128,-1,36
 1164 1858 1164 1858 1170.5 1842 c 128,-1,37
 1177 1826 1177 1826 1177 1811 c 0,38,39
 1177 1782 1177 1782 1164 1762.5 c 128,-1,40
 1151 1743 1151 1743 1128 1727 c 2,41,-1
 821 1528 l 1,42,-1
 677 1528 l 1,27,-1
EndSplineSet
Validated: 1
EndChar

StartChar: Acircumflex
Encoding: 194 194 132
Width: 1378
GlyphClass: 2
Flags: W
LayerCount: 2
Fore
SplineSet
-109 0 m 1,0,-1
 -109 86 l 1,1,-1
 6 98 l 1,2,-1
 762 1407 l 1,3,-1
 926 1407 l 1,4,-1
 1147 135 l 2,5,6
 1150 115 1150 115 1158 106.5 c 128,-1,7
 1166 98 1166 98 1188 96 c 2,8,-1
 1282 86 l 1,9,-1
 1282 0 l 1,10,-1
 801 0 l 1,11,-1
 801 86 l 1,12,-1
 895 96 l 1,13,14
 940 102 940 102 934 135 c 2,15,-1
 872 526 l 1,16,-1
 408 526 l 1,17,-1
 199 135 l 2,18,19
 188 115 188 115 198.5 107 c 128,-1,20
 209 99 209 99 238 96 c 2,21,-1
 332 86 l 1,22,-1
 332 0 l 1,23,-1
 -109 0 l 1,0,-1
463 623 m 1,24,-1
 854 623 l 1,25,-1
 766 1155 l 1,26,-1
 463 623 l 1,24,-1
494 1528 m 1,27,-1
 832 1875 l 1,28,-1
 993 1875 l 1,29,-1
 1194 1528 l 1,30,-1
 1051 1528 l 1,31,-1
 883 1717 l 1,32,-1
 637 1528 l 1,33,-1
 494 1528 l 1,27,-1
EndSplineSet
Validated: 1
EndChar

StartChar: Atilde
Encoding: 195 195 133
Width: 1378
GlyphClass: 2
Flags: W
LayerCount: 2
Fore
SplineSet
-109 0 m 1,0,-1
 -109 86 l 1,1,-1
 6 98 l 1,2,-1
 762 1407 l 1,3,-1
 926 1407 l 1,4,-1
 1147 135 l 2,5,6
 1150 115 1150 115 1158 106.5 c 128,-1,7
 1166 98 1166 98 1188 96 c 2,8,-1
 1282 86 l 1,9,-1
 1282 0 l 1,10,-1
 801 0 l 1,11,-1
 801 86 l 1,12,-1
 895 96 l 1,13,14
 940 102 940 102 934 135 c 2,15,-1
 872 526 l 1,16,-1
 408 526 l 1,17,-1
 199 135 l 2,18,19
 188 115 188 115 198.5 107 c 128,-1,20
 209 99 209 99 238 96 c 2,21,-1
 332 86 l 1,22,-1
 332 0 l 1,23,-1
 -109 0 l 1,0,-1
463 623 m 1,24,-1
 854 623 l 1,25,-1
 766 1155 l 1,26,-1
 463 623 l 1,24,-1
487 1598 m 1,27,28
 508 1643 508 1643 536.5 1682.5 c 128,-1,29
 565 1722 565 1722 601 1751.5 c 128,-1,30
 637 1781 637 1781 682 1798 c 128,-1,31
 727 1815 727 1815 782 1815 c 0,32,33
 824 1815 824 1815 855.5 1801.5 c 128,-1,34
 887 1788 887 1788 919 1766 c 1,35,36
 945 1751 945 1751 974 1736 c 128,-1,37
 1003 1721 1003 1721 1050 1721 c 0,38,39
 1064 1721 1064 1721 1080.5 1728 c 128,-1,40
 1097 1735 1097 1735 1113 1747.5 c 128,-1,41
 1129 1760 1129 1760 1142.5 1777 c 128,-1,42
 1156 1794 1156 1794 1165 1815 c 1,43,-1
 1274 1815 l 1,44,45
 1252 1770 1252 1770 1223.5 1730.5 c 128,-1,46
 1195 1691 1195 1691 1158.5 1661.5 c 128,-1,47
 1122 1632 1122 1632 1077 1615 c 128,-1,48
 1032 1598 1032 1598 977 1598 c 0,49,50
 935 1598 935 1598 904 1611.5 c 128,-1,51
 873 1625 873 1625 841 1645 c 0,52,53
 828 1654 828 1654 815 1662 c 128,-1,54
 802 1670 802 1670 786.5 1677 c 128,-1,55
 771 1684 771 1684 752.5 1688 c 128,-1,56
 734 1692 734 1692 710 1692 c 0,57,58
 697 1692 697 1692 680.5 1685 c 128,-1,59
 664 1678 664 1678 648 1665.5 c 128,-1,60
 632 1653 632 1653 618 1636 c 128,-1,61
 604 1619 604 1619 596 1598 c 1,62,-1
 487 1598 l 1,27,28
EndSplineSet
Validated: 1
EndChar

StartChar: Adieresis
Encoding: 196 196 134
Width: 1378
GlyphClass: 2
Flags: W
LayerCount: 2
Fore
SplineSet
-109 0 m 1,0,-1
 -109 86 l 1,1,-1
 6 98 l 1,2,-1
 762 1407 l 1,3,-1
 926 1407 l 1,4,-1
 1147 135 l 2,5,6
 1150 115 1150 115 1158 106.5 c 128,-1,7
 1166 98 1166 98 1188 96 c 2,8,-1
 1282 86 l 1,9,-1
 1282 0 l 1,10,-1
 801 0 l 1,11,-1
 801 86 l 1,12,-1
 895 96 l 1,13,14
 940 102 940 102 934 135 c 2,15,-1
 872 526 l 1,16,-1
 408 526 l 1,17,-1
 199 135 l 2,18,19
 188 115 188 115 198.5 107 c 128,-1,20
 209 99 209 99 238 96 c 2,21,-1
 332 86 l 1,22,-1
 332 0 l 1,23,-1
 -109 0 l 1,0,-1
463 623 m 1,24,-1
 854 623 l 1,25,-1
 766 1155 l 1,26,-1
 463 623 l 1,24,-1
558 1711 m 0,27,28
 558 1733 558 1733 567 1753.5 c 128,-1,29
 576 1774 576 1774 591 1790 c 128,-1,30
 606 1806 606 1806 626 1815.5 c 128,-1,31
 646 1825 646 1825 668 1825 c 0,32,33
 691 1825 691 1825 711.5 1816 c 128,-1,34
 732 1807 732 1807 747.5 1792 c 128,-1,35
 763 1777 763 1777 772 1756.5 c 128,-1,36
 781 1736 781 1736 781 1713 c 256,37,38
 781 1690 781 1690 772 1669 c 128,-1,39
 763 1648 763 1648 747.5 1632 c 128,-1,40
 732 1616 732 1616 711.5 1607 c 128,-1,41
 691 1598 691 1598 668 1598 c 0,42,43
 646 1598 646 1598 626 1607 c 128,-1,44
 606 1616 606 1616 591 1632 c 128,-1,45
 576 1648 576 1648 567 1668 c 128,-1,46
 558 1688 558 1688 558 1711 c 0,27,28
982 1713 m 0,47,48
 982 1734 982 1734 991.5 1754.5 c 128,-1,49
 1001 1775 1001 1775 1016.5 1790.5 c 128,-1,50
 1032 1806 1032 1806 1052.5 1815.5 c 128,-1,51
 1073 1825 1073 1825 1094 1825 c 0,52,53
 1117 1825 1117 1825 1137.5 1816 c 128,-1,54
 1158 1807 1158 1807 1173 1792 c 128,-1,55
 1188 1777 1188 1777 1196.5 1756.5 c 128,-1,56
 1205 1736 1205 1736 1205 1713 c 256,57,58
 1205 1690 1205 1690 1196.5 1669 c 128,-1,59
 1188 1648 1188 1648 1173 1632 c 128,-1,60
 1158 1616 1158 1616 1137.5 1607 c 128,-1,61
 1117 1598 1117 1598 1094 1598 c 256,62,63
 1071 1598 1071 1598 1050.5 1607 c 128,-1,64
 1030 1616 1030 1616 1015 1632 c 128,-1,65
 1000 1648 1000 1648 991 1669 c 128,-1,66
 982 1690 982 1690 982 1713 c 0,47,48
EndSplineSet
Validated: 1
EndChar

StartChar: Aring
Encoding: 197 197 135
Width: 1378
GlyphClass: 2
Flags: W
LayerCount: 2
Fore
SplineSet
-109 0 m 1,0,-1
 -109 86 l 1,1,-1
 6 98 l 1,2,-1
 762 1407 l 1,3,-1
 926 1407 l 1,4,-1
 1147 135 l 2,5,6
 1150 115 1150 115 1158 106.5 c 128,-1,7
 1166 98 1166 98 1188 96 c 2,8,-1
 1282 86 l 1,9,-1
 1282 0 l 1,10,-1
 801 0 l 1,11,-1
 801 86 l 1,12,-1
 895 96 l 1,13,14
 940 102 940 102 934 135 c 2,15,-1
 872 526 l 1,16,-1
 408 526 l 1,17,-1
 199 135 l 2,18,19
 188 115 188 115 198.5 107 c 128,-1,20
 209 99 209 99 238 96 c 2,21,-1
 332 86 l 1,22,-1
 332 0 l 1,23,-1
 -109 0 l 1,0,-1
463 623 m 1,24,-1
 854 623 l 1,25,-1
 766 1155 l 1,26,-1
 463 623 l 1,24,-1
651 1723 m 0,27,28
 651 1779 651 1779 674.5 1830.5 c 128,-1,29
 698 1882 698 1882 737.5 1921.5 c 128,-1,30
 777 1961 777 1961 828.5 1984.5 c 128,-1,31
 880 2008 880 2008 936 2008 c 0,32,33
 979 2008 979 2008 1015.5 1993.5 c 128,-1,34
 1052 1979 1052 1979 1079 1952.5 c 128,-1,35
 1106 1926 1106 1926 1121 1890 c 128,-1,36
 1136 1854 1136 1854 1136 1811 c 0,37,38
 1136 1754 1136 1754 1112.5 1703 c 128,-1,39
 1089 1652 1089 1652 1049 1613 c 128,-1,40
 1009 1574 1009 1574 957.5 1551 c 128,-1,41
 906 1528 906 1528 850 1528 c 0,42,43
 807 1528 807 1528 770.5 1542.5 c 128,-1,44
 734 1557 734 1557 707.5 1583 c 128,-1,45
 681 1609 681 1609 666 1645 c 128,-1,46
 651 1681 651 1681 651 1723 c 0,27,28
755 1741 m 0,47,48
 755 1693 755 1693 787.5 1664 c 128,-1,49
 820 1635 820 1635 866 1635 c 0,50,51
 897 1635 897 1635 927 1648.5 c 128,-1,52
 957 1662 957 1662 979.5 1684.5 c 128,-1,53
 1002 1707 1002 1707 1016 1736 c 128,-1,54
 1030 1765 1030 1765 1030 1797 c 0,55,56
 1030 1845 1030 1845 999 1873 c 128,-1,57
 968 1901 968 1901 921 1901 c 0,58,59
 889 1901 889 1901 859.5 1888 c 128,-1,60
 830 1875 830 1875 806.5 1853 c 128,-1,61
 783 1831 783 1831 769 1802 c 128,-1,62
 755 1773 755 1773 755 1741 c 0,47,48
EndSplineSet
Validated: 1
EndChar

StartChar: AE
Encoding: 198 198 136
Width: 1917
GlyphClass: 2
Flags: W
LayerCount: 2
Fore
SplineSet
-109 0 m 1,0,-1
 -109 86 l 1,1,-1
 -10 96 l 2,2,3
 4 98 4 98 15.5 109 c 128,-1,4
 27 120 27 120 41 135 c 1,5,-1
 940 1237 l 2,6,7
 951 1249 951 1249 948.5 1262.5 c 128,-1,8
 946 1276 946 1276 934 1278 c 2,9,-1
 819 1288 l 1,10,-1
 819 1374 l 1,11,-1
 1962 1374 l 1,12,-1
 1901 1067 l 1,13,-1
 1769 1067 l 1,14,-1
 1769 1233 l 2,15,16
 1769 1255 1769 1255 1761.5 1263.5 c 128,-1,17
 1754 1272 1754 1272 1731 1272 c 2,18,-1
 1362 1272 l 1,19,-1
 1264 768 l 1,20,-1
 1520 768 l 2,21,22
 1541 768 1541 768 1552 776.5 c 128,-1,23
 1563 785 1563 785 1569 807 c 2,24,-1
 1608 944 l 1,25,-1
 1724 944 l 1,26,-1
 1632 475 l 1,27,-1
 1518 475 l 1,28,-1
 1536 621 l 2,29,30
 1542 662 1542 662 1497 662 c 2,31,-1
 1243 662 l 1,32,-1
 1135 102 l 1,33,-1
 1597 102 l 2,34,35
 1617 102 1617 102 1628.5 113.5 c 128,-1,36
 1640 125 1640 125 1647 143 c 1,37,-1
 1710 340 l 1,38,-1
 1835 340 l 1,39,-1
 1769 0 l 1,40,-1
 768 0 l 1,41,-1
 768 86 l 1,42,-1
 893 96 l 2,43,44
 912 98 912 98 921 111 c 128,-1,45
 930 124 930 124 932 135 c 2,46,-1
 1008 518 l 1,47,-1
 547 518 l 1,48,-1
 231 135 l 2,49,50
 220 123 220 123 232 111 c 128,-1,51
 244 99 244 99 270 96 c 2,52,-1
 358 86 l 1,53,-1
 358 0 l 1,54,-1
 -109 0 l 1,0,-1
633 627 m 1,55,-1
 1028 627 l 1,56,-1
 1149 1253 l 1,57,-1
 633 627 l 1,55,-1
EndSplineSet
Validated: 1
EndChar

StartChar: Ccedilla
Encoding: 199 199 137
Width: 1290
GlyphClass: 2
Flags: W
LayerCount: 2
Fore
SplineSet
98 547 m 0,0,1
 98 656 98 656 125 762 c 128,-1,2
 152 868 152 868 203 963.5 c 128,-1,3
 254 1059 254 1059 327 1140.5 c 128,-1,4
 400 1222 400 1222 491.5 1281 c 128,-1,5
 583 1340 583 1340 691.5 1373.5 c 128,-1,6
 800 1407 800 1407 922 1407 c 0,7,8
 972 1407 972 1407 1018 1401.5 c 128,-1,9
 1064 1396 1064 1396 1111 1385.5 c 128,-1,10
 1158 1375 1158 1375 1209 1359.5 c 128,-1,11
 1260 1344 1260 1344 1319 1325 c 1,12,-1
 1264 1006 l 1,13,-1
 1143 1006 l 1,14,-1
 1143 1196 l 2,15,16
 1143 1212 1143 1212 1131.5 1229 c 128,-1,17
 1120 1246 1120 1246 1106 1251 c 0,18,19
 1102 1253 1102 1253 1088 1261.5 c 128,-1,20
 1074 1270 1074 1270 1051.5 1279 c 128,-1,21
 1029 1288 1029 1288 999 1295.5 c 128,-1,22
 969 1303 969 1303 932 1303 c 0,23,24
 853 1303 853 1303 777 1278 c 128,-1,25
 701 1253 701 1253 632.5 1206 c 128,-1,26
 564 1159 564 1159 506 1091 c 128,-1,27
 448 1023 448 1023 405.5 936.5 c 128,-1,28
 363 850 363 850 339 746 c 128,-1,29
 315 642 315 642 315 524 c 0,30,31
 315 408 315 408 348.5 323 c 128,-1,32
 382 238 382 238 439 182 c 128,-1,33
 496 126 496 126 572.5 99 c 128,-1,34
 649 72 649 72 735 72 c 0,35,36
 768 72 768 72 795 76.5 c 128,-1,37
 822 81 822 81 841.5 87 c 128,-1,38
 861 93 861 93 873 98.5 c 128,-1,39
 885 104 885 104 889 106 c 1,40,41
 901 108 901 108 915.5 120.5 c 128,-1,42
 930 133 930 133 936 147 c 2,43,-1
 1024 381 l 1,44,-1
 1145 381 l 1,45,-1
 1090 49 l 1,46,47
 1078 45 1078 45 1038.5 32 c 128,-1,48
 999 19 999 19 941.5 4.5 c 128,-1,49
 884 -10 884 -10 813 -21.5 c 128,-1,50
 742 -33 742 -33 668 -33 c 2,51,-1
 665 -33 l 1,52,-1
 649 -125 l 1,53,54
 657 -123 657 -123 664.5 -122 c 128,-1,55
 672 -121 672 -121 680 -121 c 0,56,57
 817 -121 817 -121 817 -229 c 0,58,59
 817 -282 817 -282 794 -324.5 c 128,-1,60
 771 -367 771 -367 731 -396.5 c 128,-1,61
 691 -426 691 -426 638.5 -441.5 c 128,-1,62
 586 -457 586 -457 528 -457 c 0,63,64
 505 -457 505 -457 480.5 -454 c 128,-1,65
 456 -451 456 -451 434 -447.5 c 128,-1,66
 412 -444 412 -444 393.5 -439.5 c 128,-1,67
 375 -435 375 -435 364 -432 c 1,68,-1
 383 -350 l 1,69,70
 406 -356 406 -356 444 -364.5 c 128,-1,71
 482 -373 482 -373 516 -373 c 0,72,73
 530 -373 530 -373 553 -369 c 128,-1,74
 576 -365 576 -365 597.5 -354.5 c 128,-1,75
 619 -344 619 -344 635 -325 c 128,-1,76
 651 -306 651 -306 651 -276 c 0,77,78
 651 -261 651 -261 644.5 -250.5 c 128,-1,79
 638 -240 638 -240 628.5 -233.5 c 128,-1,80
 619 -227 619 -227 607 -224 c 128,-1,81
 595 -221 595 -221 583 -221 c 0,82,83
 574 -221 574 -221 562 -226.5 c 128,-1,84
 550 -232 550 -232 518 -248 c 1,85,-1
 560 -26 l 1,86,87
 520 -20 520 -20 484 -10 c 0,88,89
 402 13 402 13 339 53 c 128,-1,90
 276 93 276 93 230 148 c 128,-1,91
 184 203 184 203 155 267.5 c 128,-1,92
 126 332 126 332 112 403 c 128,-1,93
 98 474 98 474 98 547 c 0,0,1
EndSplineSet
Validated: 1
EndChar

StartChar: Egrave
Encoding: 200 200 138
Width: 1143
GlyphClass: 2
Flags: W
LayerCount: 2
Fore
SplineSet
-31 0 m 1,0,-1
 -31 86 l 1,1,-1
 88 96 l 2,2,3
 131 99 131 99 137 135 c 2,4,-1
 350 1237 l 2,5,6
 353 1254 353 1254 345 1265 c 128,-1,7
 337 1276 337 1276 311 1278 c 2,8,-1
 197 1288 l 1,9,-1
 197 1374 l 1,10,-1
 1188 1374 l 1,11,-1
 1126 1067 l 1,12,-1
 995 1067 l 1,13,-1
 995 1233 l 2,14,15
 995 1255 995 1255 987 1263.5 c 128,-1,16
 979 1272 979 1272 956 1272 c 2,17,-1
 563 1272 l 1,18,-1
 469 768 l 1,19,-1
 743 768 l 2,20,21
 765 768 765 768 776.5 776.5 c 128,-1,22
 788 785 788 785 795 807 c 2,23,-1
 834 944 l 1,24,-1
 948 944 l 1,25,-1
 858 475 l 1,26,-1
 741 475 l 1,27,-1
 762 621 l 2,28,29
 768 662 768 662 723 662 c 2,30,-1
 446 662 l 1,31,-1
 340 102 l 1,32,-1
 821 102 l 2,33,34
 843 102 843 102 854.5 113.5 c 128,-1,35
 866 125 866 125 872 143 c 2,36,-1
 936 340 l 1,37,-1
 1061 340 l 1,38,-1
 993 0 l 1,39,-1
 -31 0 l 1,0,-1
471 1809 m 0,40,41
 471 1824 471 1824 475.5 1840 c 128,-1,42
 480 1856 480 1856 490.5 1869 c 128,-1,43
 501 1882 501 1882 518.5 1890.5 c 128,-1,44
 536 1899 536 1899 563 1899 c 0,45,46
 585 1899 585 1899 600.5 1895 c 128,-1,47
 616 1891 616 1891 628 1884.5 c 128,-1,48
 640 1878 640 1878 649.5 1868.5 c 128,-1,49
 659 1859 659 1859 668 1848 c 2,50,-1
 942 1528 l 1,51,-1
 815 1528 l 1,52,-1
 518 1723 l 2,53,54
 497 1737 497 1737 484 1757.5 c 128,-1,55
 471 1778 471 1778 471 1809 c 0,40,41
EndSplineSet
Validated: 1
EndChar

StartChar: Eacute
Encoding: 201 201 139
Width: 1143
GlyphClass: 2
Flags: W
LayerCount: 2
Fore
SplineSet
-31 0 m 1,0,-1
 -31 86 l 1,1,-1
 88 96 l 2,2,3
 131 99 131 99 137 135 c 2,4,-1
 350 1237 l 2,5,6
 353 1254 353 1254 345 1265 c 128,-1,7
 337 1276 337 1276 311 1278 c 2,8,-1
 197 1288 l 1,9,-1
 197 1374 l 1,10,-1
 1188 1374 l 1,11,-1
 1126 1067 l 1,12,-1
 995 1067 l 1,13,-1
 995 1233 l 2,14,15
 995 1255 995 1255 987 1263.5 c 128,-1,16
 979 1272 979 1272 956 1272 c 2,17,-1
 563 1272 l 1,18,-1
 469 768 l 1,19,-1
 743 768 l 2,20,21
 765 768 765 768 776.5 776.5 c 128,-1,22
 788 785 788 785 795 807 c 2,23,-1
 834 944 l 1,24,-1
 948 944 l 1,25,-1
 858 475 l 1,26,-1
 741 475 l 1,27,-1
 762 621 l 2,28,29
 768 662 768 662 723 662 c 2,30,-1
 446 662 l 1,31,-1
 340 102 l 1,32,-1
 821 102 l 2,33,34
 843 102 843 102 854.5 113.5 c 128,-1,35
 866 125 866 125 872 143 c 2,36,-1
 936 340 l 1,37,-1
 1061 340 l 1,38,-1
 993 0 l 1,39,-1
 -31 0 l 1,0,-1
572 1528 m 1,40,-1
 851 1848 l 2,41,42
 861 1860 861 1860 872 1869 c 128,-1,43
 883 1878 883 1878 896.5 1885 c 128,-1,44
 910 1892 910 1892 927.5 1895.5 c 128,-1,45
 945 1899 945 1899 968 1899 c 0,46,47
 995 1899 995 1899 1014.5 1891 c 128,-1,48
 1034 1883 1034 1883 1046.5 1870.5 c 128,-1,49
 1059 1858 1059 1858 1065.5 1842 c 128,-1,50
 1072 1826 1072 1826 1072 1811 c 0,51,52
 1072 1782 1072 1782 1059 1762.5 c 128,-1,53
 1046 1743 1046 1743 1023 1727 c 2,54,-1
 716 1528 l 1,55,-1
 572 1528 l 1,40,-1
EndSplineSet
Validated: 1
EndChar

StartChar: Ecircumflex
Encoding: 202 202 140
Width: 1143
GlyphClass: 2
Flags: W
LayerCount: 2
Fore
SplineSet
-31 0 m 1,0,-1
 -31 86 l 1,1,-1
 88 96 l 2,2,3
 131 99 131 99 137 135 c 2,4,-1
 350 1237 l 2,5,6
 353 1254 353 1254 345 1265 c 128,-1,7
 337 1276 337 1276 311 1278 c 2,8,-1
 197 1288 l 1,9,-1
 197 1374 l 1,10,-1
 1188 1374 l 1,11,-1
 1126 1067 l 1,12,-1
 995 1067 l 1,13,-1
 995 1233 l 2,14,15
 995 1255 995 1255 987 1263.5 c 128,-1,16
 979 1272 979 1272 956 1272 c 2,17,-1
 563 1272 l 1,18,-1
 469 768 l 1,19,-1
 743 768 l 2,20,21
 765 768 765 768 776.5 776.5 c 128,-1,22
 788 785 788 785 795 807 c 2,23,-1
 834 944 l 1,24,-1
 948 944 l 1,25,-1
 858 475 l 1,26,-1
 741 475 l 1,27,-1
 762 621 l 2,28,29
 768 662 768 662 723 662 c 2,30,-1
 446 662 l 1,31,-1
 340 102 l 1,32,-1
 821 102 l 2,33,34
 843 102 843 102 854.5 113.5 c 128,-1,35
 866 125 866 125 872 143 c 2,36,-1
 936 340 l 1,37,-1
 1061 340 l 1,38,-1
 993 0 l 1,39,-1
 -31 0 l 1,0,-1
389 1528 m 1,40,-1
 727 1875 l 1,41,-1
 888 1875 l 1,42,-1
 1089 1528 l 1,43,-1
 946 1528 l 1,44,-1
 778 1717 l 1,45,-1
 532 1528 l 1,46,-1
 389 1528 l 1,40,-1
EndSplineSet
Validated: 1
EndChar

StartChar: Edieresis
Encoding: 203 203 141
Width: 1143
GlyphClass: 2
Flags: W
LayerCount: 2
Fore
SplineSet
-31 0 m 1,0,-1
 -31 86 l 1,1,-1
 88 96 l 2,2,3
 131 99 131 99 137 135 c 2,4,-1
 350 1237 l 2,5,6
 353 1254 353 1254 345 1265 c 128,-1,7
 337 1276 337 1276 311 1278 c 2,8,-1
 197 1288 l 1,9,-1
 197 1374 l 1,10,-1
 1188 1374 l 1,11,-1
 1126 1067 l 1,12,-1
 995 1067 l 1,13,-1
 995 1233 l 2,14,15
 995 1255 995 1255 987 1263.5 c 128,-1,16
 979 1272 979 1272 956 1272 c 2,17,-1
 563 1272 l 1,18,-1
 469 768 l 1,19,-1
 743 768 l 2,20,21
 765 768 765 768 776.5 776.5 c 128,-1,22
 788 785 788 785 795 807 c 2,23,-1
 834 944 l 1,24,-1
 948 944 l 1,25,-1
 858 475 l 1,26,-1
 741 475 l 1,27,-1
 762 621 l 2,28,29
 768 662 768 662 723 662 c 2,30,-1
 446 662 l 1,31,-1
 340 102 l 1,32,-1
 821 102 l 2,33,34
 843 102 843 102 854.5 113.5 c 128,-1,35
 866 125 866 125 872 143 c 2,36,-1
 936 340 l 1,37,-1
 1061 340 l 1,38,-1
 993 0 l 1,39,-1
 -31 0 l 1,0,-1
453 1711 m 0,40,41
 453 1733 453 1733 462 1753.5 c 128,-1,42
 471 1774 471 1774 486 1790 c 128,-1,43
 501 1806 501 1806 521 1815.5 c 128,-1,44
 541 1825 541 1825 563 1825 c 0,45,46
 586 1825 586 1825 606.5 1816 c 128,-1,47
 627 1807 627 1807 642.5 1792 c 128,-1,48
 658 1777 658 1777 667 1756.5 c 128,-1,49
 676 1736 676 1736 676 1713 c 256,50,51
 676 1690 676 1690 667 1669 c 128,-1,52
 658 1648 658 1648 642.5 1632 c 128,-1,53
 627 1616 627 1616 606.5 1607 c 128,-1,54
 586 1598 586 1598 563 1598 c 0,55,56
 541 1598 541 1598 521 1607 c 128,-1,57
 501 1616 501 1616 486 1632 c 128,-1,58
 471 1648 471 1648 462 1668 c 128,-1,59
 453 1688 453 1688 453 1711 c 0,40,41
877 1713 m 0,60,61
 877 1734 877 1734 886.5 1754.5 c 128,-1,62
 896 1775 896 1775 911.5 1790.5 c 128,-1,63
 927 1806 927 1806 947.5 1815.5 c 128,-1,64
 968 1825 968 1825 989 1825 c 0,65,66
 1012 1825 1012 1825 1032.5 1816 c 128,-1,67
 1053 1807 1053 1807 1068 1792 c 128,-1,68
 1083 1777 1083 1777 1091.5 1756.5 c 128,-1,69
 1100 1736 1100 1736 1100 1713 c 256,70,71
 1100 1690 1100 1690 1091.5 1669 c 128,-1,72
 1083 1648 1083 1648 1068 1632 c 128,-1,73
 1053 1616 1053 1616 1032.5 1607 c 128,-1,74
 1012 1598 1012 1598 989 1598 c 256,75,76
 966 1598 966 1598 945.5 1607 c 128,-1,77
 925 1616 925 1616 910 1632 c 128,-1,78
 895 1648 895 1648 886 1669 c 128,-1,79
 877 1690 877 1690 877 1713 c 0,60,61
EndSplineSet
Validated: 1
EndChar

StartChar: Igrave
Encoding: 204 204 142
Width: 643
GlyphClass: 2
Flags: W
LayerCount: 2
Fore
SplineSet
-31 0 m 1,0,-1
 -31 86 l 1,1,-1
 98 96 l 2,2,3
 117 98 117 98 125.5 107.5 c 128,-1,4
 134 117 134 117 137 135 c 2,5,-1
 350 1237 l 2,6,7
 353 1254 353 1254 345 1265 c 128,-1,8
 337 1276 337 1276 311 1278 c 2,9,-1
 197 1288 l 1,10,-1
 197 1374 l 1,11,-1
 729 1374 l 1,12,-1
 729 1288 l 1,13,-1
 598 1278 l 2,14,15
 578 1276 578 1276 570 1266.5 c 128,-1,16
 562 1257 562 1257 557 1237 c 1,17,-1
 344 135 l 2,18,19
 341 120 341 120 349 109 c 128,-1,20
 357 98 357 98 385 96 c 2,21,-1
 504 86 l 1,22,-1
 504 0 l 1,23,-1
 -31 0 l 1,0,-1
225 1809 m 0,24,25
 225 1824 225 1824 229.5 1840 c 128,-1,26
 234 1856 234 1856 244.5 1869 c 128,-1,27
 255 1882 255 1882 272.5 1890.5 c 128,-1,28
 290 1899 290 1899 317 1899 c 0,29,30
 339 1899 339 1899 354.5 1895 c 128,-1,31
 370 1891 370 1891 382 1884.5 c 128,-1,32
 394 1878 394 1878 403.5 1868.5 c 128,-1,33
 413 1859 413 1859 422 1848 c 2,34,-1
 696 1528 l 1,35,-1
 569 1528 l 1,36,-1
 272 1723 l 2,37,38
 251 1737 251 1737 238 1757.5 c 128,-1,39
 225 1778 225 1778 225 1809 c 0,24,25
EndSplineSet
Validated: 1
EndChar

StartChar: Iacute
Encoding: 205 205 143
Width: 643
GlyphClass: 2
Flags: W
LayerCount: 2
Fore
SplineSet
-31 0 m 1,0,-1
 -31 86 l 1,1,-1
 98 96 l 2,2,3
 117 98 117 98 125.5 107.5 c 128,-1,4
 134 117 134 117 137 135 c 2,5,-1
 350 1237 l 2,6,7
 353 1254 353 1254 345 1265 c 128,-1,8
 337 1276 337 1276 311 1278 c 2,9,-1
 197 1288 l 1,10,-1
 197 1374 l 1,11,-1
 729 1374 l 1,12,-1
 729 1288 l 1,13,-1
 598 1278 l 2,14,15
 578 1276 578 1276 570 1266.5 c 128,-1,16
 562 1257 562 1257 557 1237 c 1,17,-1
 344 135 l 2,18,19
 341 120 341 120 349 109 c 128,-1,20
 357 98 357 98 385 96 c 2,21,-1
 504 86 l 1,22,-1
 504 0 l 1,23,-1
 -31 0 l 1,0,-1
326 1528 m 1,24,-1
 605 1848 l 2,25,26
 615 1860 615 1860 626 1869 c 128,-1,27
 637 1878 637 1878 650.5 1885 c 128,-1,28
 664 1892 664 1892 681.5 1895.5 c 128,-1,29
 699 1899 699 1899 722 1899 c 0,30,31
 749 1899 749 1899 768.5 1891 c 128,-1,32
 788 1883 788 1883 800.5 1870.5 c 128,-1,33
 813 1858 813 1858 819.5 1842 c 128,-1,34
 826 1826 826 1826 826 1811 c 0,35,36
 826 1782 826 1782 813 1762.5 c 128,-1,37
 800 1743 800 1743 777 1727 c 2,38,-1
 470 1528 l 1,39,-1
 326 1528 l 1,24,-1
EndSplineSet
Validated: 1
EndChar

StartChar: Icircumflex
Encoding: 206 206 144
Width: 643
GlyphClass: 2
Flags: W
LayerCount: 2
Fore
SplineSet
-31 0 m 1,0,-1
 -31 86 l 1,1,-1
 98 96 l 2,2,3
 117 98 117 98 125.5 107.5 c 128,-1,4
 134 117 134 117 137 135 c 2,5,-1
 350 1237 l 2,6,7
 353 1254 353 1254 345 1265 c 128,-1,8
 337 1276 337 1276 311 1278 c 2,9,-1
 197 1288 l 1,10,-1
 197 1374 l 1,11,-1
 729 1374 l 1,12,-1
 729 1288 l 1,13,-1
 598 1278 l 2,14,15
 578 1276 578 1276 570 1266.5 c 128,-1,16
 562 1257 562 1257 557 1237 c 1,17,-1
 344 135 l 2,18,19
 341 120 341 120 349 109 c 128,-1,20
 357 98 357 98 385 96 c 2,21,-1
 504 86 l 1,22,-1
 504 0 l 1,23,-1
 -31 0 l 1,0,-1
143 1528 m 1,24,-1
 481 1875 l 1,25,-1
 642 1875 l 1,26,-1
 843 1528 l 1,27,-1
 700 1528 l 1,28,-1
 532 1717 l 1,29,-1
 286 1528 l 1,30,-1
 143 1528 l 1,24,-1
EndSplineSet
Validated: 1
EndChar

StartChar: Idieresis
Encoding: 207 207 145
Width: 643
GlyphClass: 2
Flags: W
LayerCount: 2
Fore
SplineSet
-31 0 m 1,0,-1
 -31 86 l 1,1,-1
 98 96 l 2,2,3
 117 98 117 98 125.5 107.5 c 128,-1,4
 134 117 134 117 137 135 c 2,5,-1
 350 1237 l 2,6,7
 353 1254 353 1254 345 1265 c 128,-1,8
 337 1276 337 1276 311 1278 c 2,9,-1
 197 1288 l 1,10,-1
 197 1374 l 1,11,-1
 729 1374 l 1,12,-1
 729 1288 l 1,13,-1
 598 1278 l 2,14,15
 578 1276 578 1276 570 1266.5 c 128,-1,16
 562 1257 562 1257 557 1237 c 1,17,-1
 344 135 l 2,18,19
 341 120 341 120 349 109 c 128,-1,20
 357 98 357 98 385 96 c 2,21,-1
 504 86 l 1,22,-1
 504 0 l 1,23,-1
 -31 0 l 1,0,-1
207 1711 m 0,24,25
 207 1733 207 1733 216 1753.5 c 128,-1,26
 225 1774 225 1774 240 1790 c 128,-1,27
 255 1806 255 1806 275 1815.5 c 128,-1,28
 295 1825 295 1825 317 1825 c 0,29,30
 340 1825 340 1825 360.5 1816 c 128,-1,31
 381 1807 381 1807 396.5 1792 c 128,-1,32
 412 1777 412 1777 421 1756.5 c 128,-1,33
 430 1736 430 1736 430 1713 c 256,34,35
 430 1690 430 1690 421 1669 c 128,-1,36
 412 1648 412 1648 396.5 1632 c 128,-1,37
 381 1616 381 1616 360.5 1607 c 128,-1,38
 340 1598 340 1598 317 1598 c 0,39,40
 295 1598 295 1598 275 1607 c 128,-1,41
 255 1616 255 1616 240 1632 c 128,-1,42
 225 1648 225 1648 216 1668 c 128,-1,43
 207 1688 207 1688 207 1711 c 0,24,25
631 1713 m 0,44,45
 631 1734 631 1734 640.5 1754.5 c 128,-1,46
 650 1775 650 1775 665.5 1790.5 c 128,-1,47
 681 1806 681 1806 701.5 1815.5 c 128,-1,48
 722 1825 722 1825 743 1825 c 0,49,50
 766 1825 766 1825 786.5 1816 c 128,-1,51
 807 1807 807 1807 822 1792 c 128,-1,52
 837 1777 837 1777 845.5 1756.5 c 128,-1,53
 854 1736 854 1736 854 1713 c 256,54,55
 854 1690 854 1690 845.5 1669 c 128,-1,56
 837 1648 837 1648 822 1632 c 128,-1,57
 807 1616 807 1616 786.5 1607 c 128,-1,58
 766 1598 766 1598 743 1598 c 256,59,60
 720 1598 720 1598 699.5 1607 c 128,-1,61
 679 1616 679 1616 664 1632 c 128,-1,62
 649 1648 649 1648 640 1669 c 128,-1,63
 631 1690 631 1690 631 1713 c 0,44,45
EndSplineSet
Validated: 1
EndChar

StartChar: Eth
Encoding: 208 208 146
Width: 1374
GlyphClass: 2
Flags: W
LayerCount: 2
Fore
SplineSet
-31 0 m 1,0,-1
 -31 86 l 1,1,-1
 96 96 l 2,2,3
 116 98 116 98 124 107.5 c 128,-1,4
 132 117 132 117 137 135 c 1,5,-1
 240 668 l 1,6,-1
 59 668 l 1,7,-1
 59 776 l 1,8,-1
 261 776 l 1,9,-1
 350 1237 l 2,10,11
 353 1254 353 1254 345 1265 c 128,-1,12
 337 1276 337 1276 309 1278 c 2,13,-1
 195 1288 l 1,14,-1
 195 1374 l 1,15,-1
 684 1374 l 2,16,17
 824 1374 824 1374 943.5 1347 c 128,-1,18
 1063 1320 1063 1320 1150.5 1258 c 128,-1,19
 1238 1196 1238 1196 1287.5 1096 c 128,-1,20
 1337 996 1337 996 1337 850 c 0,21,22
 1337 724 1337 724 1308 612 c 128,-1,23
 1279 500 1279 500 1224 405.5 c 128,-1,24
 1169 311 1169 311 1090.5 236 c 128,-1,25
 1012 161 1012 161 913.5 108.5 c 128,-1,26
 815 56 815 56 698.5 28 c 128,-1,27
 582 0 582 0 451 0 c 2,28,-1
 -31 0 l 1,0,-1
338 106 m 1,29,-1
 487 106 l 1,30,31
 642 108 642 108 760 172.5 c 128,-1,32
 878 237 878 237 957 343 c 128,-1,33
 1036 449 1036 449 1076 585.5 c 128,-1,34
 1116 722 1116 722 1116 868 c 0,35,36
 1116 996 1116 996 1077 1074 c 128,-1,37
 1038 1152 1038 1152 972 1195 c 128,-1,38
 906 1238 906 1238 819 1253.5 c 128,-1,39
 732 1269 732 1269 637 1272 c 1,40,-1
 563 1272 l 1,41,-1
 467 776 l 1,42,-1
 711 776 l 1,43,-1
 711 668 l 1,44,-1
 446 668 l 1,45,-1
 338 106 l 1,29,-1
EndSplineSet
Validated: 1
EndChar

StartChar: Ntilde
Encoding: 209 209 147
Width: 1456
GlyphClass: 2
Flags: W
LayerCount: 2
Fore
SplineSet
-29 0 m 1,0,-1
 -29 86 l 1,1,-1
 88 96 l 2,2,3
 130 99 130 99 139 135 c 1,4,-1
 350 1237 l 2,5,6
 353 1254 353 1254 345 1265 c 128,-1,7
 337 1276 337 1276 311 1278 c 2,8,-1
 197 1288 l 1,9,-1
 197 1374 l 1,10,-1
 592 1374 l 1,11,-1
 592 1321 l 1,12,-1
 1053 344 l 1,13,-1
 1227 1237 l 2,14,15
 1230 1254 1230 1254 1222 1265 c 128,-1,16
 1214 1276 1214 1276 1188 1278 c 2,17,-1
 1071 1288 l 1,18,-1
 1071 1374 l 1,19,-1
 1546 1374 l 1,20,-1
 1546 1288 l 1,21,-1
 1430 1278 l 2,22,23
 1410 1276 1410 1276 1396.5 1266.5 c 128,-1,24
 1383 1257 1383 1257 1378 1237 c 1,25,-1
 1137 0 l 1,26,-1
 989 0 l 1,27,-1
 473 1087 l 1,28,-1
 291 135 l 2,29,30
 288 120 288 120 296 109 c 128,-1,31
 304 98 304 98 332 96 c 2,32,-1
 446 86 l 1,33,-1
 446 0 l 1,34,-1
 -29 0 l 1,0,-1
534 1598 m 1,35,36
 555 1643 555 1643 583.5 1682.5 c 128,-1,37
 612 1722 612 1722 648 1751.5 c 128,-1,38
 684 1781 684 1781 729 1798 c 128,-1,39
 774 1815 774 1815 829 1815 c 0,40,41
 871 1815 871 1815 902.5 1801.5 c 128,-1,42
 934 1788 934 1788 966 1766 c 1,43,44
 992 1751 992 1751 1021 1736 c 128,-1,45
 1050 1721 1050 1721 1097 1721 c 0,46,47
 1111 1721 1111 1721 1127.5 1728 c 128,-1,48
 1144 1735 1144 1735 1160 1747.5 c 128,-1,49
 1176 1760 1176 1760 1189.5 1777 c 128,-1,50
 1203 1794 1203 1794 1212 1815 c 1,51,-1
 1321 1815 l 1,52,53
 1299 1770 1299 1770 1270.5 1730.5 c 128,-1,54
 1242 1691 1242 1691 1205.5 1661.5 c 128,-1,55
 1169 1632 1169 1632 1124 1615 c 128,-1,56
 1079 1598 1079 1598 1024 1598 c 0,57,58
 982 1598 982 1598 951 1611.5 c 128,-1,59
 920 1625 920 1625 888 1645 c 0,60,61
 875 1654 875 1654 862 1662 c 128,-1,62
 849 1670 849 1670 833.5 1677 c 128,-1,63
 818 1684 818 1684 799.5 1688 c 128,-1,64
 781 1692 781 1692 757 1692 c 0,65,66
 744 1692 744 1692 727.5 1685 c 128,-1,67
 711 1678 711 1678 695 1665.5 c 128,-1,68
 679 1653 679 1653 665 1636 c 128,-1,69
 651 1619 651 1619 643 1598 c 1,70,-1
 534 1598 l 1,35,36
EndSplineSet
Validated: 1
EndChar

